<svg width="1184" height="88" viewBox="0 0 1184 88" fill="none" xmlns="http://www.w3.org/2000/svg">
<path d="M0.566406 88V82.5508V77.1016V71.6523V66.2031V60.7539V55.3047V49.8555V44.4062V38.957V33.5078V28V22.5508H6.01562V17.1016H11.4648V11.6523H16.9141V6.20312H22.3633V0.753906H27.8125H33.2617H38.7109H44.1602H49.6094H55.0586H60.5664V6.20312H66.0156V11.6523V17.1016V22.5508V28V33.5078V38.957V44.4062V49.8555V55.3047V60.7539V66.2031V71.6523V77.1016V82.5508V88H60.5664H55.0586H49.6094H44.1602H38.7109V82.5508V77.1016V71.6523V66.2031V60.7539V55.3047H33.2617V60.7539H27.8125V66.2031V71.6523V77.1016V82.5508V88H22.3633H16.9141H11.4648H6.01562H0.566406ZM27.8125 49.8555H33.2617V44.4062H38.7109V38.957V33.5078V28V22.5508V17.1016V11.6523V6.20312H33.2617V11.6523H27.8125V17.1016V22.5508V28V33.5078V38.957V44.4062V49.8555ZM71.4648 88V82.5508V77.1016V71.6523V66.2031V60.7539V55.3047V49.8555V44.4062V38.957V33.5078V28V22.5508V17.1016V11.6523V6.20312V0.753906H76.9141H82.3633H87.8125H93.2617H98.7109V6.20312V11.6523V17.1016V22.5508V28V33.5078V38.957V44.4062V49.8555V55.3047V60.7539V66.2031V71.6523V77.1016V82.5508V88H93.2617H87.8125H82.3633H76.9141H71.4648ZM104.16 77.1016V71.6523V66.2031V60.7539V55.3047V49.8555V44.4062V38.957V33.5078H109.609V28H115.059V22.5508H120.508H125.957H131.406H136.855H142.305H147.754H153.203H158.652V28H164.16V33.5078H169.609V38.957V44.4062V49.8555H164.16H158.652H153.203H147.754H142.305V44.4062V38.957V33.5078V28H136.855V33.5078H131.406V38.957V44.4062V49.8555V55.3047V60.7539V66.2031V71.6523V77.1016V82.5508H136.855V77.1016H142.305V71.6523V66.2031H147.754H153.203H158.652H164.16H169.609V71.6523V77.1016H164.16V82.5508H158.652V88H153.203H147.754H142.305H136.855H131.406H125.957H120.508H115.059V82.5508H109.609V77.1016H104.16ZM175.059 88V82.5508V77.1016V71.6523V66.2031V60.7539V55.3047V49.8555V44.4062V38.957V33.5078V28V22.5508V17.1016V11.6523H180.508V6.20312H185.957V0.753906H191.406H196.855H202.305V6.20312V11.6523V17.1016V22.5508V28H207.754V33.5078H202.305V38.957V44.4062V49.8555V55.3047V60.7539V66.2031V71.6523V77.1016V82.5508V88H196.855H191.406H185.957H180.508H175.059ZM207.754 28V22.5508H213.203H218.652H224.102H229.551V28H235.059V33.5078H240.508V38.957V44.4062V49.8555V55.3047V60.7539V66.2031V71.6523V77.1016V82.5508V88H235.059H229.551H224.102H218.652H213.203V82.5508V77.1016V71.6523V66.2031V60.7539V55.3047V49.8555V44.4062V38.957V33.5078V28H207.754ZM245.957 77.1016V71.6523V66.2031V60.7539V55.3047V49.8555V44.4062V38.957V33.5078H251.406V28H256.855V22.5508H262.305H267.754H273.203H278.652H284.102H289.551H295H300.449V28H305.957V33.5078H311.406V38.957V44.4062V49.8555H305.957V55.3047H300.449H295H289.551H284.102H278.652H273.203V60.7539V66.2031V71.6523V77.1016H278.652V71.6523H284.102V66.2031H289.551H295H300.449H305.957H311.406V71.6523V77.1016H305.957V82.5508H300.449V88H295H289.551H284.102H278.652H273.203H267.754H262.305H256.855V82.5508H251.406V77.1016H245.957ZM273.203 49.8555H278.652H284.102V44.4062V38.957V33.5078V28H278.652V33.5078H273.203V38.957V44.4062V49.8555ZM316.855 88V82.5508V77.1016V71.6523V66.2031V60.7539V55.3047V49.8555V44.4062V38.957V33.5078V28V22.5508H322.305H327.754H333.203H338.652V28V33.5078H344.102V28H349.551V22.5508H355H360.449H365.898H371.348H376.855V28H382.305V33.5078V38.957V44.4062H376.855H371.348H365.898H360.449H355V38.957V33.5078H349.551V38.957H344.102V44.4062V49.8555V55.3047V60.7539V66.2031V71.6523V77.1016V82.5508V88H338.652H333.203H327.754H322.305H316.855ZM431.348 88V82.5508V77.1016V71.6523V66.2031V60.7539V55.3047V49.8555V44.4062V38.957V33.5078V28V22.5508V17.1016V11.6523V6.20312V0.753906H436.797H442.246V6.20312H447.695V11.6523H453.145V17.1016H458.594V22.5508H464.043V28H469.492V33.5078H474.941V28H480.391V22.5508H485.84V17.1016H491.348V11.6523H496.797V6.20312H502.246V0.753906H507.695H513.145V6.20312V11.6523V17.1016V22.5508V28V33.5078V38.957V44.4062V49.8555V55.3047V60.7539V66.2031V71.6523V77.1016V82.5508V88H507.695H502.246H496.797H491.348H485.84V82.5508V77.1016V71.6523V66.2031V60.7539V55.3047V49.8555V44.4062V38.957V33.5078H480.391V38.957H474.941V44.4062H469.492V38.957H464.043V33.5078H458.594V38.957V44.4062V49.8555V55.3047V60.7539V66.2031V71.6523V77.1016V82.5508V88H453.145H447.695H442.246H436.797H431.348ZM518.652 77.1016V71.6523V66.2031V60.7539V55.3047V49.8555V44.4062V38.957V33.5078H524.102V28H529.551V22.5508H535H540.449H545.898H551.348H556.797H562.246H567.695H573.145V28H578.652V33.5078H584.102V38.957V44.4062V49.8555H578.652V55.3047H573.145H567.695H562.246H556.797H551.348H545.898V60.7539V66.2031V71.6523V77.1016H551.348V71.6523H556.797V66.2031H562.246H567.695H573.145H578.652H584.102V71.6523V77.1016H578.652V82.5508H573.145V88H567.695H562.246H556.797H551.348H545.898H540.449H535H529.551V82.5508H524.102V77.1016H518.652ZM545.898 49.8555H551.348H556.797V44.4062V38.957V33.5078V28H551.348V33.5078H545.898V38.957V44.4062V49.8555ZM589.551 88V82.5508V77.1016V71.6523V66.2031V60.7539V55.3047V49.8555V44.4062V38.957V33.5078V28V22.5508H595H600.449H605.898H611.348V28V33.5078H616.797V28H622.246V22.5508H627.695H633.145H638.594H644.043H649.551V28H655V33.5078V38.957V44.4062H649.551H644.043H638.594H633.145H627.695V38.957V33.5078H622.246V38.957H616.797V44.4062V49.8555V55.3047V60.7539V66.2031V71.6523V77.1016V82.5508V88H611.348H605.898H600.449H595H589.551ZM660.449 77.1016V71.6523V66.2031V60.7539V55.3047V49.8555V44.4062V38.957V33.5078H665.898V28H671.348V22.5508H676.797H682.246H687.695H693.145H698.594H704.043H709.492H714.941V28H720.449V33.5078H725.898V38.957V44.4062V49.8555H720.449H714.941H709.492H704.043H698.594V44.4062V38.957V33.5078V28H693.145V33.5078H687.695V38.957V44.4062V49.8555V55.3047V60.7539V66.2031V71.6523V77.1016V82.5508H693.145V77.1016H698.594V71.6523V66.2031H704.043H709.492H714.941H720.449H725.898V71.6523V77.1016H720.449V82.5508H714.941V88H709.492H704.043H698.594H693.145H687.695H682.246H676.797H671.348V82.5508H665.898V77.1016H660.449ZM731.348 88V82.5508V77.1016V71.6523V66.2031V60.7539V55.3047V49.8555V44.4062V38.957V33.5078V28V22.5508V17.1016V11.6523H736.797V6.20312H742.246V0.753906H747.695H753.145H758.594V6.20312V11.6523V17.1016V22.5508V28H764.043V33.5078H758.594V38.957V44.4062V49.8555V55.3047V60.7539V66.2031V71.6523V77.1016V82.5508V88H753.145H747.695H742.246H736.797H731.348ZM764.043 28V22.5508H769.492H774.941H780.391H785.84V28H791.348V33.5078H796.797V38.957V44.4062V49.8555V55.3047V60.7539V66.2031V71.6523V77.1016V82.5508V88H791.348H785.84H780.391H774.941H769.492V82.5508V77.1016V71.6523V66.2031V60.7539V55.3047V49.8555V44.4062V38.957V33.5078V28H764.043ZM802.246 82.5508V77.1016V71.6523V66.2031V60.7539H807.695V55.3047H813.145H818.594H824.043H829.492H834.941V49.8555H840.391H845.84V44.4062V38.957V33.5078V28H840.391H834.941V33.5078H829.492V38.957V44.4062H824.043H818.594H813.145H807.695V38.957V33.5078V28H813.145V22.5508H818.594H824.043H829.492H834.941H840.391H845.84H851.289H856.738H862.246V28H867.695V33.5078V38.957V44.4062V49.8555V55.3047V60.7539V66.2031V71.6523V77.1016V82.5508V88H862.246H856.738H851.289H845.84V82.5508H840.391V88H834.941H829.492H824.043H818.594H813.145H807.695V82.5508H802.246ZM829.492 82.5508H834.941V77.1016H840.391V71.6523V66.2031V60.7539H834.941H829.492V66.2031V71.6523V77.1016V82.5508ZM873.145 88V82.5508V77.1016V71.6523V66.2031V60.7539V55.3047V49.8555V44.4062V38.957V33.5078V28V22.5508H878.594H884.043H889.492V28V33.5078H894.941V28H900.391V22.5508H905.84H911.289H916.738H922.188H927.637H933.145V28H938.594V33.5078V38.957V44.4062V49.8555V55.3047V60.7539V66.2031V71.6523V77.1016V82.5508V88H933.145H927.637H922.188H916.738H911.289V82.5508V77.1016V71.6523V66.2031V60.7539V55.3047V49.8555V44.4062V38.957V33.5078V28H905.84V33.5078H900.391V38.957V44.4062V49.8555V55.3047V60.7539V66.2031V71.6523V77.1016V82.5508V88H894.941H889.492H884.043H878.594H873.145ZM944.043 77.1016V71.6523V66.2031V60.7539V55.3047V49.8555V44.4062V38.957V33.5078H949.492V28H954.941V22.5508H960.391H965.84H971.289H976.738H982.188V17.1016V11.6523V6.20312V0.753906H987.637H993.086H998.535H1004.04H1009.49V6.20312V11.6523V17.1016V22.5508V28V33.5078V38.957V44.4062V49.8555V55.3047V60.7539V66.2031V71.6523V77.1016V82.5508V88H1004.04H998.535H993.086H987.637H982.188H976.738H971.289H965.84H960.391H954.941V82.5508H949.492V77.1016H944.043ZM971.289 82.5508H976.738V77.1016H982.188V71.6523V66.2031V60.7539V55.3047V49.8555V44.4062V38.957V33.5078V28H976.738V33.5078H971.289V38.957V44.4062V49.8555V55.3047V60.7539V66.2031V71.6523V77.1016V82.5508ZM1014.94 88V82.5508V77.1016V71.6523V66.2031V60.7539V55.3047V49.8555V44.4062V38.957H1020.39V33.5078H1025.84V28H1031.29H1036.74H1042.19V33.5078V38.957V44.4062V49.8555V55.3047V60.7539V66.2031V71.6523V77.1016V82.5508V88H1036.74H1031.29H1025.84H1020.39H1014.94ZM1014.94 22.5508V17.1016V11.6523H1020.39V6.20312H1025.84V0.753906H1031.29H1036.74H1042.19V6.20312V11.6523V17.1016V22.5508H1036.74H1031.29H1025.84H1020.39H1014.94ZM1047.64 82.5508V77.1016V71.6523V66.2031H1053.09H1058.54H1063.98H1069.43H1074.88V71.6523V77.1016V82.5508H1080.33V77.1016H1085.78V71.6523V66.2031V60.7539H1080.33V55.3047H1074.88H1069.43H1063.98H1058.54H1053.09V49.8555H1047.64V44.4062V38.957V33.5078H1053.09V28H1058.54V22.5508H1063.98H1069.43H1074.88H1080.33H1085.78H1091.23H1096.68H1102.13H1107.64V28H1113.09V33.5078V38.957V44.4062H1107.64H1102.13H1096.68H1091.23H1085.78V38.957V33.5078V28H1080.33V33.5078H1074.88V38.957V44.4062H1080.33V49.8555H1085.78H1091.23H1096.68H1102.13V55.3047H1107.64V60.7539H1113.09V66.2031V71.6523V77.1016V82.5508H1107.64V88H1102.13H1096.68H1091.23H1085.78H1080.33H1074.88H1069.43H1063.98H1058.54H1053.09V82.5508H1047.64ZM1118.54 77.1016V71.6523V66.2031V60.7539V55.3047V49.8555V44.4062V38.957V33.5078H1123.98V28H1129.43V22.5508H1134.88H1140.33H1145.78H1151.23H1156.68H1162.13H1167.58H1173.03V28H1178.54V33.5078H1183.98V38.957V44.4062V49.8555H1178.54V55.3047H1173.03H1167.58H1162.13H1156.68H1151.23H1145.78V60.7539V66.2031V71.6523V77.1016H1151.23V71.6523H1156.68V66.2031H1162.13H1167.58H1173.03H1178.54H1183.98V71.6523V77.1016H1178.54V82.5508H1173.03V88H1167.58H1162.13H1156.68H1151.23H1145.78H1140.33H1134.88H1129.43V82.5508H1123.98V77.1016H1118.54ZM1145.78 49.8555H1151.23H1156.68V44.4062V38.957V33.5078V28H1151.23V33.5078H1145.78V38.957V44.4062V49.8555Z" fill="#FE3989"/>
</svg>
