<svg width="795" height="304" viewBox="0 0 795 304" fill="none" xmlns="http://www.w3.org/2000/svg">
<mask id="path-1-outside-1_2480_276" maskUnits="userSpaceOnUse" x="0" y="0" width="795" height="238" fill="black">
<rect fill="white" width="795" height="238"/>
<path d="M442.951 32.6585L441.483 30.5053L411.821 28.2025L399.797 7.02321L396.861 7L384.682 28.1767L353.808 30.4408L353.073 32.4329L362.081 81.9951H347.331L340.164 52.3576L340.048 52.3731L338.696 50.2714L320.358 51.2191L311.526 38.3821L308.845 39.1338L302.464 53.4587L284.69 57.1837L283.556 60.0771L283.715 60.1673L295.03 82.2272L295.096 82.3536L306.761 105.093L294.991 105.098L294.952 105.388L293.978 112.637L289.576 105.056L239.865 105.04L230.01 152.797L225.087 148.696H225.084L214.323 148.673L220.758 120.1L210.987 110.492L212.345 110.503L215.907 90.0305L205.831 74.7618L195.481 74.8417L158.506 74.794L42.1057 196.196L20.9429 196.271L19.9252 196.275L7 225.67L7.57927 225.76L40.0469 230.808H40.0495H87.6708L148.792 152.557L134.374 200.124H134.765L160.188 209.24L272.454 209.223L276.73 229.881H368.406H374.75H380.739H387.16H397.451H406.167H412.548H418.717H425.015L523.995 229.879L533.81 209.206L640.253 209.191L667.179 200.117L667.447 200.027L667.184 199.161L658.424 170.245L706.944 230.508L758.479 230.537L787.841 225.42L788.428 225.318L788.531 225.3L775.831 196.02L770.094 196.1L753.88 196.063L643.393 75.3652L604.226 75.3716L596.545 75.2517L581.729 91.9581L584.87 105.33L561.469 105.321V105.325L556.375 111.527L555.143 105.27L540.272 105.279L529.319 120.342L529.687 122.574L515.68 105.208L499.306 105.268L494.318 114.97L493.172 105.218H487.737L499.877 82.4812L499.951 82.3407L511.893 59.9765L511.912 59.9391L510.9 57.3114L492.861 53.5554L486.782 39.2576L483.982 38.5897L475.137 51.2191L457.206 50.2353L455.666 52.6L455.643 52.6941L448.068 81.9951H433.762L442.951 32.6585Z"/>
</mask>
<path d="M442.951 32.6585L441.483 30.5053L411.821 28.2025L399.797 7.02321L396.861 7L384.682 28.1767L353.808 30.4408L353.073 32.4329L362.081 81.9951H347.331L340.164 52.3576L340.048 52.3731L338.696 50.2714L320.358 51.2191L311.526 38.3821L308.845 39.1338L302.464 53.4587L284.69 57.1837L283.556 60.0771L283.715 60.1673L295.03 82.2272L295.096 82.3536L306.761 105.093L294.991 105.098L294.952 105.388L293.978 112.637L289.576 105.056L239.865 105.04L230.01 152.797L225.087 148.696H225.084L214.323 148.673L220.758 120.1L210.987 110.492L212.345 110.503L215.907 90.0305L205.831 74.7618L195.481 74.8417L158.506 74.794L42.1057 196.196L20.9429 196.271L19.9252 196.275L7 225.67L7.57927 225.76L40.0469 230.808H40.0495H87.6708L148.792 152.557L134.374 200.124H134.765L160.188 209.24L272.454 209.223L276.73 229.881H368.406H374.75H380.739H387.16H397.451H406.167H412.548H418.717H425.015L523.995 229.879L533.81 209.206L640.253 209.191L667.179 200.117L667.447 200.027L667.184 199.161L658.424 170.245L706.944 230.508L758.479 230.537L787.841 225.42L788.428 225.318L788.531 225.3L775.831 196.02L770.094 196.1L753.88 196.063L643.393 75.3652L604.226 75.3716L596.545 75.2517L581.729 91.9581L584.87 105.33L561.469 105.321V105.325L556.375 111.527L555.143 105.27L540.272 105.279L529.319 120.342L529.687 122.574L515.68 105.208L499.306 105.268L494.318 114.97L493.172 105.218H487.737L499.877 82.4812L499.951 82.3407L511.893 59.9765L511.912 59.9391L510.9 57.3114L492.861 53.5554L486.782 39.2576L483.982 38.5897L475.137 51.2191L457.206 50.2353L455.666 52.6L455.643 52.6941L448.068 81.9951H433.762L442.951 32.6585Z" fill="#FFEBD3"/>
<path d="M442.951 32.6585L441.483 30.5053L411.821 28.2025L399.797 7.02321L396.861 7L384.682 28.1767L353.808 30.4408L353.073 32.4329L362.081 81.9951H347.331L340.164 52.3576L340.048 52.3731L338.696 50.2714L320.358 51.2191L311.526 38.3821L308.845 39.1338L302.464 53.4587L284.69 57.1837L283.556 60.0771L283.715 60.1673L295.03 82.2272L295.096 82.3536L306.761 105.093L294.991 105.098L294.952 105.388L293.978 112.637L289.576 105.056L239.865 105.04L230.01 152.797L225.087 148.696H225.084L214.323 148.673L220.758 120.1L210.987 110.492L212.345 110.503L215.907 90.0305L205.831 74.7618L195.481 74.8417L158.506 74.794L42.1057 196.196L20.9429 196.271L19.9252 196.275L7 225.67L7.57927 225.76L40.0469 230.808H40.0495H87.6708L148.792 152.557L134.374 200.124H134.765L160.188 209.24L272.454 209.223L276.73 229.881H368.406H374.75H380.739H387.16H397.451H406.167H412.548H418.717H425.015L523.995 229.879L533.81 209.206L640.253 209.191L667.179 200.117L667.447 200.027L667.184 199.161L658.424 170.245L706.944 230.508L758.479 230.537L787.841 225.42L788.428 225.318L788.531 225.3L775.831 196.02L770.094 196.1L753.88 196.063L643.393 75.3652L604.226 75.3716L596.545 75.2517L581.729 91.9581L584.87 105.33L561.469 105.321V105.325L556.375 111.527L555.143 105.27L540.272 105.279L529.319 120.342L529.687 122.574L515.68 105.208L499.306 105.268L494.318 114.97L493.172 105.218H487.737L499.877 82.4812L499.951 82.3407L511.893 59.9765L511.912 59.9391L510.9 57.3114L492.861 53.5554L486.782 39.2576L483.982 38.5897L475.137 51.2191L457.206 50.2353L455.666 52.6L455.643 52.6941L448.068 81.9951H433.762L442.951 32.6585Z" stroke="#FFEBD3" stroke-width="12.8745" stroke-linejoin="round" mask="url(#path-1-outside-1_2480_276)"/>
<path d="M337.234 86.6846C337.252 86.5144 337.347 86.4241 337.519 86.4241H340.699C340.871 86.4241 340.948 86.5092 340.935 86.6846C340.512 90.9421 339.964 95.1906 339.47 99.4391C339.446 99.6273 339.351 99.7214 339.175 99.7214H335.992C335.82 99.7214 335.743 99.6273 335.765 99.4391C336.259 95.1906 336.812 90.9421 337.234 86.6846Z" fill="#FE3989"/>
<path d="M342.846 86.6899C342.864 86.5158 342.96 86.4294 343.132 86.4294C344.185 86.4294 345.241 86.4333 346.293 86.4333C346.465 86.4333 346.542 86.5184 346.529 86.6937C346.117 90.9512 345.586 95.1959 345.101 99.4443C345.078 99.6326 344.983 99.7267 344.806 99.7267H341.622C341.45 99.7267 341.373 99.6326 341.395 99.4443C341.885 95.1907 342.425 90.9474 342.846 86.6899Z" fill="#FE3989"/>
<path d="M351.082 87.5142C351.101 87.3388 351.018 87.2537 350.85 87.2537H350.538C350.365 87.2537 350.269 87.3388 350.256 87.5142C350.207 88.0338 350.152 88.5534 350.103 89.0743C350.084 89.2484 349.989 89.3387 349.817 89.3387H349.517C349.345 89.3387 349.249 89.4238 349.231 89.603C349.218 89.7242 349.214 89.7874 349.2 89.9073C349.181 90.0826 349.086 90.1716 348.914 90.1716C348.465 90.1716 348.243 90.1716 347.798 90.1664C347.626 90.1664 347.549 90.0762 347.568 89.9021C347.681 88.8358 347.789 87.7734 347.894 86.707C347.912 86.5317 348.003 86.4466 348.176 86.4466C351.395 86.4556 354.619 86.4646 357.839 86.4775C358.011 86.4775 358.088 86.5678 358.075 86.738C357.984 87.8043 357.889 88.8719 357.784 89.9382C357.766 90.1136 357.671 90.2025 357.504 90.2025C357.059 90.2025 356.837 90.1987 356.392 90.1987C356.22 90.1987 356.143 90.1084 356.161 89.9343C356.174 89.8131 356.18 89.75 356.193 89.6301C356.211 89.4547 356.134 89.3657 355.962 89.3657H355.662C355.489 89.3657 355.412 89.2755 355.431 89.1014C355.48 88.5818 355.531 88.0622 355.576 87.5413C355.59 87.3659 355.513 87.2808 355.345 87.2808H355.031C354.859 87.2808 354.769 87.3659 354.751 87.5413C354.383 91.5216 353.921 95.4877 353.485 99.4628C353.467 99.6511 353.368 99.7452 353.195 99.7452H350.011C349.839 99.7452 349.762 99.6511 349.78 99.4628C350.22 95.4696 350.696 91.4984 351.082 87.5142Z" fill="#FE3989"/>
<path d="M363.264 99.1247C363.282 98.9416 363.205 98.8474 363.033 98.8474H362.733C362.561 98.8474 362.484 98.7533 362.502 98.5689C362.517 98.4387 362.52 98.3768 362.534 98.2466C362.552 98.0635 362.475 97.9681 362.303 97.9681H362.004C361.832 97.9681 361.755 97.874 361.772 97.6909C362.085 94.5938 362.398 91.4967 362.661 88.3958C362.674 88.2217 362.77 88.1353 362.938 88.1353H363.233C363.405 88.1353 363.495 88.0502 363.509 87.8749C363.519 87.7537 363.522 87.6905 363.532 87.5706C363.546 87.3952 363.636 87.3101 363.808 87.3101H364.103C364.275 87.3101 364.367 87.225 364.38 87.0497C364.389 86.9285 364.394 86.8705 364.403 86.7493C364.416 86.5739 364.506 86.4888 364.674 86.4888C366.579 86.4978 368.484 86.5069 370.389 86.5197C370.565 86.5197 370.651 86.6139 370.638 86.7931C370.629 86.9001 370.629 86.9594 370.62 87.0664C370.607 87.2508 370.693 87.3398 370.869 87.3449C371.056 87.3449 371.151 87.3449 371.336 87.3488C371.513 87.3488 371.6 87.4429 371.585 87.626C371.536 88.41 371.481 89.19 371.422 89.9701C371.409 90.1532 371.314 90.2473 371.132 90.2473C370.365 90.2435 369.603 90.2383 368.838 90.2344C368.656 90.2344 368.574 90.1403 368.588 89.9559C368.598 89.8399 368.601 89.7819 368.611 89.6645C368.625 89.4892 368.548 89.4002 368.374 89.4002H368.094C367.913 89.4002 367.83 89.3061 367.845 89.123C367.885 88.6124 367.922 88.1005 367.958 87.5951C367.971 87.4197 367.889 87.3346 367.722 87.3308H367.427C367.255 87.3308 367.164 87.4159 367.155 87.5912C367.145 87.7124 367.142 87.7704 367.132 87.8955C367.119 88.0709 367.028 88.156 366.856 88.156H366.561C366.389 88.156 366.297 88.2411 366.284 88.4164C366.039 91.5135 365.744 94.6054 365.449 97.6986C365.432 97.8817 365.509 97.9758 365.686 97.9758H365.986C366.158 97.9758 366.235 98.07 366.22 98.2543C366.207 98.3846 366.202 98.4465 366.189 98.5728C366.171 98.7572 366.248 98.8513 366.425 98.8513H366.724C366.896 98.8513 366.991 98.7572 367.01 98.5728C367.096 97.6535 367.182 96.7355 367.264 95.8161C367.282 95.6369 367.2 95.5428 367.028 95.5428H366.729C366.557 95.5428 366.479 95.4525 366.493 95.2694C366.543 94.7447 366.592 94.2212 366.638 93.6925C366.656 93.5043 366.757 93.4102 366.938 93.4102C368.248 93.414 369.563 93.4192 370.874 93.4282C371.056 93.4282 371.136 93.5223 371.123 93.7106C370.964 95.624 370.797 97.5336 370.633 99.447C370.616 99.6301 370.525 99.7255 370.347 99.7255H368.851C368.678 99.7255 368.598 99.6314 368.616 99.447C368.625 99.3258 368.634 99.2639 368.643 99.1427C368.66 98.9506 368.579 98.8513 368.393 98.8513H368.121C367.94 98.8513 367.84 98.9493 367.821 99.1427C367.812 99.2588 367.803 99.3181 367.795 99.4341C367.777 99.6314 367.676 99.7255 367.495 99.7255H363.46C363.286 99.7255 363.205 99.6314 363.224 99.447C363.246 99.3168 363.255 99.2497 363.264 99.1247Z" fill="#FE3989"/>
<path d="M374.236 99.1293C374.25 98.945 374.173 98.8508 373.996 98.8508H373.697C373.525 98.8508 373.443 98.7567 373.461 98.5723C373.47 98.4473 373.474 98.3802 373.488 98.2538C373.501 98.0708 373.424 97.9805 373.252 97.9805H372.953C372.781 97.9805 372.699 97.8902 372.717 97.7072C373.021 94.0776 373.316 90.4428 373.529 86.8029C373.538 86.6276 373.629 86.5425 373.796 86.5425C374.831 86.5476 375.864 86.5567 376.899 86.5605C377.066 86.5605 377.148 86.6508 377.139 86.821C376.939 90.742 376.644 94.6591 376.346 98.5723C376.331 98.7567 376.408 98.8457 376.586 98.8457H376.884C377.057 98.8457 377.152 98.7554 377.166 98.5723C377.175 98.4473 377.179 98.3802 377.188 98.2538C377.203 98.0708 377.298 97.9805 377.47 97.9805H377.769C377.941 97.9805 378.036 97.8902 378.051 97.7072C378.313 94.0814 378.567 90.4557 378.74 86.8248C378.749 86.6508 378.835 86.5644 379.007 86.5644C380.036 86.5683 381.071 86.5773 382.1 86.5863C382.267 86.5863 382.35 86.6766 382.344 86.8468C382.205 90.4725 381.978 94.0892 381.742 97.711C381.729 97.8902 381.637 97.9844 381.465 97.9844H381.166C380.993 97.9844 380.898 98.0746 380.89 98.2577C380.881 98.3828 380.875 98.446 380.866 98.5762C380.853 98.7593 380.762 98.8495 380.59 98.8495H380.291C380.119 98.8495 380.023 98.9398 380.009 99.1229C380 99.248 379.996 99.315 379.987 99.4414C379.973 99.6245 379.882 99.7147 379.705 99.7147H374.463C374.291 99.7147 374.209 99.6206 374.223 99.4362C374.218 99.3202 374.227 99.2531 374.236 99.1268V99.1293Z" fill="#FE3989"/>
<path d="M384.379 99.1355C384.388 98.9511 384.306 98.8621 384.133 98.8621H383.835C383.662 98.8621 383.58 98.7719 383.589 98.5888C383.829 94.6845 384.062 90.7816 384.197 86.8735C384.201 86.6982 384.287 86.6131 384.461 86.6131C385.49 86.6221 386.52 86.626 387.549 86.635C387.716 86.635 387.798 86.7252 387.793 86.8954C387.689 90.7945 387.494 94.6936 387.281 98.5888C387.272 98.768 387.353 98.8621 387.525 98.8621H387.925C388.097 98.8621 388.188 98.7719 388.201 98.5888C388.206 98.4637 388.21 98.4005 388.22 98.2754C388.229 98.0962 388.32 98.006 388.492 98.006H388.791C388.963 98.006 389.055 97.9157 389.064 97.7365C389.245 94.1288 389.403 90.5211 389.485 86.9083C389.489 86.733 389.575 86.6479 389.743 86.6479C390.773 86.6569 391.802 86.6608 392.831 86.6698C393 86.6698 393.086 86.76 393.081 86.9302C393.027 90.8203 392.886 94.7065 392.718 98.5913C392.709 98.7706 392.795 98.8608 392.967 98.8608H393.366C393.539 98.8608 393.63 98.7706 393.639 98.5913C393.643 98.4663 393.648 98.4031 393.652 98.278C393.661 98.0988 393.747 98.0085 393.925 98.0085H394.224C394.396 98.0085 394.487 97.9183 394.496 97.7391C394.632 94.1404 394.74 90.5418 394.777 86.938C394.777 86.7639 394.863 86.6775 395.031 86.6775C396.061 86.6866 397.086 86.6917 398.115 86.6994C398.282 86.6994 398.368 86.7897 398.368 86.9599C398.368 89.9899 398.315 93.0238 398.233 96.0539C398.228 96.2331 398.138 96.3182 397.965 96.3182H397.665C397.493 96.3182 397.403 96.4084 397.398 96.5825C397.394 96.7076 397.394 96.7656 397.389 96.8919C397.385 97.0712 397.293 97.1614 397.121 97.1614H396.414C396.242 97.1614 396.152 97.2517 396.147 97.4296C396.143 97.5547 396.143 97.6179 396.137 97.7391C396.134 97.9183 396.042 98.0085 395.87 98.0085H395.571C395.399 98.0085 395.308 98.0988 395.304 98.278C395.299 98.4031 395.295 98.4663 395.289 98.5913C395.286 98.7706 395.194 98.8608 395.018 98.8608H394.881C394.709 98.8608 394.619 98.9511 394.61 99.1303C394.605 99.2554 394.601 99.3185 394.595 99.4436C394.586 99.6228 394.496 99.717 394.324 99.717H391.703C391.531 99.717 391.443 99.628 391.452 99.4436C391.458 99.3185 391.462 99.2554 391.467 99.1303C391.476 98.9511 391.394 98.8569 391.218 98.8569H390.918C390.745 98.8569 390.664 98.7667 390.668 98.5836C390.674 98.4585 390.678 98.3954 390.683 98.2703C390.691 98.0911 390.61 98.0008 390.437 98.0008H390.137C389.965 98.0008 389.875 98.0911 389.866 98.2703C389.861 98.3954 389.857 98.4585 389.852 98.5836C389.843 98.7628 389.752 98.8569 389.58 98.8569H389.28C389.108 98.8569 389.018 98.9472 389.009 99.1303C389.004 99.2554 389 99.3185 388.991 99.4436C388.981 99.628 388.891 99.717 388.714 99.717H384.61C384.437 99.717 384.356 99.628 384.366 99.4436C384.366 99.3276 384.369 99.2605 384.379 99.1342V99.1355Z" fill="#FE3989"/>
<path d="M400.089 90.2736C400.089 90.0982 400.175 90.0131 400.348 90.0131C400.52 90.0131 400.615 90.0131 400.791 90.0183C400.959 90.0183 401.046 89.9332 401.046 89.7578V89.4574C401.046 89.282 401.132 89.1969 401.3 89.1969H401.595C401.762 89.1969 401.848 89.1118 401.848 88.9365V88.6361C401.848 88.4607 401.93 88.3756 402.102 88.3756H402.397C402.564 88.3756 402.652 88.2905 402.652 88.1152C402.652 87.994 402.652 87.9359 402.646 87.8147C402.646 87.6394 402.729 87.5543 402.896 87.5543H403.027C403.196 87.5543 403.282 87.4692 403.277 87.299C403.277 87.1778 403.277 87.1198 403.273 86.9986C403.267 86.8232 403.354 86.7381 403.522 86.7433C404.954 86.7523 406.383 86.7652 407.817 86.7742C407.984 86.7742 408.07 86.8645 408.075 87.0347C408.079 87.1559 408.079 87.2139 408.084 87.3351C408.088 87.5092 408.174 87.5955 408.343 87.5955H408.637C408.804 87.5955 408.89 87.6858 408.896 87.856C408.982 91.719 408.991 95.5819 408.964 99.4462C408.964 99.6254 408.874 99.7157 408.7 99.7157H405.517C405.344 99.7157 405.258 99.6254 405.258 99.4462C405.282 97.9621 405.299 96.4755 405.313 94.9914C405.313 94.8173 405.227 94.7271 405.059 94.7271H404.76C404.588 94.7271 404.502 94.8122 404.502 94.9914C404.502 95.1126 404.502 95.1758 404.496 95.2957C404.496 95.471 404.406 95.56 404.234 95.56H403.934C403.762 95.56 403.676 95.649 403.672 95.8243C403.654 97.035 403.635 98.2393 403.612 99.45C403.608 99.6293 403.522 99.7195 403.344 99.7195H400.161C399.989 99.7195 399.903 99.6293 399.908 99.45C399.994 96.3929 400.062 93.332 400.089 90.271V90.2736ZM404.252 93.9844C404.425 93.9844 404.511 93.8993 404.511 93.7201V93.4158C404.511 93.2417 404.597 93.1515 404.769 93.1553H405.068C405.24 93.1553 405.326 93.0702 405.326 92.8949C405.331 91.2097 405.322 89.5244 405.299 87.8392C405.295 87.6639 405.209 87.5788 405.04 87.5788H404.746C404.579 87.5788 404.492 87.6639 404.496 87.8341C404.496 87.9553 404.502 88.0133 404.502 88.1345C404.502 88.3086 404.419 88.395 404.252 88.395H403.958C403.789 88.395 403.703 88.4801 403.707 88.6554C403.716 90.3445 403.716 92.0349 403.703 93.7239C403.703 93.8993 403.785 93.9883 403.958 93.9883C404.07 93.9844 404.13 93.9844 404.252 93.9844Z" fill="#FE3989"/>
<path d="M410.734 87.0634C410.73 86.8932 410.811 86.803 410.979 86.8081C412.009 86.8172 413.038 86.821 414.067 86.83C414.236 86.83 414.326 86.9203 414.331 87.0905C414.403 88.9279 414.457 90.7652 414.498 92.6026C414.503 92.7779 414.589 92.863 414.761 92.8669H415.075C415.247 92.8669 415.328 92.7818 415.324 92.6065C415.319 92.4852 415.319 92.4272 415.315 92.306C415.309 92.132 415.392 92.0456 415.564 92.0456H415.846C416.018 92.0456 416.099 91.9605 416.095 91.7851C416.049 90.2211 415.994 88.661 415.927 87.097C415.917 86.9268 416 86.8365 416.167 86.8417C417.196 86.8507 418.231 86.8545 419.26 86.8636C419.427 86.8636 419.518 86.9538 419.527 87.124C419.736 91.2346 419.859 95.3477 419.931 99.462C419.936 99.6374 419.85 99.7264 419.672 99.7264H416.489C416.317 99.7264 416.225 99.6361 416.225 99.462C416.208 97.5976 416.181 95.737 416.144 93.8778C416.139 93.7024 416.053 93.6173 415.881 93.6135H415.595C415.423 93.6135 415.342 93.6985 415.342 93.8739C415.346 93.9951 415.346 94.057 415.346 94.1782C415.351 94.3523 415.265 94.4386 415.093 94.4386H414.78C414.608 94.4386 414.525 94.5237 414.525 94.6991C414.548 96.285 414.566 97.8761 414.575 99.4633C414.575 99.6426 414.489 99.7277 414.317 99.7277H411.133C410.961 99.7277 410.875 99.6374 410.875 99.4582C410.888 95.3219 410.861 91.1894 410.734 87.0621V87.0634Z" fill="#FE3989"/>
<path d="M421.564 90.4092C421.555 90.2339 421.636 90.1488 421.808 90.1488C421.98 90.1488 422.075 90.1488 422.253 90.1539C422.425 90.1539 422.502 90.0688 422.498 89.8935C422.493 89.7723 422.489 89.7143 422.484 89.5931C422.475 89.4177 422.557 89.3326 422.725 89.3378H423.019C423.187 89.3378 423.269 89.2527 423.26 89.0825C423.255 88.9613 423.251 88.9033 423.242 88.7821C423.233 88.6119 423.313 88.5216 423.482 88.5268H423.777C423.945 88.5268 424.026 88.4417 424.017 88.2715C424.008 88.1503 424.008 88.0922 423.998 87.971C423.989 87.8008 424.066 87.7106 424.238 87.7157H424.37C424.539 87.7157 424.619 87.6306 424.61 87.4604C424.602 87.3392 424.602 87.2812 424.593 87.16C424.584 86.9898 424.661 86.8996 424.828 86.9047C426.271 86.9137 427.709 86.9228 429.15 86.9318C429.319 86.9318 429.414 87.0221 429.422 87.1923C429.431 87.3135 429.436 87.3715 429.445 87.4927C429.458 87.6629 429.55 87.7531 429.717 87.7531H430.012C430.18 87.7531 430.275 87.8434 430.284 88.0136C430.556 91.8314 430.755 95.6505 430.905 99.4735C430.91 99.6489 430.828 99.734 430.656 99.734H427.473C427.301 99.734 427.209 99.6437 427.205 99.4697C427.16 98.0088 427.105 96.5518 427.046 95.091C427.037 94.9156 426.951 94.8305 426.779 94.8305H426.48C426.306 94.8305 426.225 94.9156 426.229 95.091C426.235 95.2122 426.238 95.2702 426.244 95.3914C426.253 95.5667 426.167 95.6518 425.995 95.6518H425.694C425.522 95.6518 425.441 95.7369 425.445 95.9123C425.486 97.0998 425.527 98.2834 425.559 99.471C425.563 99.6463 425.477 99.7353 425.304 99.7353H422.121C421.949 99.7353 421.859 99.645 421.854 99.471C421.79 96.4461 421.694 93.429 421.564 90.4131V90.4092ZM425.927 94.084C426.099 94.084 426.18 93.9989 426.171 93.8235C426.167 93.7023 426.162 93.6443 426.158 93.5231C426.148 93.3477 426.229 93.2626 426.402 93.2626H426.702C426.874 93.2626 426.956 93.1775 426.947 93.0022C426.865 91.326 426.769 89.655 426.665 87.9826C426.656 87.8124 426.566 87.7222 426.394 87.7222H426.099C425.931 87.7222 425.848 87.8073 425.863 87.9775C425.872 88.0987 425.872 88.1567 425.881 88.2779C425.89 88.4481 425.813 88.5384 425.641 88.5332H425.346C425.178 88.5332 425.096 88.6183 425.105 88.7885C425.2 90.4647 425.286 92.1409 425.359 93.8171C425.368 93.9911 425.454 94.0775 425.627 94.0775C425.749 94.0775 425.808 94.0814 425.927 94.0814V94.084Z" fill="#FE3989"/>
<path d="M434.867 88.0149C434.853 87.8447 434.763 87.7544 434.59 87.7544H434.281C434.109 87.7544 434.032 87.8395 434.045 88.0097C434.087 88.5203 434.123 89.0361 434.164 89.5467C434.177 89.7169 434.096 89.8071 433.928 89.802H433.633C433.46 89.802 433.383 89.8871 433.397 90.0573C433.406 90.1785 433.411 90.2365 433.42 90.3577C433.433 90.533 433.352 90.6181 433.18 90.613C432.735 90.613 432.517 90.6091 432.072 90.6091C431.9 90.6091 431.81 90.5188 431.801 90.3487C431.728 89.2952 431.656 88.2418 431.574 87.1884C431.561 87.0182 431.638 86.9279 431.81 86.9331C435.006 86.9512 438.208 86.964 441.406 86.9782C441.578 86.9782 441.668 87.0633 441.686 87.2387C441.787 88.2921 441.877 89.3404 441.968 90.3938C441.981 90.564 441.904 90.6542 441.732 90.6491C441.287 90.6491 441.065 90.6439 440.622 90.6439C440.448 90.6439 440.358 90.5588 440.344 90.3835C440.336 90.2623 440.331 90.2042 440.322 90.083C440.309 89.9128 440.213 89.8226 440.045 89.8226H439.746C439.574 89.8226 439.483 89.7375 439.47 89.5621C439.428 89.0515 439.384 88.5358 439.338 88.0252C439.324 87.855 439.228 87.7647 439.061 87.7647H438.752C438.58 87.7647 438.503 87.8498 438.521 88.02C438.847 91.825 439.107 95.639 439.307 99.4529C439.314 99.627 439.234 99.7134 439.056 99.7134H435.873C435.701 99.7134 435.611 99.6283 435.601 99.4529C435.406 95.6428 435.17 91.825 434.867 88.011V88.0149Z" fill="#FE3989"/>
<path d="M443.026 87.2476C443.008 87.0774 443.085 86.9871 443.258 86.9923C444.301 86.9961 445.348 87.0013 446.391 87.0013C446.563 87.0013 446.658 87.0864 446.673 87.2617C447.076 91.3271 447.407 95.3912 447.665 99.4657C447.675 99.6358 447.594 99.7261 447.42 99.7261H444.237C444.065 99.7261 443.969 99.641 443.96 99.4657C443.725 95.3874 443.412 91.3181 443.026 87.2488V87.2476Z" fill="#FE3989"/>
<path d="M449.422 90.3853C449.409 90.2241 449.318 90.1391 449.155 90.1391C448.955 90.1391 448.847 90.0411 448.828 89.8386C448.764 89.1759 448.702 88.5119 448.634 87.853C448.616 87.6519 448.702 87.5526 448.901 87.5526C449.065 87.5526 449.136 87.4726 449.118 87.3063C449.118 87.2973 449.118 87.2882 449.114 87.2792C449.096 87.1 449.178 87.0059 449.359 87.0059C450.03 87.0059 450.697 87.0097 451.369 87.0097C451.567 87.0097 451.676 87.109 451.699 87.3102C451.717 87.4713 451.808 87.5564 451.971 87.5564H451.999C452.18 87.5564 452.279 87.6467 452.297 87.8298C452.451 89.3487 452.601 90.8688 452.737 92.3877C452.755 92.6159 452.656 92.7281 452.424 92.7281H451.88C451.653 92.7281 451.532 92.6159 451.508 92.3877C451.468 91.9351 451.427 91.4826 451.386 91.03C451.363 90.8018 451.241 90.6896 451.014 90.6896C450.583 90.6896 450.153 90.6857 449.722 90.6857C449.541 90.6857 449.44 90.5955 449.422 90.4124V90.3853Z" fill="#FE3989"/>
<path d="M455.676 99.1739C455.662 99.0037 455.572 98.9186 455.399 98.9186H455.095C454.923 98.9186 454.828 98.8335 454.819 98.6633C454.764 97.8884 454.705 97.1122 454.641 96.3373C454.628 96.1671 454.709 96.082 454.881 96.082C455.943 96.082 457 96.0858 458.061 96.0858C458.233 96.0858 458.328 96.1709 458.341 96.3411C458.405 97.1161 458.464 97.8923 458.519 98.6633C458.532 98.8335 458.623 98.9186 458.801 98.9186H459.103C459.277 98.9186 459.358 98.8335 459.345 98.6633C459.336 98.5473 459.33 98.4841 459.321 98.368C459.308 98.1978 459.389 98.1127 459.563 98.1127H460.015C460.187 98.1127 460.27 98.0276 460.255 97.8574C460.174 96.786 460.083 95.7106 459.993 94.6392C459.979 94.469 459.883 94.3839 459.711 94.3787H459.412C459.24 94.3787 459.145 94.2936 459.131 94.1183C459.122 93.9971 459.118 93.939 459.103 93.8178C459.09 93.6476 458.995 93.5574 458.823 93.5574C458.039 93.5574 457.253 93.5535 456.469 93.5535C456.297 93.5535 456.202 93.4684 456.187 93.2931C456.178 93.1719 456.17 93.1138 456.161 92.9926C456.147 92.8224 456.052 92.7322 455.879 92.7322H455.581C455.408 92.7322 455.313 92.6471 455.299 92.4717C455.29 92.3596 455.286 92.3015 455.271 92.1855C455.253 92.0063 455.154 91.9121 454.973 91.9121H454.7C454.519 91.9121 454.42 91.8219 454.401 91.6388C454.315 90.7337 454.229 89.8234 454.138 88.9182C454.119 88.739 454.202 88.6449 454.383 88.6449H454.656C454.837 88.6449 454.918 88.5546 454.9 88.3715C454.887 88.2555 454.881 88.2013 454.868 88.0853C454.85 87.9151 454.927 87.8248 455.099 87.8248H455.399C455.572 87.8248 455.649 87.7397 455.63 87.5644C455.616 87.4432 455.612 87.3852 455.599 87.264C455.581 87.0886 455.658 87.0035 455.83 87.0035C457.526 87.0074 459.217 87.0074 460.913 87.0074C461.085 87.0074 461.18 87.0925 461.204 87.2678C461.217 87.389 461.222 87.447 461.235 87.5682C461.253 87.7436 461.349 87.8287 461.526 87.8287H462.514C462.686 87.8287 462.786 87.9138 462.805 88.0891C462.885 88.8692 462.968 89.6532 463.045 90.4332C463.063 90.6086 462.981 90.6937 462.808 90.6937C462.114 90.6937 461.422 90.6937 460.728 90.6898C460.555 90.6898 460.46 90.6047 460.442 90.4294C460.427 90.3082 460.424 90.2501 460.411 90.1289C460.392 89.9587 460.297 89.8685 460.125 89.8685H459.825C459.653 89.8685 459.557 89.7834 459.539 89.608C459.484 89.0974 459.435 88.5907 459.38 88.0801C459.363 87.9048 459.268 87.8197 459.094 87.8197H458.795C458.623 87.8197 458.546 87.9048 458.564 88.0801C458.577 88.2013 458.583 88.2593 458.596 88.3805C458.614 88.5546 458.537 88.641 458.365 88.641H458.065C457.893 88.641 457.816 88.7261 457.834 88.9014C457.929 89.8156 458.02 90.7349 458.106 91.6491C458.125 91.8193 458.22 91.9096 458.392 91.9096H458.832C459.004 91.9096 459.099 91.9947 459.118 92.17C459.127 92.2912 459.136 92.3492 459.145 92.4704C459.163 92.6406 459.253 92.7309 459.431 92.7309C460.169 92.7309 460.909 92.7348 461.653 92.7348C461.825 92.7348 461.92 92.8199 461.938 92.9952C461.947 93.1164 461.957 93.1744 461.966 93.2956C461.979 93.4658 462.074 93.5561 462.251 93.5561H462.555C462.728 93.5561 462.823 93.6412 462.841 93.8166C462.85 93.9287 462.854 93.9867 462.867 94.1041C462.885 94.2833 462.981 94.3774 463.167 94.3774H463.444C463.625 94.3774 463.724 94.4664 463.743 94.6508C463.834 95.7132 463.924 96.7757 464.006 97.8368C464.019 98.016 463.933 98.1063 463.752 98.1063H463.475C463.294 98.1063 463.208 98.1966 463.222 98.3758C463.231 98.488 463.235 98.546 463.244 98.6581C463.257 98.8283 463.176 98.9134 463.004 98.9134H462.7C462.528 98.9134 462.446 98.9985 462.46 99.1687C462.469 99.2848 462.473 99.348 462.482 99.464C462.495 99.6342 462.418 99.7193 462.255 99.7193H456.011C455.848 99.7193 455.757 99.6342 455.748 99.464C455.689 99.3518 455.685 99.2938 455.676 99.1778V99.1739Z" fill="#FE3989"/>
<path d="M294.614 82.3553L294.534 82.3012L294.548 82.229L294.614 82.3553Z" fill="#FFEBD3"/>
<path d="M455.137 52.6739L455.184 52.6017L455.161 52.6959L455.137 52.6739Z" fill="#FFEBD3"/>
<path d="M499.469 82.3424L499.486 82.4301L499.395 82.4817L499.469 82.3424Z" fill="#FFEBD3"/>
<path d="M511.44 59.9628L511.411 59.9782L511.43 59.9409L511.44 59.9628Z" fill="#FFEBD3"/>
<path d="M301.982 53.4604L284.208 57.1854L283.074 60.0788L297.359 68.189L294.534 82.3012L297.926 84.622L312.828 75.0188L330.327 80.9628L332.432 78.9166L326.813 64.3002L339.631 52.4767L338.214 50.2731L319.876 51.2208L311.044 38.3838L308.363 39.1355L301.982 53.4604Z" fill="#FE3989"/>
<path d="M511.44 59.9641L510.418 57.3131L492.379 53.5571L486.3 39.2593L483.5 38.5914L474.655 51.2208L456.724 50.237L455.137 52.6739L467.567 64.2499L461.838 78.5156L463.907 80.7887L481.309 74.9337L495.973 84.4389L499.486 82.4301L496.826 68.1606L511.441 59.9615V59.9641H511.44Z" fill="#FE3989"/>
<path d="M367.652 72.7856L375.025 48.9915L352.591 32.4346L353.326 30.4425L384.2 28.1784L396.379 7.00172L399.315 7.02493L411.339 28.2042L441.001 30.507L442.549 32.7763L420.234 49.0353L427.469 73.2704L424.514 75.6325L397.551 62.5196L370.699 75.3901L367.654 72.7869H367.652V72.7856Z" fill="#FE3989"/>
<path d="M743.548 225.187L788.495 225.164L775.821 195.856L753.903 195.807L642.914 75.3669L596.01 75.3746L601.004 94.6276L615.029 94.6766L638.659 179.582L504.736 179.548L506.809 200.119H666.995L646.865 133.68L665.849 133.64L743.548 225.187ZM641.274 115.906L637.4 103.109H637.401L642.163 103.083L651.973 115.864L641.274 115.906Z" fill="#FE3989"/>
<path d="M162.444 179.468L186.114 94.2356L200.334 94.2214L205.322 74.8563L158.027 74.7957L42.3861 196.681L20.2057 196.76L7.23999 226.247L52.9708 226.165L134.97 133.342L154.149 133.304L133.895 200.125L293.042 200.123L295.892 179.501L162.444 179.468ZM148.819 115.403L158.644 102.654L163.471 102.693L159.582 115.491L148.819 115.403Z" fill="#FE3989"/>
<path d="M170.449 173.854L189.023 105.021H204.94L193.065 152.569L209.83 152.576L210.71 148.714L224.605 148.697L219.243 173.862L170.447 173.854H170.449Z" fill="#FE3989"/>
<path d="M225.247 173.847L239.385 105.042L289.094 105.057L285.263 125.482L269.297 125.474L270.33 117.992L252.39 118.04L245.971 152.609L264.693 152.631L266.137 143.617L283.554 143.629L279.259 173.831L225.245 173.845H225.247V173.847Z" fill="#FE3989"/>
<path d="M301.767 173.885L285.263 173.88L294.509 105.1L309.709 105.093L306.757 130.535L328.154 130.579L330.453 105.132L345.652 105.126L340.843 173.813L324.338 173.937L327.217 141.338L305.56 141.291L301.767 173.883V173.885Z" fill="#FE3989"/>
<path d="M347.823 173.871L352.111 105.115L400.254 105.118L400.263 127.683L383.368 127.676L383.578 118.071L366.031 118.058L365.471 130.561L379.365 130.544L379.08 141.373L365.055 141.324L364.374 152.6L383.552 152.691L383.757 143.666L400.261 143.671L400.271 173.909L347.823 173.871Z" fill="#FE3989"/>
<path d="M444.49 143.643L445.6 143.616C451.444 143.472 455.996 138.559 455.629 132.794L454.583 116.333C454.186 110.09 448.949 105.224 442.619 105.215L406.321 105.167L406.794 173.897L424.343 173.91L423.485 143.666L427.268 143.697L439.869 173.907L458.396 173.863L444.49 143.643ZM423.04 126.449L422.88 122.193L438.275 122.188L438.5 126.445L423.04 126.449Z" fill="#FE3989"/>
<path d="M461.27 118.183L460.268 105.216L492.69 105.22L494.214 118.191L485.473 118.184L489.167 152.706L498.299 152.715L500.797 173.946L465.571 173.919L463.92 152.695L473.379 152.706L470.273 118.19L461.27 118.182V118.183Z" fill="#FE3989"/>
<path d="M523.5 173.943H507.518L498.824 105.275L515.198 105.215L546.71 144.281L539.791 105.286L554.664 105.277L568.186 173.983L550.181 173.967L516.838 127.73L523.501 173.945H523.5V173.943Z" fill="#FE3989"/>
<path d="M629.897 174.026L575.165 173.97L560.99 105.323L611.417 105.344L616.353 123.564L600.109 123.626L598.276 116.454L578.445 116.423L586.691 152.723L607.37 152.762L604.972 143.007L590.425 143.019L588.408 134.557L619.264 134.549L629.897 174.027V174.026Z" fill="#FE3989"/>
<path d="M409.098 259.839L428.342 228.443H415.621L409.098 259.839Z" fill="#FFEBD3"/>
<path d="M390.442 259.839L383.983 228.443H371.72L390.442 259.839Z" fill="#FFEBD3"/>
<path d="M409.555 228.443H390.442L399.509 304L409.555 228.443Z" fill="#FFEBD3"/>
<path d="M495.13 208.532C495.13 208.292 495.252 208.173 495.494 208.173H499.932C500.175 208.173 500.296 208.292 500.296 208.532V212.54C500.296 212.78 500.417 212.9 500.659 212.9H505.098C505.34 212.9 505.461 213.019 505.461 213.259V213.675C505.461 213.914 505.583 214.034 505.825 214.034H506.246C506.488 214.034 506.609 214.154 506.609 214.393V214.809C506.609 215.049 506.73 215.169 506.973 215.169H507.394C507.636 215.169 507.757 215.288 507.757 215.528V224.622C507.757 224.862 507.636 224.982 507.394 224.982H506.973C506.73 224.982 506.609 225.101 506.609 225.341V225.776C506.609 226.015 506.488 226.135 506.246 226.135H495.494C495.252 226.135 495.13 226.015 495.13 225.776V208.532ZM500.659 215.169C500.417 215.169 500.296 215.288 500.296 215.528V224.641C500.296 224.881 500.417 225.001 500.659 225.001H501.08C501.323 225.001 501.444 224.881 501.444 224.641V224.225C501.444 223.986 501.565 223.866 501.807 223.866H502.228C502.47 223.866 502.592 223.746 502.592 223.507V214.393C502.592 214.154 502.47 214.034 502.228 214.034H501.807C501.565 214.034 501.444 214.154 501.444 214.393V214.809C501.444 215.049 501.323 215.169 501.08 215.169H500.659Z" fill="#FE3989"/>
<path d="M482.464 225.359C482.464 225.12 482.343 225 482.101 225H481.68C481.438 225 481.317 224.88 481.317 224.641V224.225C481.317 223.985 481.195 223.865 480.953 223.865H480.532C480.29 223.865 480.169 223.746 480.169 223.506V215.527C480.169 215.288 480.29 215.168 480.532 215.168H480.953C481.195 215.168 481.317 215.048 481.317 214.809V214.393C481.317 214.153 481.438 214.033 481.68 214.033H482.101C482.343 214.033 482.464 213.914 482.464 213.674V213.258C482.464 213.019 482.586 212.899 482.828 212.899H490.136C490.379 212.899 490.5 213.019 490.5 213.258V213.674C490.5 213.914 490.621 214.033 490.863 214.033H491.284C491.526 214.033 491.648 214.153 491.648 214.393V214.809C491.648 215.048 491.769 215.168 492.011 215.168H492.432C492.674 215.168 492.795 215.288 492.795 215.527V218.59C492.795 218.83 492.674 218.949 492.432 218.949H492.011C491.769 218.949 491.648 219.069 491.648 219.309V219.725C491.648 219.964 491.526 220.084 491.284 220.084H485.698C485.455 220.084 485.334 220.204 485.334 220.443V224.641C485.334 224.88 485.455 225 485.698 225H486.119C486.361 225 486.482 224.88 486.482 224.641V224.225C486.482 223.985 486.603 223.865 486.846 223.865H487.266C487.509 223.865 487.63 223.746 487.63 223.506V222.201C487.63 221.962 487.751 221.842 487.993 221.842H492.432C492.674 221.842 492.795 221.962 492.795 222.201V223.506C492.795 223.746 492.674 223.865 492.432 223.865H492.011C491.769 223.865 491.648 223.985 491.648 224.225V224.641C491.648 224.88 491.526 225 491.284 225H490.863C490.621 225 490.5 225.12 490.5 225.359V225.775C490.5 226.015 490.379 226.134 490.136 226.134H482.828C482.586 226.134 482.464 226.015 482.464 225.775V225.359ZM487.266 218.949C487.509 218.949 487.63 218.83 487.63 218.59V214.393C487.63 214.153 487.509 214.033 487.266 214.033H486.846C486.603 214.033 486.482 214.153 486.482 214.393V214.809C486.482 215.048 486.361 215.168 486.119 215.168H485.698C485.455 215.168 485.334 215.288 485.334 215.527V218.59C485.334 218.83 485.455 218.949 485.698 218.949H487.266Z" fill="#FE3989"/>
<path d="M466.791 208.797C466.791 208.558 466.912 208.438 467.155 208.438H477.906C478.149 208.438 478.27 208.558 478.27 208.797V213.184C478.27 213.423 478.149 213.543 477.906 213.543H474.616C474.373 213.543 474.252 213.423 474.252 213.184V212.768C474.252 212.529 474.131 212.409 473.889 212.409H473.468C473.226 212.409 473.104 212.289 473.104 212.05V209.932C473.104 209.692 472.983 209.573 472.741 209.573H472.32C472.078 209.573 471.957 209.692 471.957 209.932V215.793C471.957 216.033 472.078 216.153 472.32 216.153H476.032C476.274 216.153 476.395 216.272 476.395 216.512V218.062C476.395 218.302 476.274 218.421 476.032 218.421H472.32C472.078 218.421 471.957 218.541 471.957 218.781V225.777C471.957 226.016 471.835 226.136 471.593 226.136H467.155C466.912 226.136 466.791 226.016 466.791 225.777V208.797Z" fill="#FE3989"/>
<path d="M453.292 219.43C453.292 219.286 453.219 219.214 453.073 219.214H452.821C452.675 219.214 452.603 219.142 452.603 218.998V218.749C452.603 218.605 452.53 218.533 452.385 218.533H452.132C451.987 218.533 451.914 218.462 451.914 218.318V213.53C451.914 213.387 451.987 213.315 452.132 213.315H452.385C452.53 213.315 452.603 213.243 452.603 213.099V212.85C452.603 212.706 452.675 212.634 452.821 212.634H453.073C453.219 212.634 453.292 212.562 453.292 212.419V212.169C453.292 212.025 453.364 211.953 453.51 211.953H456.173C456.318 211.953 456.391 211.882 456.391 211.738V209.14C456.391 208.996 456.464 208.924 456.609 208.924H459.272C459.417 208.924 459.49 208.996 459.49 209.14V219.679C459.49 219.823 459.417 219.895 459.272 219.895H453.51C453.364 219.895 453.292 219.823 453.292 219.679V219.43ZM455.231 213.315C455.086 213.315 455.013 213.387 455.013 213.53V218.998C455.013 219.142 455.086 219.214 455.231 219.214H455.484C455.629 219.214 455.702 219.142 455.702 218.998V218.749C455.702 218.605 455.775 218.533 455.92 218.533H456.173C456.318 218.533 456.391 218.462 456.391 218.318V212.85C456.391 212.706 456.318 212.634 456.173 212.634H455.92C455.775 212.634 455.702 212.706 455.702 212.85V213.099C455.702 213.243 455.629 213.315 455.484 213.315H455.231Z" fill="#FE3989"/>
<path d="M442.392 212.159C442.392 212.015 442.465 211.943 442.61 211.943H444.24C444.386 211.943 444.459 212.015 444.459 212.159V213.089C444.459 213.233 444.531 213.305 444.677 213.305H444.929C445.075 213.305 445.147 213.233 445.147 213.089V212.84C445.147 212.696 445.22 212.624 445.365 212.624H445.618C445.763 212.624 445.836 212.552 445.836 212.409V212.159C445.836 212.015 445.909 211.943 446.054 211.943H449.062C449.207 211.943 449.28 212.015 449.28 212.159V212.409C449.28 212.552 449.352 212.624 449.498 212.624H449.75C449.896 212.624 449.968 212.696 449.968 212.84V219.669C449.968 219.813 449.896 219.885 449.75 219.885H447.087C446.942 219.885 446.869 219.813 446.869 219.669V212.84C446.869 212.696 446.796 212.624 446.651 212.624H446.398C446.253 212.624 446.18 212.696 446.18 212.84V213.089C446.18 213.233 446.108 213.305 445.962 213.305H445.71C445.564 213.305 445.492 213.377 445.492 213.52V219.669C445.492 219.813 445.419 219.885 445.274 219.885H442.61C442.465 219.885 442.392 219.813 442.392 219.669V212.159Z" fill="#FE3989"/>
<path d="M427.287 219.197C427.287 218.957 427.408 218.837 427.65 218.837H428.071C428.313 218.837 428.435 218.718 428.435 218.478V218.062C428.435 217.823 428.556 217.703 428.798 217.703H429.219C429.461 217.703 429.582 217.583 429.582 217.344V216.928C429.582 216.688 429.704 216.568 429.946 216.568H433.81C434.053 216.568 434.174 216.449 434.174 216.209V215.793C434.174 215.554 434.295 215.434 434.537 215.434H434.958C435.201 215.434 435.322 215.314 435.322 215.075V211.066C435.322 210.827 435.201 210.707 434.958 210.707H434.537C434.295 210.707 434.174 210.587 434.174 210.348V209.932C434.174 209.692 434.053 209.573 433.81 209.573H433.007C432.765 209.573 432.643 209.692 432.643 209.932V212.05C432.643 212.289 432.522 212.409 432.28 212.409H431.859C431.617 212.409 431.496 212.529 431.496 212.768V213.184C431.496 213.423 431.374 213.543 431.132 213.543H427.841C427.599 213.543 427.478 213.423 427.478 213.184V209.932C427.478 209.692 427.599 209.573 427.841 209.573H428.549C428.792 209.573 428.913 209.453 428.913 209.213V208.797C428.913 208.558 429.034 208.438 429.276 208.438H437.962C438.204 208.438 438.325 208.558 438.325 208.797V209.213C438.325 209.453 438.447 209.573 438.689 209.573H439.11C439.352 209.573 439.473 209.692 439.473 209.932V210.348C439.473 210.587 439.595 210.707 439.837 210.707H440.124C440.366 210.707 440.487 210.827 440.487 211.066V215.075C440.487 215.314 440.366 215.434 440.124 215.434H439.703C439.461 215.434 439.339 215.554 439.339 215.793V216.209C439.339 216.449 439.218 216.568 438.976 216.568H438.555C438.313 216.568 438.192 216.688 438.192 216.928V217.344C438.192 217.583 438.07 217.703 437.828 217.703H433.963C433.721 217.703 433.6 217.823 433.6 218.062V218.478C433.6 218.718 433.479 218.837 433.237 218.837H432.816C432.573 218.837 432.452 218.957 432.452 219.197V223.508C432.452 223.747 432.573 223.867 432.816 223.867H433.81C434.053 223.867 434.174 223.987 434.174 224.226V224.642C434.174 224.882 434.295 225.001 434.537 225.001H434.958C435.201 225.001 435.322 224.882 435.322 224.642V221.39C435.322 221.15 435.443 221.031 435.685 221.031H440.124C440.366 221.031 440.487 221.15 440.487 221.39V224.642C440.487 224.882 440.366 225.001 440.124 225.001H439.703C439.461 225.001 439.339 225.121 439.339 225.361V225.777C439.339 226.016 439.218 226.136 438.976 226.136H427.65C427.408 226.136 427.287 226.016 427.287 225.777V219.197Z" fill="#FE3989"/>
<path d="M374.87 213.258C374.87 213.019 374.992 212.899 375.234 212.899H377.951C378.193 212.899 378.314 213.019 378.314 213.258V214.809C378.314 215.048 378.435 215.168 378.678 215.168H379.098C379.341 215.168 379.462 215.048 379.462 214.809V214.393C379.462 214.153 379.583 214.033 379.825 214.033H380.246C380.489 214.033 380.61 213.914 380.61 213.674V213.258C380.61 213.019 380.731 212.899 380.973 212.899H385.986C386.228 212.899 386.349 213.019 386.349 213.258V213.674C386.349 213.914 386.47 214.033 386.713 214.033H387.134C387.376 214.033 387.497 214.153 387.497 214.393V225.775C387.497 226.015 387.376 226.134 387.134 226.134H382.695C382.453 226.134 382.332 226.015 382.332 225.775V214.393C382.332 214.153 382.21 214.033 381.968 214.033H381.547C381.305 214.033 381.184 214.153 381.184 214.393V214.809C381.184 215.048 381.063 215.168 380.82 215.168H380.399C380.157 215.168 380.036 215.288 380.036 215.527V225.775C380.036 226.015 379.915 226.134 379.672 226.134H375.234C374.992 226.134 374.87 226.015 374.87 225.775V213.258Z" fill="#FE3989"/>
<path d="M360.699 225.359C360.699 225.12 360.578 225 360.336 225H359.915C359.672 225 359.551 224.88 359.551 224.641V220.462C359.551 220.222 359.672 220.103 359.915 220.103H360.336C360.578 220.103 360.699 219.983 360.699 219.743V219.328C360.699 219.088 360.82 218.968 361.063 218.968H365.501C365.743 218.968 365.865 218.849 365.865 218.609V218.193C365.865 217.954 365.986 217.834 366.228 217.834H367.223C367.465 217.834 367.586 217.714 367.586 217.475V214.393C367.586 214.153 367.465 214.033 367.223 214.033H366.228C365.986 214.033 365.865 214.153 365.865 214.393V215.943C365.865 216.183 365.743 216.302 365.501 216.302H365.08C364.838 216.302 364.717 216.422 364.717 216.662V217.645C364.717 217.884 364.596 218.004 364.353 218.004H360.489C360.246 218.004 360.125 217.884 360.125 217.645V214.393C360.125 214.153 360.246 214.033 360.489 214.033H361.197C361.439 214.033 361.56 213.914 361.56 213.674V213.258C361.56 213.019 361.681 212.899 361.924 212.899H370.667C370.909 212.899 371.03 213.019 371.03 213.258V213.674C371.03 213.914 371.151 214.033 371.394 214.033H371.815C372.057 214.033 372.178 214.153 372.178 214.393V225.775C372.178 226.015 372.057 226.134 371.815 226.134H368.524C368.282 226.134 368.16 226.015 368.16 225.775V225.359C368.16 225.12 368.039 225 367.797 225H367.376C367.134 225 367.013 225.12 367.013 225.359V225.775C367.013 226.015 366.891 226.134 366.649 226.134H361.063C360.82 226.134 360.699 226.015 360.699 225.775V225.359ZM365.08 220.103C364.838 220.103 364.717 220.222 364.717 220.462V224.641C364.717 224.88 364.838 225 365.08 225H365.501C365.743 225 365.865 224.88 365.865 224.641V224.225C365.865 223.985 365.986 223.865 366.228 223.865H366.649C366.891 223.865 367.013 223.746 367.013 223.506V220.462C367.013 220.222 366.891 220.103 366.649 220.103H365.08Z" fill="#FE3989"/>
<path d="M346.941 225.361C346.941 225.121 346.82 225.001 346.578 225.001H346.157C345.915 225.001 345.793 224.882 345.793 224.642V221.39C345.793 221.15 345.915 221.031 346.157 221.031H349.428C349.671 221.031 349.792 221.15 349.792 221.39V223.508C349.792 223.747 349.913 223.867 350.155 223.867H350.595C350.838 223.867 350.959 223.987 350.959 224.226V224.642C350.959 224.882 351.08 225.001 351.322 225.001H351.743C351.986 225.001 352.107 224.882 352.107 224.642V208.797C352.107 208.558 352.228 208.438 352.47 208.438H356.909C357.151 208.438 357.272 208.558 357.272 208.797V224.642C357.272 224.882 357.151 225.001 356.909 225.001H356.488C356.246 225.001 356.124 225.121 356.124 225.361V225.777C356.124 226.016 356.003 226.136 355.761 226.136H347.305C347.063 226.136 346.941 226.016 346.941 225.777V225.361Z" fill="#FE3989"/>
<path d="M326.481 219.418C326.481 219.274 326.408 219.202 326.263 219.202H326.01C325.865 219.202 325.792 219.131 325.792 218.987V212.827C325.792 212.683 325.72 212.611 325.574 212.611H325.207C325.061 212.611 324.989 212.539 324.989 212.396V212.157C324.989 212.014 325.061 211.942 325.207 211.942H325.574C325.72 211.942 325.792 211.87 325.792 211.726V210.149C325.792 210.006 325.865 209.934 326.01 209.934H328.673C328.819 209.934 328.892 210.006 328.892 210.149V211.726C328.892 211.87 328.964 211.942 329.11 211.942H330.269C330.414 211.942 330.487 212.014 330.487 212.157V212.396C330.487 212.539 330.414 212.611 330.269 212.611H329.11C328.964 212.611 328.892 212.683 328.892 212.827V218.987C328.892 219.131 328.964 219.202 329.11 219.202H329.362C329.508 219.202 329.58 219.131 329.58 218.987V217.83C329.58 217.686 329.653 217.614 329.798 217.614H331.658C331.803 217.614 331.876 217.686 331.876 217.83V218.987C331.876 219.131 331.803 219.202 331.658 219.202H331.061C330.916 219.202 330.843 219.274 330.843 219.418V219.668C330.843 219.811 330.77 219.883 330.625 219.883H326.699C326.554 219.883 326.481 219.811 326.481 219.668V219.418Z" fill="#FE3989"/>
<path d="M293.549 225.355C293.549 225.116 293.427 224.996 293.185 224.996H292.477C292.235 224.996 292.114 224.876 292.114 224.637V221.384C292.114 221.145 292.235 221.025 292.477 221.025H296.151C296.393 221.025 296.514 221.145 296.514 221.384V221.8C296.514 222.04 296.635 222.16 296.877 222.16H297.298C297.541 222.16 297.662 222.279 297.662 222.519V224.637C297.662 224.876 297.783 224.996 298.025 224.996H298.446C298.689 224.996 298.81 224.876 298.81 224.637V224.221C298.81 223.981 298.931 223.861 299.173 223.861H299.594C299.836 223.861 299.958 223.742 299.958 223.502V218.17C299.958 217.931 299.836 217.811 299.594 217.811H294.582C294.339 217.811 294.218 217.691 294.218 217.452V215.901C294.218 215.662 294.339 215.542 294.582 215.542H299.594C299.836 215.542 299.958 215.422 299.958 215.183V211.061C299.958 210.821 299.836 210.702 299.594 210.702H298.963C298.72 210.702 298.599 210.582 298.599 210.342V209.926C298.599 209.687 298.478 209.567 298.236 209.567H297.815C297.573 209.567 297.451 209.687 297.451 209.926V213.178C297.451 213.418 297.33 213.538 297.088 213.538H292.649C292.407 213.538 292.286 213.418 292.286 213.178L292.267 208.792C292.267 208.552 292.388 208.433 292.63 208.433H303.612C303.854 208.433 303.975 208.552 303.975 208.792V209.208C303.975 209.447 304.096 209.567 304.339 209.567H304.76C305.002 209.567 305.123 209.687 305.123 209.926V214.615C305.123 214.855 305.002 214.975 304.76 214.975H304.339C304.096 214.975 303.975 215.094 303.975 215.334V215.75C303.975 215.989 303.854 216.109 303.612 216.109H303.191C302.949 216.109 302.827 216.229 302.827 216.468V216.884C302.827 217.124 302.949 217.244 303.191 217.244H303.612C303.854 217.244 303.975 217.363 303.975 217.603V218.019C303.975 218.258 304.096 218.378 304.339 218.378H304.76C305.002 218.378 305.123 218.498 305.123 218.737V223.502C305.123 223.742 305.002 223.861 304.76 223.861H304.473C304.23 223.861 304.109 223.981 304.109 224.221V224.637C304.109 224.876 303.988 224.996 303.746 224.996H303.325C303.082 224.996 302.961 225.116 302.961 225.355V225.771C302.961 226.011 302.84 226.13 302.598 226.13H293.912C293.67 226.13 293.549 226.011 293.549 225.771V225.355Z" fill="#FE3989"/>
<path d="M307.726 223.627V222.546V221.466V220.385V219.304V218.223V217.142V216.061V214.98V213.888V212.807V211.726V210.645H308.817V209.565H309.908V208.484H310.998H312.089H313.18H314.27H315.361H316.451H317.542H318.633H319.735V209.565H320.826V210.645H321.916V211.726V212.807V213.888V214.98V216.061V217.142V218.223V219.304V220.385V221.466V222.546V223.627H320.826V224.708H319.735V225.789H318.633H317.542H316.451H315.361H314.27H313.18H312.089H310.998H309.908V224.708H308.817V223.627H307.726ZM313.18 223.627H314.27V224.708H315.361V223.627H316.451V222.546V221.466V220.385V219.304V218.223V217.142V216.061V214.98V213.888V212.807V211.726V210.645H315.361V209.565H314.27V210.645H313.18V211.726V212.807V213.888V214.98V216.061V217.142V218.223V219.304V220.385V221.466V222.546V223.627Z" fill="#FE3989"/>
<path d="M333.071 210.053C333.071 209.923 333.135 209.857 333.264 209.857H335.624C335.753 209.857 335.817 209.923 335.817 210.053V213.053C335.817 213.155 335.868 213.207 335.97 213.207C336.071 213.207 336.122 213.155 336.122 213.053V212.786C336.122 212.655 336.187 212.59 336.315 212.59H338.98C339.109 212.59 339.174 212.655 339.174 212.786V213.012C339.174 213.142 339.238 213.207 339.367 213.207H339.591C339.72 213.207 339.784 213.272 339.784 213.402V219.587C339.784 219.717 339.72 219.782 339.591 219.782H337.231C337.102 219.782 337.038 219.717 337.038 219.587V213.402C337.038 213.272 336.973 213.207 336.844 213.207H336.621C336.492 213.207 336.427 213.272 336.427 213.402V213.628C336.427 213.758 336.363 213.823 336.234 213.823H336.01C335.881 213.823 335.817 213.888 335.817 214.018V219.587C335.817 219.717 335.753 219.782 335.624 219.782H333.264C333.135 219.782 333.071 219.717 333.071 219.587V210.053Z" fill="#FE3989"/>
<path d="M398.746 220.736V218.742V216.748H400.761H402.775H404.79H406.805H408.819H410.834H412.848H414.863V218.742V220.736H412.848H410.834H408.819H406.805H404.79H402.775H400.761H398.746Z" fill="#FE3989"/>
<path d="M302.682 198.665C302.695 198.433 302.564 198.291 302.316 198.291C302.134 198.291 302.042 198.291 301.86 198.291C301.612 198.291 301.481 198.149 301.494 197.917C301.508 197.736 301.507 197.659 301.534 197.479C301.547 197.234 301.416 197.105 301.168 197.105C300.986 197.105 300.894 197.105 300.712 197.105C300.464 197.105 300.333 196.963 300.346 196.731C300.477 195.055 300.62 193.378 300.777 191.715C300.803 191.47 300.96 191.341 301.194 191.341C301.377 191.341 301.468 191.341 301.651 191.341C301.899 191.341 302.055 191.199 302.068 190.967C302.082 190.787 302.095 190.709 302.108 190.529C302.134 190.284 302.29 190.155 302.538 190.155C302.721 190.155 302.812 190.155 302.995 190.155C303.243 190.155 303.399 190.013 303.425 189.781C303.438 189.6 303.451 189.523 303.464 189.343C303.491 189.098 303.36 188.969 303.112 188.969C302.93 188.969 302.838 188.969 302.656 188.969C302.408 188.969 302.277 188.827 302.303 188.595C302.316 188.414 302.329 188.337 302.342 188.156C302.369 187.911 302.238 187.782 301.99 187.782C301.808 187.782 301.716 187.782 301.534 187.782C301.286 187.782 301.155 187.641 301.181 187.409C301.299 186.171 301.416 184.92 301.534 183.682C301.56 183.45 301.716 183.308 301.951 183.308C302.134 183.308 302.225 183.308 302.408 183.308C302.656 183.308 302.812 183.167 302.825 182.934C302.838 182.767 302.851 182.677 302.864 182.496C302.89 182.264 303.047 182.122 303.282 182.122C303.464 182.122 303.556 182.122 303.738 182.122C303.986 182.122 304.143 181.98 304.156 181.748C304.169 181.581 304.182 181.49 304.195 181.323C304.221 181.091 304.365 180.949 304.613 180.949C307.665 180.949 310.718 180.949 313.771 180.949C314.019 180.949 314.15 181.091 314.123 181.323C314.11 181.49 314.097 181.581 314.084 181.761C314.058 181.993 314.189 182.135 314.437 182.135C314.619 182.135 314.711 182.135 314.88 182.135C315.128 182.135 315.259 182.277 315.232 182.509C315.219 182.677 315.206 182.767 315.193 182.947C315.167 183.179 315.298 183.321 315.546 183.321C315.663 183.321 315.728 183.321 315.846 183.321C316.094 183.321 316.224 183.463 316.198 183.695C316.094 184.933 315.976 186.184 315.872 187.421C315.846 187.666 315.689 187.795 315.454 187.795C315.272 187.795 315.18 187.795 315.011 187.795C314.763 187.795 314.606 187.937 314.593 188.169C314.58 188.35 314.567 188.427 314.554 188.608C314.528 188.853 314.371 188.982 314.137 188.982C313.954 188.982 313.863 188.982 313.693 188.982C313.445 188.982 313.289 189.123 313.275 189.355C313.262 189.536 313.249 189.613 313.236 189.794C313.21 190.013 313.367 190.168 313.589 190.168C313.771 190.168 313.863 190.168 314.032 190.168C314.254 190.168 314.411 190.323 314.384 190.542C314.371 190.722 314.358 190.8 314.345 190.98C314.332 191.199 314.476 191.354 314.698 191.354C314.88 191.354 314.972 191.354 315.141 191.354C315.363 191.354 315.519 191.509 315.493 191.728C315.35 193.404 315.206 195.08 315.076 196.744C315.063 196.963 314.88 197.118 314.658 197.118C314.541 197.118 314.476 197.118 314.345 197.118C314.124 197.118 313.941 197.272 313.928 197.491C313.915 197.672 313.915 197.749 313.902 197.93C313.889 198.149 313.706 198.304 313.484 198.304C313.302 198.304 313.21 198.304 313.028 198.304C312.806 198.304 312.623 198.458 312.61 198.678C312.597 198.858 312.597 198.936 312.584 199.116C312.571 199.335 312.388 199.49 312.167 199.49C309.101 199.49 306.035 199.49 302.969 199.49C302.721 199.49 302.59 199.348 302.603 199.116C302.656 198.923 302.669 198.845 302.682 198.665ZM307.822 188.646C307.796 188.891 307.926 189.02 308.174 189.02C308.357 189.02 308.448 189.02 308.618 189.02C308.84 189.02 309.022 188.866 309.035 188.646C309.048 188.466 309.061 188.388 309.074 188.208C309.101 187.963 309.257 187.834 309.492 187.834C309.675 187.834 309.766 187.834 309.936 187.834C310.157 187.834 310.34 187.679 310.353 187.46C310.47 186.184 310.588 184.907 310.705 183.631C310.731 183.399 310.601 183.257 310.353 183.257C310.17 183.257 310.079 183.257 309.909 183.257C309.688 183.257 309.531 183.102 309.557 182.883C309.57 182.715 309.583 182.625 309.596 182.444C309.622 182.212 309.492 182.071 309.244 182.071C309.061 182.071 308.97 182.071 308.801 182.071C308.579 182.071 308.396 182.225 308.383 182.444C308.37 182.612 308.357 182.702 308.344 182.883C308.318 183.115 308.161 183.257 307.926 183.257C307.744 183.257 307.652 183.257 307.483 183.257C307.235 183.257 307.078 183.399 307.065 183.631C306.948 184.907 306.83 186.184 306.713 187.46C306.687 187.692 306.817 187.834 307.065 187.834C307.248 187.834 307.339 187.834 307.509 187.834C307.757 187.834 307.887 187.976 307.861 188.208C307.848 188.388 307.848 188.479 307.822 188.646ZM307.026 197.93C307.013 198.162 307.144 198.304 307.391 198.304C307.574 198.304 307.665 198.304 307.848 198.304C308.07 198.304 308.253 198.149 308.266 197.93C308.279 197.749 308.279 197.672 308.292 197.491C308.305 197.259 308.461 197.118 308.709 197.118C308.892 197.118 308.983 197.118 309.166 197.118C309.388 197.118 309.57 196.963 309.583 196.744C309.714 195.067 309.857 193.378 310.014 191.702C310.04 191.457 309.909 191.328 309.662 191.328C309.479 191.328 309.388 191.328 309.218 191.328C308.996 191.328 308.84 191.174 308.866 190.954C308.879 190.774 308.892 190.696 308.905 190.516C308.931 190.271 308.801 190.142 308.553 190.142C308.37 190.142 308.279 190.142 308.109 190.142C307.887 190.142 307.705 190.297 307.692 190.516C307.679 190.696 307.665 190.774 307.652 190.954C307.626 191.199 307.47 191.328 307.235 191.328C307.052 191.328 306.961 191.328 306.778 191.328C306.53 191.328 306.374 191.47 306.361 191.702C306.204 193.378 306.061 195.067 305.93 196.744C305.917 196.989 306.048 197.118 306.296 197.118C306.478 197.118 306.57 197.118 306.752 197.118C307 197.118 307.131 197.259 307.117 197.491C307.052 197.672 307.039 197.762 307.026 197.93Z" fill="#FE3989"/>
<path d="M318.415 191.495C318.428 191.353 318.428 191.276 318.441 191.134C318.454 190.915 318.637 190.76 318.858 190.76C321.468 190.76 324.077 190.76 326.686 190.76C326.908 190.76 327.065 190.915 327.039 191.134C327.026 191.276 327.026 191.353 327.013 191.495C327 191.714 326.817 191.869 326.595 191.869C323.986 191.869 321.376 191.869 318.754 191.869C318.545 191.882 318.402 191.714 318.415 191.495Z" fill="#FE3989"/>
<path d="M330.718 181.259C330.731 181.04 330.9 180.885 331.135 180.885C334.906 180.885 338.689 180.872 342.46 180.872C342.681 180.872 342.838 181.027 342.825 181.246C342.825 181.414 342.825 181.504 342.812 181.685C342.799 181.904 342.955 182.059 343.177 182.059C343.347 182.059 343.425 182.059 343.595 182.059C343.817 182.059 343.973 182.213 343.96 182.433C343.882 183.67 343.803 184.921 343.712 186.159C343.699 186.404 343.543 186.533 343.308 186.533C343.125 186.533 343.047 186.533 342.864 186.533C342.642 186.533 342.473 186.688 342.46 186.907C342.447 187.087 342.447 187.165 342.434 187.345C342.421 187.59 342.264 187.719 342.016 187.719C341.612 187.719 341.403 187.719 340.998 187.719C340.777 187.719 340.607 187.874 340.581 188.093C340.568 188.273 340.568 188.351 340.555 188.531C340.542 188.751 340.685 188.905 340.907 188.905C341.559 188.905 341.886 188.905 342.525 188.905C342.747 188.905 342.903 189.06 342.89 189.279C342.877 189.46 342.877 189.537 342.864 189.718C342.851 189.937 342.995 190.091 343.229 190.091C343.412 190.091 343.503 190.091 343.673 190.091C343.895 190.091 344.051 190.246 344.038 190.465C343.895 192.541 343.764 194.617 343.647 196.693C343.634 196.912 343.464 197.067 343.242 197.067C343.06 197.067 342.968 197.067 342.799 197.067C342.577 197.067 342.407 197.222 342.394 197.441C342.381 197.621 342.381 197.699 342.368 197.879C342.355 198.099 342.186 198.253 341.964 198.253C341.781 198.253 341.69 198.253 341.507 198.253C341.285 198.253 341.116 198.408 341.103 198.627C341.09 198.808 341.09 198.885 341.077 199.066C341.064 199.285 340.894 199.439 340.672 199.439C337.045 199.439 333.405 199.439 329.778 199.439C329.557 199.439 329.4 199.285 329.413 199.066C329.739 193.147 330.261 187.203 330.718 181.259ZM335.715 187.268C335.702 187.487 335.845 187.642 336.067 187.642C336.25 187.642 336.341 187.642 336.51 187.642C336.732 187.642 336.902 187.487 336.928 187.268C336.941 187.087 336.954 187.01 336.967 186.829C336.98 186.61 337.163 186.455 337.385 186.455C337.567 186.455 337.645 186.455 337.828 186.455C338.05 186.455 338.22 186.301 338.246 186.082C338.324 185.089 338.35 184.599 338.428 183.619C338.441 183.4 338.298 183.245 338.076 183.245C337.893 183.245 337.815 183.245 337.632 183.245C337.411 183.245 337.254 183.09 337.28 182.871C337.293 182.703 337.293 182.613 337.306 182.433C337.319 182.213 337.176 182.059 336.954 182.059C336.771 182.059 336.693 182.059 336.51 182.059C336.289 182.059 336.119 182.213 336.106 182.433C335.962 184.044 335.845 185.656 335.715 187.268ZM334.958 197.892C334.945 198.111 335.101 198.266 335.323 198.266C335.506 198.266 335.597 198.266 335.78 198.266C336.002 198.266 336.184 198.111 336.197 197.892C336.21 197.712 336.21 197.634 336.223 197.454C336.236 197.235 336.406 197.08 336.641 197.08C336.824 197.08 336.915 197.08 337.084 197.08C337.306 197.08 337.489 196.925 337.502 196.706C337.632 194.656 337.776 192.606 337.932 190.569C337.946 190.349 337.802 190.195 337.58 190.195C337.398 190.195 337.306 190.195 337.137 190.195C336.915 190.195 336.758 190.04 336.784 189.821C336.797 189.64 336.81 189.563 336.824 189.382C336.837 189.163 336.693 189.008 336.471 189.008C336.289 189.008 336.197 189.008 336.028 189.008C335.806 189.008 335.623 189.163 335.61 189.382C335.349 192.206 335.141 195.043 334.958 197.892Z" fill="#FE3989"/>
<path d="M347.432 181.219C347.445 181 347.615 180.846 347.837 180.846C349.389 180.846 350.942 180.846 352.494 180.833C352.716 180.833 352.873 180.987 352.86 181.207C352.546 187.176 352.155 193.133 351.881 199.09C351.868 199.309 351.698 199.464 351.477 199.464C349.898 199.464 348.306 199.464 346.728 199.464C346.506 199.464 346.349 199.309 346.362 199.09C346.662 193.133 347.08 187.189 347.432 181.219Z" fill="#FE3989"/>
<path d="M359.644 182.368C359.657 182.135 359.527 181.994 359.279 181.994C359.096 181.994 359.005 181.994 358.822 181.994C358.587 181.994 358.431 182.135 358.418 182.368C358.379 183.257 358.352 183.708 358.313 184.611C358.3 184.856 358.157 184.985 357.909 184.985C357.726 184.985 357.648 184.985 357.465 184.985C357.217 184.985 357.074 185.127 357.061 185.359C357.048 185.539 357.048 185.617 357.035 185.797C357.022 186.042 356.878 186.171 356.63 186.171C355.965 186.171 355.639 186.171 354.973 186.171C354.725 186.171 354.595 186.029 354.608 185.797C354.686 184.263 354.778 182.729 354.843 181.194C354.856 180.975 355.026 180.82 355.247 180.82C360.009 180.807 364.771 180.794 369.533 180.782C369.768 180.782 369.912 180.923 369.899 181.156C369.859 182.69 369.807 184.237 369.755 185.771C369.742 186.016 369.599 186.145 369.364 186.145C368.698 186.145 368.372 186.145 367.707 186.145C367.459 186.145 367.328 186.004 367.342 185.771C367.355 185.591 367.355 185.514 367.355 185.333C367.368 185.088 367.224 184.959 366.989 184.959C366.807 184.959 366.728 184.959 366.546 184.959C366.311 184.959 366.167 184.817 366.18 184.585C366.219 183.683 366.233 183.231 366.259 182.342C366.272 182.11 366.128 181.968 365.893 181.968C365.711 181.968 365.619 181.968 365.437 181.968C365.202 181.968 365.045 182.11 365.045 182.342C364.837 187.925 364.563 193.508 364.38 199.091C364.367 199.31 364.21 199.465 363.976 199.465C362.397 199.465 360.805 199.465 359.227 199.465C359.005 199.465 358.848 199.31 358.848 199.091C359.083 193.521 359.383 187.951 359.644 182.368Z" fill="#FE3989"/>
<path d="M376.904 181.156C376.904 180.924 377.048 180.782 377.296 180.782C381.027 180.769 384.758 180.756 388.503 180.756C388.738 180.756 388.881 180.898 388.881 181.13C388.881 182.677 388.881 184.225 388.868 185.759C388.868 186.004 388.725 186.146 388.49 186.146C387.107 186.146 386.415 186.146 385.032 186.146C384.798 186.146 384.654 186.004 384.654 185.772C384.654 185.591 384.654 185.501 384.654 185.334C384.654 185.089 384.524 184.96 384.276 184.96C384.093 184.96 384.015 184.96 383.832 184.96C383.597 184.96 383.454 184.818 383.454 184.586C383.467 183.696 383.467 183.245 383.48 182.355C383.48 182.11 383.349 181.981 383.102 181.981C382.932 181.981 382.841 181.981 382.658 181.981C382.423 181.981 382.28 182.123 382.28 182.355C382.253 184.418 382.227 186.494 382.188 188.557C382.188 188.802 382.319 188.944 382.567 188.944C383.871 188.944 385.176 188.944 386.481 188.944C386.728 188.944 386.859 189.086 386.859 189.331C386.846 189.988 386.846 190.323 386.846 190.981C386.846 191.226 386.702 191.368 386.454 191.368C385.15 191.368 383.832 191.368 382.527 191.368C382.28 191.368 382.136 191.51 382.136 191.755C382.097 193.818 382.071 195.894 382.045 197.957C382.045 198.202 382.188 198.33 382.423 198.33C382.606 198.33 382.697 198.33 382.867 198.33C383.115 198.33 383.258 198.189 383.258 197.957C383.271 197.067 383.271 196.616 383.284 195.726C383.284 195.481 383.428 195.352 383.676 195.352C383.858 195.352 383.95 195.352 384.119 195.352C384.367 195.352 384.511 195.21 384.511 194.978C384.511 194.798 384.511 194.72 384.511 194.54C384.511 194.295 384.654 194.153 384.902 194.153C386.298 194.153 387.002 194.153 388.398 194.153C388.646 194.153 388.79 194.295 388.777 194.54C388.764 196.087 388.764 197.621 388.764 199.169C388.764 199.401 388.62 199.542 388.372 199.542C384.537 199.542 380.701 199.542 376.865 199.542C376.617 199.542 376.474 199.401 376.487 199.169C376.591 193.121 376.787 187.139 376.904 181.156Z" fill="#FE3989"/>
<path d="M391.947 198.663C391.947 198.444 391.778 198.289 391.556 198.289C391.373 198.289 391.282 198.289 391.112 198.289C390.891 198.289 390.721 198.134 390.721 197.915C390.721 196.549 390.721 195.852 390.734 194.473C390.734 194.253 390.904 194.086 391.125 194.086C392.704 194.086 394.27 194.086 395.848 194.086C396.07 194.086 396.24 194.241 396.24 194.473C396.24 195.852 396.253 196.536 396.253 197.915C396.253 198.134 396.422 198.289 396.644 198.289C396.827 198.289 396.918 198.289 397.088 198.289C397.309 198.289 397.479 198.134 397.479 197.915C397.479 197.735 397.479 197.657 397.479 197.477C397.479 197.258 397.636 197.103 397.857 197.103C398.131 197.103 398.262 197.103 398.536 197.103C398.758 197.103 398.927 196.948 398.914 196.729C398.901 195.143 398.888 193.544 398.875 191.958C398.875 191.739 398.705 191.572 398.484 191.572C398.301 191.572 398.223 191.572 398.04 191.572C397.818 191.572 397.649 191.417 397.649 191.185C397.649 191.004 397.649 190.914 397.649 190.746C397.649 190.527 397.479 190.36 397.257 190.36C395.861 190.36 395.17 190.36 393.774 190.36C393.552 190.36 393.395 190.205 393.395 189.973C393.395 189.792 393.395 189.702 393.395 189.534C393.395 189.315 393.239 189.148 393.017 189.148C392.835 189.148 392.756 189.148 392.574 189.148C392.352 189.148 392.195 188.993 392.195 188.761C392.195 188.593 392.195 188.503 392.195 188.335C392.195 188.09 392.039 187.936 391.791 187.936C391.634 187.936 391.543 187.936 391.386 187.936C391.138 187.936 390.982 187.781 390.982 187.536C390.982 186.195 390.995 184.867 390.995 183.526C390.995 183.281 391.151 183.126 391.399 183.126C391.556 183.126 391.634 183.126 391.804 183.126C392.039 183.126 392.208 182.971 392.208 182.726C392.208 182.559 392.208 182.481 392.208 182.314C392.208 182.095 392.365 181.94 392.587 181.94C392.756 181.94 392.848 181.94 393.03 181.94C393.252 181.94 393.409 181.785 393.409 181.566C393.409 181.386 393.409 181.308 393.409 181.128C393.409 180.908 393.565 180.754 393.787 180.754C396.253 180.741 398.732 180.741 401.197 180.728C401.419 180.728 401.576 180.883 401.589 181.102C401.589 181.282 401.589 181.36 401.602 181.54C401.602 181.759 401.771 181.914 401.993 181.914C402.567 181.914 402.854 181.914 403.428 181.914C403.65 181.914 403.807 182.069 403.82 182.288C403.846 183.668 403.859 184.351 403.885 185.731C403.885 185.95 403.728 186.118 403.507 186.118C402.28 186.118 401.68 186.118 400.454 186.118C400.232 186.118 400.075 185.963 400.062 185.731C400.062 185.55 400.062 185.46 400.062 185.292C400.062 185.073 399.893 184.905 399.671 184.905C399.488 184.905 399.41 184.905 399.227 184.905C399.006 184.905 398.849 184.751 398.836 184.532C398.823 183.629 398.823 183.191 398.81 182.288C398.81 182.069 398.64 181.914 398.418 181.914C398.249 181.914 398.157 181.914 397.975 181.914C397.753 181.914 397.596 182.069 397.596 182.288C397.596 182.469 397.596 182.546 397.596 182.726C397.596 182.946 397.44 183.1 397.218 183.113C397.049 183.113 396.957 183.113 396.775 183.113C396.553 183.113 396.396 183.268 396.396 183.5C396.409 184.854 396.422 186.208 396.422 187.549C396.422 187.768 396.579 187.936 396.801 187.936C397.062 187.936 397.192 187.936 397.44 187.936C397.662 187.936 397.818 188.09 397.831 188.322C397.831 188.503 397.831 188.593 397.831 188.761C397.831 188.98 398.001 189.148 398.223 189.148C399.527 189.148 400.18 189.148 401.497 189.148C401.719 189.148 401.889 189.302 401.889 189.534C401.889 189.715 401.889 189.805 401.889 189.973C401.889 190.192 402.058 190.36 402.28 190.36C402.463 190.36 402.541 190.36 402.724 190.36C402.946 190.36 403.115 190.514 403.115 190.746C403.115 190.914 403.115 191.004 403.115 191.172C403.115 191.417 403.285 191.572 403.52 191.572C403.676 191.572 403.767 191.572 403.924 191.572C404.172 191.572 404.328 191.726 404.342 191.971C404.368 193.544 404.394 195.13 404.42 196.703C404.42 196.948 404.263 197.103 404.015 197.103C403.846 197.103 403.768 197.103 403.611 197.103C403.363 197.103 403.206 197.258 403.206 197.503C403.206 197.67 403.207 197.761 403.22 197.915C403.22 198.134 403.063 198.289 402.841 198.289C402.659 198.289 402.567 198.289 402.398 198.289C402.176 198.289 402.006 198.444 402.019 198.663C402.019 198.844 402.019 198.921 402.032 199.102C402.032 199.321 401.889 199.475 401.667 199.475C398.562 199.475 395.457 199.475 392.352 199.475C392.13 199.475 391.986 199.321 391.986 199.102C391.947 198.921 391.947 198.844 391.947 198.663Z" fill="#FE3989"/>
<path d="M409.456 198.664C409.456 198.444 409.287 198.29 409.052 198.29C408.869 198.29 408.778 198.29 408.608 198.29C408.387 198.29 408.217 198.135 408.217 197.916C408.217 197.735 408.217 197.658 408.204 197.477C408.204 197.258 408.034 197.104 407.813 197.104C407.63 197.104 407.539 197.104 407.369 197.104C407.147 197.104 406.978 196.949 406.978 196.73C406.886 192.32 406.808 187.91 406.704 183.501C406.704 183.281 406.86 183.114 407.069 183.114C407.239 183.114 407.33 183.114 407.512 183.114C407.734 183.114 407.891 182.959 407.878 182.727C407.878 182.546 407.865 182.469 407.865 182.289C407.865 182.069 408.008 181.915 408.23 181.902C408.4 181.902 408.491 181.902 408.674 181.902C408.895 181.902 409.052 181.747 409.039 181.515C409.039 181.334 409.026 181.257 409.026 181.077C409.013 180.857 409.169 180.703 409.391 180.703C412.222 180.69 415.053 180.69 417.885 180.677C418.119 180.677 418.289 180.832 418.302 181.077C418.315 181.231 418.315 181.322 418.315 181.476C418.328 181.721 418.498 181.876 418.733 181.876C419.007 181.876 419.15 181.876 419.437 181.876C419.672 181.876 419.841 182.031 419.855 182.276C419.92 183.642 419.946 184.326 420.011 185.693C420.024 185.938 419.868 186.092 419.62 186.092C418.25 186.092 417.571 186.092 416.202 186.092C415.967 186.092 415.797 185.938 415.784 185.693C415.784 185.525 415.771 185.435 415.771 185.267C415.758 185.048 415.601 184.88 415.38 184.88C415.21 184.88 415.132 184.88 414.962 184.88C414.727 184.88 414.558 184.726 414.545 184.481C414.519 183.591 414.492 183.14 414.466 182.25C414.453 182.031 414.297 181.876 414.075 181.876C413.905 181.876 413.814 181.876 413.631 181.876C413.41 181.876 413.253 182.031 413.266 182.263C413.279 182.443 413.279 182.534 413.279 182.701C413.292 182.92 413.136 183.088 412.914 183.088C412.744 183.088 412.653 183.088 412.47 183.088C412.248 183.088 412.092 183.256 412.105 183.475C412.248 187.884 412.366 192.307 412.483 196.717C412.483 196.936 412.653 197.091 412.888 197.091C413.07 197.091 413.162 197.091 413.331 197.091C413.553 197.091 413.723 197.245 413.736 197.465C413.736 197.645 413.749 197.722 413.749 197.903C413.762 198.122 413.918 198.277 414.153 198.277C414.336 198.277 414.427 198.277 414.597 198.277C414.819 198.277 414.975 198.122 414.975 197.903C414.936 196.536 414.91 195.853 414.871 194.473C414.858 194.228 415.027 194.073 415.262 194.073C416.815 194.073 418.38 194.073 419.933 194.073C420.181 194.073 420.35 194.228 420.35 194.473C420.403 195.84 420.429 196.523 420.481 197.877C420.494 198.122 420.337 198.277 420.089 198.277C419.92 198.277 419.841 198.277 419.685 198.277C419.437 198.277 419.28 198.432 419.294 198.677C419.294 198.831 419.307 198.922 419.307 199.076C419.32 199.321 419.163 199.476 418.915 199.476C415.901 199.476 412.888 199.476 409.887 199.476C409.665 199.476 409.496 199.321 409.483 199.102C409.469 198.922 409.469 198.831 409.456 198.664Z" fill="#FE3989"/>
<path d="M422.618 185.863C422.605 185.644 422.762 185.476 422.984 185.476C423.244 185.476 423.375 185.476 423.649 185.476C423.871 185.476 424.027 185.308 424.014 185.089C424.001 184.909 424.001 184.818 423.988 184.651C423.975 184.432 424.132 184.264 424.353 184.264C424.536 184.264 424.614 184.264 424.797 184.264C425.019 184.264 425.175 184.096 425.162 183.877C425.149 183.697 425.149 183.606 425.136 183.439C425.123 183.22 425.28 183.052 425.501 183.052C425.684 183.052 425.762 183.052 425.945 183.052C426.167 183.052 426.31 182.884 426.31 182.665C426.297 182.485 426.297 182.394 426.284 182.227C426.271 182.008 426.428 181.84 426.637 181.84C426.715 181.84 426.754 181.84 426.832 181.84C427.054 181.84 427.198 181.672 427.184 181.453C427.171 181.273 427.171 181.182 427.158 181.015C427.145 180.796 427.289 180.628 427.511 180.628C429.663 180.628 431.816 180.615 433.956 180.615C434.177 180.615 434.347 180.77 434.36 180.989C434.373 181.17 434.373 181.26 434.386 181.427C434.399 181.647 434.569 181.814 434.791 181.814C434.973 181.814 435.052 181.814 435.234 181.814C435.456 181.814 435.626 181.969 435.639 182.201C436.03 187.836 436.356 193.47 436.682 199.092C436.695 199.311 436.539 199.466 436.317 199.466C434.738 199.466 433.147 199.466 431.568 199.466C431.346 199.466 431.177 199.311 431.164 199.092C431.046 196.964 430.942 194.837 430.824 192.709C430.811 192.49 430.642 192.323 430.42 192.323C430.237 192.323 430.146 192.323 429.976 192.323C429.755 192.323 429.598 192.49 429.611 192.709C429.624 192.89 429.624 192.98 429.637 193.148C429.65 193.367 429.494 193.535 429.272 193.535C429.089 193.535 428.998 193.535 428.828 193.535C428.607 193.535 428.45 193.702 428.463 193.921C428.541 195.649 428.633 197.364 428.724 199.092C428.737 199.311 428.58 199.466 428.359 199.466C426.78 199.466 425.188 199.466 423.61 199.466C423.388 199.466 423.218 199.311 423.205 199.092C422.997 194.682 422.814 190.273 422.618 185.863ZM429.155 191.252C429.376 191.252 429.533 191.085 429.52 190.866C429.507 190.685 429.507 190.595 429.494 190.414C429.481 190.195 429.637 190.028 429.859 190.028C430.042 190.028 430.12 190.028 430.303 190.028C430.524 190.028 430.681 189.86 430.668 189.641C430.537 187.165 430.394 184.69 430.237 182.214C430.224 181.995 430.055 181.827 429.833 181.827C429.663 181.827 429.572 181.827 429.389 181.827C429.168 181.827 429.024 181.995 429.037 182.214C429.05 182.394 429.05 182.485 429.063 182.652C429.076 182.872 428.92 183.039 428.711 183.039C428.528 183.039 428.45 183.039 428.267 183.039C428.046 183.039 427.902 183.207 427.915 183.426C428.059 185.902 428.189 188.377 428.306 190.866C428.32 191.085 428.489 191.252 428.711 191.252C428.894 191.252 428.972 191.252 429.155 191.252Z" fill="#FE3989"/>
<path d="M438.366 180.988C438.353 180.769 438.497 180.601 438.719 180.601C442.072 180.588 445.424 180.588 448.777 180.575C448.999 180.575 449.169 180.73 449.195 180.962C449.208 181.143 449.221 181.233 449.234 181.4C449.26 181.62 449.43 181.787 449.652 181.787C449.834 181.787 449.913 181.787 450.095 181.787C450.317 181.787 450.487 181.942 450.513 182.174C450.526 182.355 450.539 182.445 450.552 182.613C450.578 182.832 450.747 182.999 450.969 182.999C451.152 182.999 451.23 182.999 451.413 182.999C451.635 182.999 451.804 183.154 451.83 183.386C452 185.307 452.157 187.228 452.313 189.137C452.326 189.356 452.183 189.524 451.961 189.524C451.778 189.524 451.687 189.524 451.517 189.524C451.295 189.524 451.139 189.691 451.165 189.91C451.178 190.091 451.191 190.181 451.204 190.362C451.217 190.581 451.074 190.748 450.852 190.748C449.456 190.748 448.751 190.748 447.355 190.748C447.134 190.748 446.977 190.916 447.003 191.135C447.016 191.316 447.029 191.406 447.029 191.587C447.042 191.806 446.899 191.973 446.677 191.973C446.012 191.973 445.672 191.973 445.007 191.973C444.785 191.973 444.629 192.141 444.642 192.36C444.798 194.617 444.955 196.86 445.111 199.116C445.124 199.336 444.968 199.49 444.746 199.49C443.167 199.49 441.576 199.49 439.997 199.49C439.775 199.49 439.593 199.336 439.58 199.116C439.188 193.069 438.823 187.022 438.366 180.988ZM444.485 190.362C444.498 190.581 444.681 190.748 444.903 190.748C445.085 190.748 445.177 190.748 445.346 190.748C445.568 190.748 445.725 190.581 445.698 190.362C445.685 190.181 445.685 190.091 445.672 189.91C445.659 189.691 445.803 189.524 446.025 189.524C446.207 189.524 446.299 189.524 446.468 189.524C446.69 189.524 446.847 189.356 446.82 189.137C446.677 187.216 446.52 185.307 446.377 183.386C446.364 183.167 446.181 182.999 445.959 182.999C445.777 182.999 445.698 182.999 445.516 182.999C445.294 182.999 445.124 182.845 445.098 182.613C445.085 182.432 445.072 182.342 445.059 182.174C445.046 181.955 444.863 181.787 444.642 181.787C444.459 181.787 444.381 181.787 444.198 181.787C443.976 181.787 443.833 181.955 443.846 182.174C444.094 184.908 444.289 187.641 444.485 190.362Z" fill="#FE3989"/>
<path d="M453.839 185.809C453.826 185.59 453.97 185.422 454.192 185.422C454.453 185.422 454.596 185.422 454.857 185.422C455.079 185.422 455.222 185.255 455.209 185.036C455.196 184.855 455.183 184.765 455.17 184.584C455.144 184.365 455.301 184.198 455.522 184.198C455.705 184.198 455.783 184.198 455.966 184.198C456.188 184.198 456.331 184.03 456.318 183.811C456.305 183.63 456.292 183.54 456.279 183.359C456.253 183.14 456.41 182.973 456.631 182.973C456.814 182.973 456.892 182.973 457.075 182.973C457.297 182.973 457.44 182.805 457.427 182.586C457.414 182.405 457.401 182.315 457.388 182.147C457.362 181.928 457.519 181.761 457.727 181.761C457.806 181.761 457.845 181.761 457.923 181.761C458.145 181.761 458.288 181.593 458.262 181.374C458.249 181.193 458.236 181.103 458.223 180.935C458.197 180.716 458.34 180.549 458.562 180.549C460.728 180.549 462.894 180.536 465.073 180.536C465.294 180.536 465.477 180.69 465.503 180.923C465.516 181.103 465.529 181.193 465.555 181.361C465.581 181.58 465.751 181.748 465.986 181.748C466.168 181.748 466.247 181.748 466.429 181.748C466.651 181.748 466.834 181.902 466.86 182.135C467.447 187.782 467.969 193.429 468.465 199.09C468.478 199.309 468.334 199.464 468.112 199.464C466.534 199.464 464.942 199.464 463.363 199.464C463.142 199.464 462.959 199.309 462.946 199.09C462.763 196.962 462.581 194.822 462.398 192.694C462.385 192.475 462.202 192.308 461.98 192.308C461.798 192.308 461.707 192.308 461.537 192.308C461.315 192.308 461.159 192.475 461.185 192.694C461.198 192.875 461.211 192.965 461.224 193.146C461.237 193.365 461.093 193.533 460.872 193.533C460.689 193.533 460.598 193.533 460.428 193.533C460.206 193.533 460.05 193.7 460.076 193.919C460.219 195.647 460.363 197.375 460.506 199.103C460.519 199.322 460.376 199.477 460.154 199.477C458.575 199.477 456.984 199.477 455.405 199.477C455.183 199.477 455.001 199.322 454.988 199.103C454.57 194.667 454.218 190.232 453.839 185.809ZM460.624 191.225C460.845 191.225 461.002 191.057 460.976 190.838C460.963 190.657 460.95 190.567 460.937 190.387C460.911 190.167 461.067 190 461.289 190C461.472 190 461.563 190 461.733 190C461.954 190 462.098 189.832 462.085 189.613C461.863 187.124 461.628 184.636 461.38 182.147C461.354 181.928 461.185 181.761 460.963 181.761C460.78 181.761 460.702 181.761 460.519 181.761C460.297 181.761 460.154 181.928 460.18 182.147C460.193 182.328 460.206 182.418 460.219 182.586C460.245 182.805 460.102 182.973 459.88 182.973C459.697 182.973 459.619 182.973 459.436 182.973C459.215 182.973 459.071 183.14 459.084 183.359C459.319 185.848 459.541 188.336 459.763 190.825C459.776 191.044 459.958 191.212 460.18 191.212C460.35 191.225 460.441 191.225 460.624 191.225Z" fill="#FE3989"/>
<path d="M469.519 180.935C469.493 180.716 469.637 180.549 469.858 180.549C473.25 180.549 476.63 180.536 480.022 180.536C480.243 180.536 480.426 180.69 480.452 180.923C480.478 181.103 480.478 181.193 480.504 181.361C480.53 181.58 480.713 181.748 480.935 181.748C481.118 181.748 481.209 181.748 481.378 181.748C481.6 181.748 481.783 181.915 481.809 182.135C481.835 182.315 481.835 182.405 481.861 182.586C481.887 182.805 482.07 182.973 482.292 182.973C482.474 182.973 482.566 182.973 482.735 182.973C482.957 182.973 483.14 183.14 483.166 183.359C483.662 187.808 484.131 192.256 484.575 196.704C484.601 196.924 484.444 197.091 484.223 197.091C484.04 197.091 483.949 197.091 483.766 197.091C483.544 197.091 483.388 197.246 483.414 197.478C483.427 197.659 483.44 197.749 483.453 197.916C483.479 198.136 483.322 198.29 483.101 198.29C482.918 198.29 482.827 198.29 482.644 198.29C482.422 198.29 482.266 198.445 482.292 198.664C482.305 198.845 482.318 198.922 482.331 199.103C482.357 199.322 482.2 199.477 481.979 199.477C478.547 199.477 475.129 199.477 471.698 199.477C471.476 199.477 471.293 199.322 471.28 199.103C470.746 193.043 470.185 186.983 469.519 180.935ZM476.721 197.904C476.747 198.123 476.917 198.277 477.151 198.277C477.334 198.277 477.425 198.277 477.608 198.277C477.83 198.277 477.986 198.123 477.96 197.904C477.947 197.723 477.934 197.646 477.921 197.465C477.895 197.246 478.052 197.078 478.273 197.078C478.456 197.078 478.547 197.078 478.73 197.078C478.952 197.078 479.108 196.924 479.082 196.692C478.652 192.243 478.208 187.795 477.712 183.347C477.686 183.127 477.504 182.96 477.282 182.96C477.099 182.96 477.008 182.96 476.838 182.96C476.617 182.96 476.434 182.792 476.408 182.573C476.382 182.392 476.382 182.302 476.356 182.122C476.329 181.902 476.147 181.735 475.925 181.735C475.742 181.735 475.651 181.735 475.481 181.735C475.26 181.735 475.116 181.902 475.142 182.122C475.703 187.382 476.225 192.643 476.721 197.904Z" fill="#FE3989"/>
<path d="M485.75 180.923C485.724 180.678 485.842 180.536 486.09 180.536C489.912 180.536 493.735 180.536 497.558 180.536C497.805 180.536 497.962 180.678 497.988 180.923C498.184 182.496 498.366 184.056 498.549 185.629C498.575 185.874 498.445 186.016 498.21 186.016C496.801 186.016 496.096 186.016 494.687 186.016C494.439 186.016 494.283 185.874 494.257 185.629C494.231 185.448 494.231 185.358 494.205 185.177C494.178 184.932 494.022 184.791 493.774 184.791C493.591 184.791 493.5 184.791 493.33 184.791C493.083 184.791 492.926 184.649 492.9 184.404C492.796 183.488 492.743 183.037 492.639 182.135C492.613 181.89 492.456 181.748 492.208 181.748C492.026 181.748 491.934 181.748 491.765 181.748C491.517 181.748 491.4 181.89 491.426 182.135C491.674 184.236 491.908 186.338 492.143 188.44C492.169 188.685 492.326 188.826 492.574 188.826C493.891 188.826 495.222 188.826 496.54 188.826C496.788 188.826 496.944 188.968 496.97 189.213C497.049 189.884 497.075 190.219 497.153 190.876C497.179 191.121 497.049 191.263 496.801 191.263C495.483 191.263 494.152 191.263 492.835 191.263C492.587 191.263 492.456 191.405 492.482 191.65C492.704 193.739 492.913 195.815 493.122 197.904C493.148 198.149 493.304 198.277 493.552 198.277C493.735 198.277 493.826 198.277 494.009 198.277C494.257 198.277 494.387 198.136 494.361 197.904C494.27 197.001 494.231 196.563 494.139 195.66C494.113 195.415 494.244 195.273 494.492 195.273C494.674 195.273 494.766 195.273 494.948 195.273C495.196 195.273 495.327 195.131 495.3 194.886C495.287 194.706 495.274 194.616 495.261 194.448C495.235 194.203 495.366 194.061 495.614 194.061C497.023 194.061 497.727 194.061 499.136 194.061C499.384 194.061 499.541 194.203 499.567 194.448C499.723 195.995 499.88 197.555 500.036 199.103C500.062 199.348 499.932 199.477 499.684 199.477C495.848 199.477 492.013 199.477 488.177 199.477C487.929 199.477 487.773 199.335 487.747 199.103C487.094 193.03 486.468 186.97 485.75 180.923Z" fill="#FE3989"/>
</svg>
