<svg width="137" height="48" viewBox="0 0 137 48" fill="none" xmlns="http://www.w3.org/2000/svg">
<g clip-path="url(#clip0_2982_139)">
<path d="M6 1H7V0H415V2H6V1Z" fill="#FFEBD3"/>
<path d="M131 47L130 47L130 48L-278 48L-278 46L131 46L131 47Z" fill="#FFEBD3"/>
<path d="M136 42L136 41L137 41L137 -367L135 -367L135 42L136 42Z" fill="#FFEBD3"/>
<path d="M1 6L1 7L-4.37114e-08 7L-1.7878e-05 415L1.99998 415L2 6L1 6Z" fill="#FFEBD3"/>
<path d="M131 45H132V46H131V45Z" fill="#4BF89B"/>
<path d="M132 44H133V45H132V44Z" fill="#4BF89B"/>
<path d="M133 43H134V44H133V43Z" fill="#4BF89B"/>
<path d="M134 42H135V43H134V42Z" fill="#4BF89B"/>
<path d="M2 5H3V6H2V5Z" fill="#4BF89B"/>
<path d="M3 4H4V5H3V4Z" fill="#4BF89B"/>
<path d="M4 3H5V4H4V3Z" fill="#4BF89B"/>
<path d="M5 2H6V3H5V2Z" fill="#4BF89B"/>
<path d="M42.1906 29V28.2422V27.4766V26.7188V25.9531V25.1953V24.4297V23.6719V22.9062V22.1484V21.3828V20.625V19.8594H42.9484V19.1016H43.7141V18.3359H44.4719H45.2375H45.9953H46.7609H47.5187H48.2844V19.1016H49.0422V19.8594H49.8078V20.625V21.3828V22.1484V22.9062V23.6719V24.4297V25.1953V25.9531V26.7188V27.4766V28.2422V29H49.0422H48.2844V28.2422V27.4766V26.7188V25.9531H47.5187H46.7609H45.9953H45.2375H44.4719H43.7141V26.7188V27.4766V28.2422V29H42.9484H42.1906ZM43.7141 24.4297H44.4719H45.2375H45.9953H46.7609H47.5187H48.2844V23.6719V22.9062V22.1484V21.3828V20.625H47.5187V19.8594H46.7609H45.9953H45.2375H44.4719V20.625H43.7141V21.3828V22.1484V22.9062V23.6719V24.4297ZM51.8456 29V28.2422V27.4766V26.7188V25.9531V25.1953V24.4297V23.6719V22.9062V22.1484V21.3828H52.6034H53.3691V22.1484H54.1269V21.3828H54.8925H55.6503H56.4159V22.1484H57.1737V22.9062V23.6719H56.4159H55.6503V22.9062H54.8925H54.1269V23.6719H53.3691V24.4297V25.1953V25.9531V26.7188V27.4766V28.2422V29H52.6034H51.8456ZM59.2194 27.4766V26.7188V25.9531V25.1953V24.4297V23.6719V22.9062H59.9772V22.1484H60.7428V21.3828H61.5006H62.2662H63.0241H63.7897H64.5475H65.3131V22.1484H66.0709V22.9062V23.6719H65.3131H64.5475V22.9062H63.7897H63.0241H62.2662H61.5006V23.6719H60.7428V24.4297V25.1953V25.9531V26.7188H61.5006V27.4766H62.2662H63.0241H63.7897H64.5475V26.7188V25.9531H65.3131H66.0709V26.7188V27.4766V28.2422H65.3131V29H64.5475H63.7897H63.0241H62.2662H61.5006H60.7428V28.2422H59.9772V27.4766H59.2194ZM68.1244 27.4766V26.7188V25.9531H68.8822V25.1953H69.6478V24.4297H70.4056H71.1712H71.9291H72.6947H73.4525H74.2181V23.6719H73.4525V22.9062H72.6947H71.9291H71.1712H70.4056H69.6478H68.8822V22.1484V21.3828H69.6478H70.4056H71.1712H71.9291H72.6947H73.4525H74.2181V22.1484H74.9759V22.9062H75.7416V23.6719V24.4297V25.1953V25.9531V26.7188V27.4766V28.2422V29H74.9759H74.2181V28.2422H73.4525V29H72.6947H71.9291H71.1712H70.4056H69.6478V28.2422H68.8822V27.4766H68.1244ZM70.4056 27.4766H71.1712H71.9291H72.6947H73.4525V26.7188H74.2181V25.9531H73.4525H72.6947H71.9291H71.1712H70.4056V26.7188V27.4766ZM77.7794 27.4766V26.7188V25.9531V25.1953V24.4297V23.6719V22.9062H78.5372V22.1484H79.3028V21.3828H80.0606H80.8262H81.5841H82.3497H83.1075V22.1484H83.8731V21.3828V20.625V19.8594V19.1016V18.3359H84.6309H85.3966V19.1016V19.8594V20.625V21.3828V22.1484V22.9062V23.6719V24.4297V25.1953V25.9531V26.7188V27.4766V28.2422V29H84.6309H83.8731H83.1075H82.3497H81.5841H80.8262H80.0606H79.3028V28.2422H78.5372V27.4766H77.7794ZM79.3028 26.7188H80.0606V27.4766H80.8262H81.5841H82.3497H83.1075H83.8731V26.7188V25.9531V25.1953V24.4297V23.6719H83.1075V22.9062H82.3497H81.5841H80.8262H80.0606V23.6719H79.3028V24.4297V25.1953V25.9531V26.7188ZM87.4344 27.4766V26.7188V25.9531V25.1953V24.4297V23.6719V22.9062H88.1922V22.1484H88.9578V21.3828H89.7156H90.4813H91.2391H92.0047H92.7625H93.5281V22.1484H94.2859V22.9062H95.0516V23.6719V24.4297V25.1953V25.9531H94.2859H93.5281H92.7625H92.0047H91.2391H90.4813H89.7156H88.9578V26.7188H89.7156V27.4766H90.4813H91.2391H92.0047H92.7625H93.5281V26.7188H94.2859H95.0516V27.4766V28.2422H94.2859V29H93.5281H92.7625H92.0047H91.2391H90.4813H89.7156H88.9578V28.2422H88.1922V27.4766H87.4344ZM88.9578 24.4297H89.7156H90.4813H91.2391H92.0047H92.7625H93.5281V23.6719H92.7625V22.9062H92.0047H91.2391H90.4813H89.7156V23.6719H88.9578V24.4297Z" fill="#FFEBD3"/>
</g>
<defs>
<clipPath id="clip0_2982_139">
<rect width="137" height="48" fill="white"/>
</clipPath>
</defs>
</svg>
