<svg width="137" height="48" viewBox="0 0 137 48" fill="none" xmlns="http://www.w3.org/2000/svg">
<g clip-path="url(#clip0_2982_130)">
<path d="M6 1H7V0H415V2H6V1Z" fill="#FFEBD3"/>
<path d="M131 47L130 47L130 48L-278 48L-278 46L131 46L131 47Z" fill="#FFEBD3"/>
<path d="M136 42L136 41L137 41L137 -367L135 -367L135 42L136 42Z" fill="#FFEBD3"/>
<path d="M1 6L1 7L-4.37114e-08 7L-1.7878e-05 415L1.99998 415L2 6L1 6Z" fill="#FFEBD3"/>
<path d="M131 45H132V46H131V45Z" fill="#4BF89B"/>
<path d="M132 44H133V45H132V44Z" fill="#4BF89B"/>
<path d="M133 43H134V44H133V43Z" fill="#4BF89B"/>
<path d="M134 42H135V43H134V42Z" fill="#4BF89B"/>
<path d="M2 5H3V6H2V5Z" fill="#4BF89B"/>
<path d="M3 4H4V5H3V4Z" fill="#4BF89B"/>
<path d="M4 3H5V4H4V3Z" fill="#4BF89B"/>
<path d="M5 2H6V3H5V2Z" fill="#4BF89B"/>
<path d="M35.0819 29V28.2422V27.4766V26.7188V25.9531V25.1953V24.4297V23.6719V22.9062V22.1484V21.3828V20.625V19.8594V19.1016V18.3359H35.8397H36.6053H37.3631H38.1287H38.8866H39.6522H40.41H41.1756V19.1016H41.9334V19.8594H42.6991V20.625V21.3828V22.1484V22.9062H41.9334V23.6719H41.1756V24.4297H41.9334V25.1953H42.6991V25.9531V26.7188V27.4766V28.2422V29H41.9334H41.1756V28.2422V27.4766V26.7188V25.9531H40.41V25.1953H39.6522V24.4297H38.8866H38.1287H37.3631H36.6053V25.1953V25.9531V26.7188V27.4766V28.2422V29H35.8397H35.0819ZM36.6053 22.9062H37.3631H38.1287H38.8866H39.6522H40.41V22.1484H41.1756V21.3828V20.625H40.41V19.8594H39.6522H38.8866H38.1287H37.3631H36.6053V20.625V21.3828V22.1484V22.9062ZM44.7369 27.4766V26.7188V25.9531V25.1953V24.4297V23.6719V22.9062H45.4947V22.1484H46.2603V21.3828H47.0181H47.7837H48.5416H49.3072H50.065H50.8306V22.1484H51.5884V22.9062H52.3541V23.6719V24.4297V25.1953V25.9531H51.5884H50.8306H50.065H49.3072H48.5416H47.7837H47.0181H46.2603V26.7188H47.0181V27.4766H47.7837H48.5416H49.3072H50.065H50.8306V26.7188H51.5884H52.3541V27.4766V28.2422H51.5884V29H50.8306H50.065H49.3072H48.5416H47.7837H47.0181H46.2603V28.2422H45.4947V27.4766H44.7369ZM46.2603 24.4297H47.0181H47.7837H48.5416H49.3072H50.065H50.8306V23.6719H50.065V22.9062H49.3072H48.5416H47.7837H47.0181V23.6719H46.2603V24.4297ZM54.3919 28.2422V27.4766V26.7188H55.1497H55.9153V27.4766H56.6731H57.4387H58.1966H58.9622V26.7188V25.9531H58.1966H57.4387H56.6731H55.9153H55.1497V25.1953H54.3919V24.4297V23.6719V22.9062V22.1484H55.1497V21.3828H55.9153H56.6731H57.4387H58.1966H58.9622H59.72V22.1484H60.4856V22.9062V23.6719H59.72H58.9622V22.9062H58.1966H57.4387H56.6731H55.9153V23.6719V24.4297H56.6731H57.4387H58.1966H58.9622H59.72V25.1953H60.4856V25.9531V26.7188V27.4766V28.2422H59.72V29H58.9622H58.1966H57.4387H56.6731H55.9153H55.1497V28.2422H54.3919ZM62.5312 32.0547V31.2891V30.5312V29.7656V29V28.2422V27.4766V26.7188V25.9531V25.1953V24.4297V23.6719V22.9062V22.1484V21.3828H63.2891H64.0547V22.1484H64.8125V21.3828H65.5781H66.3359H67.1016H67.8594H68.625V22.1484H69.3828V22.9062H70.1484V23.6719V24.4297V25.1953V25.9531V26.7188V27.4766H69.3828V28.2422H68.625V29H67.8594H67.1016H66.3359H65.5781H64.8125H64.0547V29.7656V30.5312V31.2891V32.0547H63.2891H62.5312ZM64.0547 27.4766H64.8125H65.5781H66.3359H67.1016H67.8594V26.7188H68.625V25.9531V25.1953V24.4297V23.6719H67.8594V22.9062H67.1016H66.3359H65.5781H64.8125V23.6719H64.0547V24.4297V25.1953V25.9531V26.7188V27.4766ZM72.1862 27.4766V26.7188V25.9531H72.9441V25.1953H73.7097V24.4297H74.4675H75.2331H75.9909H76.7566H77.5144H78.28V23.6719H77.5144V22.9062H76.7566H75.9909H75.2331H74.4675H73.7097H72.9441V22.1484V21.3828H73.7097H74.4675H75.2331H75.9909H76.7566H77.5144H78.28V22.1484H79.0378V22.9062H79.8034V23.6719V24.4297V25.1953V25.9531V26.7188V27.4766V28.2422V29H79.0378H78.28V28.2422H77.5144V29H76.7566H75.9909H75.2331H74.4675H73.7097V28.2422H72.9441V27.4766H72.1862ZM74.4675 27.4766H75.2331H75.9909H76.7566H77.5144V26.7188H78.28V25.9531H77.5144H76.7566H75.9909H75.2331H74.4675V26.7188V27.4766ZM81.8413 26.7188V25.9531V25.1953V24.4297V23.6719V22.9062V22.1484V21.3828H82.5991H83.3647V22.1484V22.9062V23.6719V24.4297V25.1953V25.9531H84.1225V26.7188H84.8881V27.4766H85.6459V26.7188H86.4116V25.9531V25.1953H87.1694H87.935V25.9531V26.7188H88.6928V27.4766H89.4584V26.7188H90.2163V25.9531H90.9819V25.1953V24.4297V23.6719V22.9062V22.1484V21.3828H91.7397H92.5053V22.1484V22.9062V23.6719V24.4297V25.1953V25.9531V26.7188H91.7397V27.4766H90.9819V28.2422H90.2163V29H89.4584H88.6928H87.935V28.2422H87.1694H86.4116V29H85.6459H84.8881H84.1225V28.2422H83.3647V27.4766H82.5991V26.7188H81.8413ZM94.5431 29V28.2422V27.4766V26.7188V25.9531V25.1953V24.4297V23.6719V22.9062V22.1484V21.3828H95.3009H96.0666V22.1484H96.8244V21.3828H97.59H98.3478H99.1134H99.8713H100.637V22.1484H101.395V22.9062H102.16V23.6719V24.4297V25.1953V25.9531V26.7188V27.4766V28.2422V29H101.395H100.637V28.2422V27.4766V26.7188V25.9531V25.1953V24.4297V23.6719H99.8713V22.9062H99.1134H98.3478H97.59H96.8244V23.6719H96.0666V24.4297V25.1953V25.9531V26.7188V27.4766V28.2422V29H95.3009H94.5431Z" fill="#FFEBD3"/>
</g>
<defs>
<clipPath id="clip0_2982_130">
<rect width="137" height="48" fill="white"/>
</clipPath>
</defs>
</svg>
