<svg width="137" height="48" viewBox="0 0 137 48" fill="none" xmlns="http://www.w3.org/2000/svg">
<g clip-path="url(#clip0_2982_148)">
<path d="M6 1H7V0H415V2H6V1Z" fill="#FFEBD3"/>
<path d="M131 47L130 47L130 48L-278 48L-278 46L131 46L131 47Z" fill="#FFEBD3"/>
<path d="M136 42L136 41L137 41L137 -367L135 -367L135 42L136 42Z" fill="#FFEBD3"/>
<path d="M1 6L1 7L-4.37114e-08 7L-1.7878e-05 415L1.99998 415L2 6L1 6Z" fill="#FFEBD3"/>
<path d="M131 45H132V46H131V45Z" fill="#4BF89B"/>
<path d="M132 44H133V45H132V44Z" fill="#4BF89B"/>
<path d="M133 43H134V44H133V43Z" fill="#4BF89B"/>
<path d="M134 42H135V43H134V42Z" fill="#4BF89B"/>
<path d="M2 5H3V6H2V5Z" fill="#4BF89B"/>
<path d="M3 4H4V5H3V4Z" fill="#4BF89B"/>
<path d="M4 3H5V4H4V3Z" fill="#4BF89B"/>
<path d="M5 2H6V3H5V2Z" fill="#4BF89B"/>
<path d="M20.3422 29V28.2422V27.4766V26.7188V25.9531V25.1953V24.4297V23.6719V22.9062V22.1484V21.3828V20.625V19.8594V19.1016V18.3359H21.1H21.8656V19.1016V19.8594V20.625V21.3828V22.1484V22.9062V23.6719V24.4297V25.1953V25.9531V26.7188V27.4766H22.6234H23.3891H24.1469H24.9125H25.6703H26.4359H27.1937H27.9594V28.2422V29H27.1937H26.4359H25.6703H24.9125H24.1469H23.3891H22.6234H21.8656H21.1H20.3422ZM29.9972 27.4766V26.7188V25.9531V25.1953V24.4297V23.6719V22.9062H30.755V22.1484H31.5206V21.3828H32.2784H33.0441H33.8019H34.5675H35.3253H36.0909V22.1484H36.8487V22.9062H37.6144V23.6719V24.4297V25.1953V25.9531H36.8487H36.0909H35.3253H34.5675H33.8019H33.0441H32.2784H31.5206V26.7188H32.2784V27.4766H33.0441H33.8019H34.5675H35.3253H36.0909V26.7188H36.8487H37.6144V27.4766V28.2422H36.8487V29H36.0909H35.3253H34.5675H33.8019H33.0441H32.2784H31.5206V28.2422H30.755V27.4766H29.9972ZM31.5206 24.4297H32.2784H33.0441H33.8019H34.5675H35.3253H36.0909V23.6719H35.3253V22.9062H34.5675H33.8019H33.0441H32.2784V23.6719H31.5206V24.4297ZM39.6522 25.9531V25.1953V24.4297V23.6719V22.9062V22.1484V21.3828H40.41H41.1756V22.1484V22.9062V23.6719V24.4297V25.1953H41.9334V25.9531H42.6991V26.7188H43.4569H44.2225V25.9531H44.9803V25.1953H45.7459V24.4297V23.6719V22.9062V22.1484V21.3828H46.5037H47.2694V22.1484V22.9062V23.6719V24.4297V25.1953V25.9531H46.5037V26.7188H45.7459V27.4766H44.9803V28.2422H44.2225V29H43.4569H42.6991V28.2422H41.9334V27.4766H41.1756V26.7188H40.41V25.9531H39.6522ZM49.3072 27.4766V26.7188V25.9531V25.1953V24.4297V23.6719V22.9062H50.065V22.1484H50.8306V21.3828H51.5884H52.3541H53.1119H53.8775H54.6353H55.4009V22.1484H56.1587V22.9062H56.9244V23.6719V24.4297V25.1953V25.9531H56.1587H55.4009H54.6353H53.8775H53.1119H52.3541H51.5884H50.8306V26.7188H51.5884V27.4766H52.3541H53.1119H53.8775H54.6353H55.4009V26.7188H56.1587H56.9244V27.4766V28.2422H56.1587V29H55.4009H54.6353H53.8775H53.1119H52.3541H51.5884H50.8306V28.2422H50.065V27.4766H49.3072ZM50.8306 24.4297H51.5884H52.3541H53.1119H53.8775H54.6353H55.4009V23.6719H54.6353V22.9062H53.8775H53.1119H52.3541H51.5884V23.6719H50.8306V24.4297ZM58.9622 19.8594V19.1016V18.3359H59.72H60.4856H61.2434V19.1016V19.8594V20.625V21.3828V22.1484V22.9062V23.6719V24.4297V25.1953V25.9531V26.7188V27.4766H62.0091V28.2422V29H61.2434H60.4856H59.72V28.2422V27.4766V26.7188V25.9531V25.1953V24.4297V23.6719V22.9062V22.1484V21.3828V20.625V19.8594H58.9622ZM64.8125 24.4297V23.6719V22.9062H65.5781H66.3359H67.1016H67.8594H68.625V23.6719V24.4297H67.8594H67.1016H66.3359H65.5781H64.8125ZM70.6628 27.4766V26.7188V25.9531H71.4206V25.1953H72.1862V24.4297H72.9441H73.7097H74.4675H75.2331H75.9909H76.7566V23.6719H75.9909V22.9062H75.2331H74.4675H73.7097H72.9441H72.1862H71.4206V22.1484V21.3828H72.1862H72.9441H73.7097H74.4675H75.2331H75.9909H76.7566V22.1484H77.5144V22.9062H78.28V23.6719V24.4297V25.1953V25.9531V26.7188V27.4766V28.2422V29H77.5144H76.7566V28.2422H75.9909V29H75.2331H74.4675H73.7097H72.9441H72.1862V28.2422H71.4206V27.4766H70.6628ZM72.9441 27.4766H73.7097H74.4675H75.2331H75.9909V26.7188H76.7566V25.9531H75.9909H75.2331H74.4675H73.7097H72.9441V26.7188V27.4766ZM80.3178 29V28.2422V27.4766V26.7188V25.9531V25.1953V24.4297V23.6719V22.9062V22.1484V21.3828V20.625V19.8594V19.1016V18.3359H81.0756H81.8412V19.1016V19.8594V20.625V21.3828V22.1484H82.5991V21.3828H83.3647H84.1225H84.8881H85.6459H86.4116V22.1484H87.1694V22.9062H87.935V23.6719V24.4297V25.1953V25.9531V26.7188V27.4766V28.2422V29H87.1694H86.4116V28.2422V27.4766V26.7188V25.9531V25.1953V24.4297V23.6719H85.6459V22.9062H84.8881H84.1225H83.3647H82.5991V23.6719H81.8412V24.4297V25.1953V25.9531V26.7188V27.4766V28.2422V29H81.0756H80.3178ZM89.9728 27.4766V26.7188V25.9531V25.1953V24.4297V23.6719V22.9062H90.7306V22.1484H91.4962V21.3828H92.2541H93.0197H93.7775H94.5431H95.3009H96.0666V22.1484H96.8244V22.9062H97.59V23.6719V24.4297V25.1953V25.9531H96.8244H96.0666H95.3009H94.5431H93.7775H93.0197H92.2541H91.4962V26.7188H92.2541V27.4766H93.0197H93.7775H94.5431H95.3009H96.0666V26.7188H96.8244H97.59V27.4766V28.2422H96.8244V29H96.0666H95.3009H94.5431H93.7775H93.0197H92.2541H91.4962V28.2422H90.7306V27.4766H89.9728ZM91.4962 24.4297H92.2541H93.0197H93.7775H94.5431H95.3009H96.0666V23.6719H95.3009V22.9062H94.5431H93.7775H93.0197H92.2541V23.6719H91.4962V24.4297ZM99.6278 27.4766V26.7188V25.9531H100.386V25.1953H101.151V24.4297H101.909H102.675H103.432H104.198H104.956H105.722V23.6719H104.956V22.9062H104.198H103.432H102.675H101.909H101.151H100.386V22.1484V21.3828H101.151H101.909H102.675H103.432H104.198H104.956H105.722V22.1484H106.479V22.9062H107.245V23.6719V24.4297V25.1953V25.9531V26.7188V27.4766V28.2422V29H106.479H105.722V28.2422H104.956V29H104.198H103.432H102.675H101.909H101.151V28.2422H100.386V27.4766H99.6278ZM101.909 27.4766H102.675H103.432H104.198H104.956V26.7188H105.722V25.9531H104.956H104.198H103.432H102.675H101.909V26.7188V27.4766ZM109.283 27.4766V26.7188V25.9531V25.1953V24.4297V23.6719V22.9062H110.041V22.1484H110.806V21.3828H111.564H112.33H113.088H113.853H114.611V22.1484H115.377V21.3828V20.625V19.8594V19.1016V18.3359H116.134H116.9V19.1016V19.8594V20.625V21.3828V22.1484V22.9062V23.6719V24.4297V25.1953V25.9531V26.7188V27.4766V28.2422V29H116.134H115.377H114.611H113.853H113.088H112.33H111.564H110.806V28.2422H110.041V27.4766H109.283ZM110.806 26.7188H111.564V27.4766H112.33H113.088H113.853H114.611H115.377V26.7188V25.9531V25.1953V24.4297V23.6719H114.611V22.9062H113.853H113.088H112.33H111.564V23.6719H110.806V24.4297V25.1953V25.9531V26.7188Z" fill="#FFEBD3"/>
</g>
<defs>
<clipPath id="clip0_2982_148">
<rect width="137" height="48" fill="white"/>
</clipPath>
</defs>
</svg>
