<svg width="181" height="35" viewBox="0 0 181 35" fill="none" xmlns="http://www.w3.org/2000/svg">
<g clip-path="url(#clip0_2215_2969)">
<path d="M6 1H7V0H415V2H6V1Z" fill="#FFEBD3" fill-opacity="0.4"/>
<path d="M175 34L174 34L174 35L-234 35L-234 33L175 33L175 34Z" fill="#FFEBD3" fill-opacity="0.4"/>
<path d="M180 29L180 28L181 28L181 -380L179 -380L179 29L180 29Z" fill="#FFEBD3" fill-opacity="0.4"/>
<path d="M1 6L1 7L-4.37114e-08 7L-1.7878e-05 415L1.99998 415L2 6L1 6Z" fill="#FFEBD3" fill-opacity="0.4"/>
<path d="M175 32H176V33H175V32Z" fill="#4BF89B"/>
<path d="M176 31H177V32H176V31Z" fill="#4BF89B"/>
<path d="M177 30H178V31H177V30Z" fill="#4BF89B"/>
<path d="M178 29H179V30H178V29Z" fill="#4BF89B"/>
<path d="M2 5H3V6H2V5Z" fill="#4BF89B"/>
<path d="M3 4H4V5H3V4Z" fill="#4BF89B"/>
<path d="M4 3H5V4H4V3Z" fill="#4BF89B"/>
<path d="M5 2H6V3H5V2Z" fill="#4BF89B"/>
<path d="M60.1562 20.5V19.9316V19.3574V18.7891V18.2148V17.6465V17.0723V16.5039V15.9297V15.3613V14.7871V14.2188V13.6445V13.0762V12.502H60.7245H61.2987H61.8671H62.4413H63.0097H63.5839H64.1523H64.7265H65.2948H65.8691V13.0762V13.6445H65.2948H64.7265H64.1523H63.5839H63.0097H62.4413H61.8671H61.2987V14.2188V14.7871V15.3613V15.9297H61.8671H62.4413H63.0097H63.5839H64.1523H64.7265V16.5039V17.0723H64.1523H63.5839H63.0097H62.4413H61.8671H61.2987V17.6465V18.2148V18.7891V19.3574H61.8671H62.4413H63.0097H63.5839H64.1523H64.7265H65.2948H65.8691V19.9316V20.5H65.2948H64.7265H64.1523H63.5839H63.0097H62.4413H61.8671H61.2987H60.7245H60.1562ZM67.3974 20.5V19.9316V19.3574V18.7891V18.2148V17.6465V17.0723V16.5039V15.9297V15.3613V14.7871H67.9658H68.54V15.3613H69.1084V14.7871H69.6826H70.2509H70.8252H71.3935V15.3613H71.9677H72.5361V14.7871H73.1103H73.6787H74.2529H74.8212H75.3955V15.3613H75.9638V15.9297H76.538V16.5039V17.0723V17.6465V18.2148V18.7891V19.3574V19.9316V20.5H75.9638H75.3955V19.9316V19.3574V18.7891V18.2148V17.6465V17.0723V16.5039H74.8212V15.9297H74.2529H73.6787H73.1103V16.5039H72.5361V17.0723V17.6465V18.2148V18.7891V19.3574V19.9316V20.5H71.9677H71.3935V19.9316V19.3574V18.7891V18.2148V17.6465V17.0723V16.5039H70.8252V15.9297H70.2509H69.6826H69.1084V16.5039H68.54V17.0723V17.6465V18.2148V18.7891V19.3574V19.9316V20.5H67.9658H67.3974ZM78.0723 19.3574V18.7891V18.2148H78.6406V17.6465H79.2148V17.0723H79.7832H80.3574H80.9258H81.5H82.0684H82.6426V16.5039H82.0684V15.9297H81.5H80.9258H80.3574H79.7832H79.2148H78.6406V15.3613V14.7871H79.2148H79.7832H80.3574H80.9258H81.5H82.0684H82.6426V15.3613H83.2109V15.9297H83.7852V16.5039V17.0723V17.6465V18.2148V18.7891V19.3574V19.9316V20.5H83.2109H82.6426V19.9316H82.0684V20.5H81.5H80.9258H80.3574H79.7832H79.2148V19.9316H78.6406V19.3574H78.0723ZM79.7832 19.3574H80.3574H80.9258H81.5H82.0684V18.7891H82.6426V18.2148H82.0684H81.5H80.9258H80.3574H79.7832V18.7891V19.3574ZM85.3135 20.5V19.9316V19.3574V18.7891V18.2148V17.6465V17.0723V16.5039V15.9297V15.3613V14.7871H85.8819H86.4561V15.3613V15.9297V16.5039V17.0723V17.6465V18.2148V18.7891V19.3574V19.9316V20.5H85.8819H85.3135ZM85.3135 13.6445V13.0762V12.502H85.8819H86.4561V13.0762V13.6445H85.8819H85.3135ZM87.9845 13.6445V13.0762V12.502H88.5528H89.127H89.6954V13.0762V13.6445V14.2188V14.7871V15.3613V15.9297V16.5039V17.0723V17.6465V18.2148V18.7891V19.3574H90.2696V19.9316V20.5H89.6954H89.127H88.5528V19.9316V19.3574V18.7891V18.2148V17.6465V17.0723V16.5039V15.9297V15.3613V14.7871V14.2188V13.6445H87.9845Z" fill="#FFEBD3"/>
<path fill-rule="evenodd" clip-rule="evenodd" d="M105.26 14.8635C105.25 15.2677 105.25 15.7265 105.25 16.25V17.75C105.25 19.8713 105.25 20.932 105.909 21.591C106.568 22.25 107.629 22.25 109.75 22.25H114.25C116.371 22.25 117.432 22.25 118.091 21.591C118.75 20.932 118.75 19.8713 118.75 17.75V16.25C118.75 15.7265 118.75 15.2677 118.74 14.8635L112.728 18.2033C112.275 18.455 111.725 18.455 111.272 18.2033L105.26 14.8635ZM105.432 13.2723C105.494 13.2879 105.556 13.3118 105.614 13.3444L112 16.892L118.386 13.3444C118.444 13.3118 118.506 13.2879 118.568 13.2723C118.47 12.9171 118.321 12.6387 118.091 12.409C117.432 11.75 116.371 11.75 114.25 11.75H109.75C107.629 11.75 106.568 11.75 105.909 12.409C105.679 12.6387 105.53 12.9171 105.432 13.2723Z" fill="#FFEBD3"/>
</g>
<defs>
<clipPath id="clip0_2215_2969">
<rect width="181" height="35" fill="white"/>
</clipPath>
</defs>
</svg>
