<svg width="181" height="35" viewBox="0 0 181 35" fill="none" xmlns="http://www.w3.org/2000/svg">
<g clip-path="url(#clip0_2215_2991)">
<path d="M6 1H7V0H415V2H6V1Z" fill="#FFEBD3" fill-opacity="0.4"/>
<path d="M175 34L174 34L174 35L-234 35L-234 33L175 33L175 34Z" fill="#FFEBD3" fill-opacity="0.4"/>
<path d="M180 29L180 28L181 28L181 -380L179 -380L179 29L180 29Z" fill="#FFEBD3" fill-opacity="0.4"/>
<path d="M1 6L1 7L-4.37114e-08 7L-1.7878e-05 415L1.99998 415L2 6L1 6Z" fill="#FFEBD3" fill-opacity="0.4"/>
<path d="M175 32H176V33H175V32Z" fill="#4BF89B"/>
<path d="M176 31H177V32H176V31Z" fill="#4BF89B"/>
<path d="M177 30H178V31H177V30Z" fill="#4BF89B"/>
<path d="M178 29H179V30H178V29Z" fill="#4BF89B"/>
<path d="M2 5H3V6H2V5Z" fill="#4BF89B"/>
<path d="M3 4H4V5H3V4Z" fill="#4BF89B"/>
<path d="M4 3H5V4H4V3Z" fill="#4BF89B"/>
<path d="M5 2H6V3H5V2Z" fill="#4BF89B"/>
<path d="M53.3666 20.5V19.9316V19.3574V18.7891V18.2148V17.6465V17.0723V16.5039V15.9297V15.3613V14.7871V14.2188V13.6445V13.0762V12.502H53.9349H54.5091V13.0762V13.6445V14.2188V14.7871V15.3613V15.9297V16.5039V17.0723V17.6465V18.2148V18.7891V19.3574H55.0775H55.6517H56.2201H56.7943H57.3627H57.9369H58.5052H59.0795V19.9316V20.5H58.5052H57.9369H57.3627H56.7943H56.2201H55.6517H55.0775H54.5091H53.9349H53.3666ZM60.6078 20.5V19.9316V19.3574V18.7891V18.2148V17.6465V17.0723V16.5039V15.9297V15.3613V14.7871H61.1762H61.7504V15.3613V15.9297V16.5039V17.0723V17.6465V18.2148V18.7891V19.3574V19.9316V20.5H61.1762H60.6078ZM60.6078 13.6445V13.0762V12.502H61.1762H61.7504V13.0762V13.6445H61.1762H60.6078ZM63.2787 20.5V19.9316V19.3574V18.7891V18.2148V17.6465V17.0723V16.5039V15.9297V15.3613V14.7871H63.8471H64.4213V15.3613H64.9897V14.7871H65.5639H66.1323H66.7065H67.2748H67.8491V15.3613H68.4174V15.9297H68.9916V16.5039V17.0723V17.6465V18.2148V18.7891V19.3574V19.9316V20.5H68.4174H67.8491V19.9316V19.3574V18.7891V18.2148V17.6465V17.0723V16.5039H67.2748V15.9297H66.7065H66.1323H65.5639H64.9897V16.5039H64.4213V17.0723V17.6465V18.2148V18.7891V19.3574V19.9316V20.5H63.8471H63.2787ZM70.52 20.5V19.9316V19.3574V18.7891V18.2148V17.6465V17.0723V16.5039V15.9297V15.3613V14.7871V14.2188V13.6445V13.0762V12.502H71.0884H71.6626V13.0762V13.6445V14.2188V14.7871V15.3613V15.9297V16.5039V17.0723H72.2309H72.8052V16.5039H73.3735V15.9297H73.9477V15.3613H74.5161V14.7871H75.0903H75.6587V15.3613V15.9297H75.0903V16.5039H74.5161V17.0723H73.9477V17.6465H74.5161V18.2148H75.0903V18.7891H75.6587V19.3574V19.9316V20.5H75.0903H74.5161V19.9316V19.3574H73.9477V18.7891H73.3735V18.2148H72.8052H72.2309H71.6626V18.7891V19.3574V19.9316V20.5H71.0884H70.52ZM77.1987 19.3574V18.7891V18.2148V17.6465V17.0723V16.5039V15.9297H77.7671V15.3613H78.3413V14.7871H78.9097H79.4839H80.0523H80.6265H81.1948H81.7691V15.3613H82.3374V15.9297H82.9116V16.5039V17.0723V17.6465V18.2148H82.3374H81.7691H81.1948H80.6265H80.0523H79.4839H78.9097H78.3413V18.7891H78.9097V19.3574H79.4839H80.0523H80.6265H81.1948H81.7691V18.7891H82.3374H82.9116V19.3574V19.9316H82.3374V20.5H81.7691H81.1948H80.6265H80.0523H79.4839H78.9097H78.3413V19.9316H77.7671V19.3574H77.1987ZM78.3413 17.0723H78.9097H79.4839H80.0523H80.6265H81.1948H81.7691V16.5039H81.1948V15.9297H80.6265H80.0523H79.4839H78.9097V16.5039H78.3413V17.0723ZM84.44 19.3574V18.7891V18.2148V17.6465V17.0723V16.5039V15.9297H85.0084V15.3613H85.5826V14.7871H86.1509H86.7252H87.2935H87.8677H88.4361V15.3613H89.0103V14.7871V14.2188V13.6445V13.0762V12.502H89.5787H90.1529V13.0762V13.6445V14.2188V14.7871V15.3613V15.9297V16.5039V17.0723V17.6465V18.2148V18.7891V19.3574V19.9316V20.5H89.5787H89.0103H88.4361H87.8677H87.2935H86.7252H86.1509H85.5826V19.9316H85.0084V19.3574H84.44ZM85.5826 18.7891H86.1509V19.3574H86.7252H87.2935H87.8677H88.4361H89.0103V18.7891V18.2148V17.6465V17.0723V16.5039H88.4361V15.9297H87.8677H87.2935H86.7252H86.1509V16.5039H85.5826V17.0723V17.6465V18.2148V18.7891ZM91.6812 20.5V19.9316V19.3574V18.7891V18.2148V17.6465V17.0723V16.5039V15.9297V15.3613V14.7871V14.2188V13.6445V13.0762V12.502H92.2496H92.8238V13.0762V13.6445V14.2188V14.7871V15.3613V15.9297V16.5039V17.0723V17.6465V18.2148V18.7891V19.3574V19.9316V20.5H92.2496H91.6812ZM94.3522 20.5V19.9316V19.3574V18.7891V18.2148V17.6465V17.0723V16.5039V15.9297V15.3613V14.7871H94.9205H95.4948V15.3613H96.0631V14.7871H96.6373H97.2057H97.7799H98.3483H98.9225V15.3613H99.4909V15.9297H100.065V16.5039V17.0723V17.6465V18.2148V18.7891V19.3574V19.9316V20.5H99.4909H98.9225V19.9316V19.3574V18.7891V18.2148V17.6465V17.0723V16.5039H98.3483V15.9297H97.7799H97.2057H96.6373H96.0631V16.5039H95.4948V17.0723V17.6465V18.2148V18.7891V19.3574V19.9316V20.5H94.9205H94.3522Z" fill="#FFEBD3"/>
<g clip-path="url(#clip1_2215_2991)">
<path d="M127.816 9H114.181C113.528 9 113 9.51563 113 10.1531V23.8438C113 24.4813 113.528 25 114.181 25H127.816C128.469 25 129 24.4813 129 23.8469V10.1531C129 9.51563 128.469 9 127.816 9ZM117.747 22.6344H115.372V14.9969H117.747V22.6344ZM116.559 13.9563C115.797 13.9563 115.181 13.3406 115.181 12.5812C115.181 11.8219 115.797 11.2062 116.559 11.2062C117.319 11.2062 117.934 11.8219 117.934 12.5812C117.934 13.3375 117.319 13.9563 116.559 13.9563ZM126.634 22.6344H124.262V18.9219C124.262 18.0375 124.247 16.8969 123.028 16.8969C121.794 16.8969 121.606 17.8625 121.606 18.8594V22.6344H119.238V14.9969H121.512V16.0406H121.544C121.859 15.4406 122.634 14.8063 123.788 14.8063C126.191 14.8063 126.634 16.3875 126.634 18.4438V22.6344Z" fill="#FFEBD3"/>
</g>
</g>
<defs>
<clipPath id="clip0_2215_2991">
<rect width="181" height="35" fill="white"/>
</clipPath>
<clipPath id="clip1_2215_2991">
<rect width="16" height="16" fill="white" transform="translate(113 9)"/>
</clipPath>
</defs>
</svg>
