<svg width="417" height="67" viewBox="0 0 417 67" fill="none" xmlns="http://www.w3.org/2000/svg">
<rect x="20" width="392" height="5" fill="#FFF0D5"/>
<rect x="5" y="62" width="392" height="5" fill="#FFF0D5"/>
<rect x="412" y="5" width="5" height="41" fill="#FFF0D5"/>
<rect x="406" y="10" width="6" height="26" fill="#00001F"/>
<rect x="401" y="31" width="5" height="11" fill="#00001F"/>
<rect x="396" y="36" width="5" height="11" fill="#00001F"/>
<rect x="391" y="41" width="5" height="11" fill="#00001F"/>
<rect x="386" y="46" width="5" height="11" fill="#00001F"/>
<rect x="381" y="51" width="5" height="11" fill="#00001F"/>
<rect x="10" y="56" width="371" height="6" fill="#00001F"/>
<rect y="21" width="5" height="41" fill="#FFF0D5"/>
<rect x="5" y="26" width="5" height="5" fill="#4BF89B"/>
<rect x="386" y="57" width="5" height="5" fill="#4BF89B"/>
<rect x="10" y="21" width="5" height="5" fill="#4BF89B"/>
<rect x="391" y="52" width="5" height="5" fill="#4BF89B"/>
<rect x="15" y="16" width="5" height="5" fill="#4BF89B"/>
<rect x="396" y="47" width="5" height="5" fill="#4BF89B"/>
<rect x="20" y="11" width="5" height="5" fill="#4BF89B"/>
<rect x="401" y="42" width="5" height="5" fill="#4BF89B"/>
<rect x="25" y="5" width="6" height="6" fill="#4BF89B"/>
<rect x="406" y="36" width="6" height="6" fill="#4BF89B"/>
<rect x="5" y="31" width="5" height="31" fill="#00001F"/>
<rect x="10" y="26" width="5" height="10" fill="#00001F"/>
<rect x="15" y="21" width="5" height="10" fill="#00001F"/>
<rect x="20" y="16" width="5" height="10" fill="#00001F"/>
<rect x="25" y="11" width="6" height="10" fill="#00001F"/>
<rect x="31" y="5" width="5" height="10" fill="#00001F"/>
<rect x="36" y="5" width="376" height="5" fill="#00001F"/>
</svg>
