<svg width="372" height="60" viewBox="0 0 372 60" fill="none" xmlns="http://www.w3.org/2000/svg">
<mask id="path-1-inside-1_1023_39810" fill="white">
<path d="M0 0H372V60H0V0Z"/>
</mask>
<path d="M372 59H0V61H372V59Z" fill="#FFEBD3" fill-opacity="0.7" mask="url(#path-1-inside-1_1023_39810)"/>
<path d="M148.576 31L142.528 20.44V19.032H143.232C144.363 19.032 145.312 18.9253 146.08 18.712C146.869 18.4987 147.488 18.1467 147.936 17.656C148.384 17.1653 148.651 16.4933 148.736 15.64H142.528V13.592H148.704C148.555 12.8027 148.256 12.1627 147.808 11.672C147.36 11.16 146.752 10.7867 145.984 10.552C145.237 10.3173 144.32 10.2 143.232 10.2H142.528V8.152H155.776V10.2H149.728C150.219 10.6053 150.624 11.0853 150.944 11.64C151.264 12.1947 151.467 12.8453 151.552 13.592H155.776V15.64H151.616C151.467 17.1973 150.869 18.4133 149.824 19.288C148.8 20.1413 147.435 20.6853 145.728 20.92L151.84 31H148.576ZM169.938 28.0938V26.6406V25.1875V23.7344V22.2812V20.8281H171.391V19.375H172.844V17.9219H171.391V16.4688H169.938V15V13.5469V12.0938V10.6406H171.391V9.1875H172.844V7.73438H174.297H175.75H177.203H178.656H180.109H181.562H183.016H184.469H185.938V9.1875H187.391V10.6406H188.844V12.0938V13.5469V15V16.4688H187.391V17.9219H185.938V19.375H187.391V20.8281H188.844V22.2812V23.7344V25.1875V26.6406V28.0938H187.391V29.5469H185.938V31H184.469H183.016H181.562H180.109H178.656H177.203H175.75H174.297H172.844V29.5469H171.391V28.0938H169.938ZM177.203 28.0938H178.656V29.5469H180.109V28.0938H181.562V26.6406V25.1875V23.7344V22.2812V20.8281H180.109V19.375H178.656V20.8281H177.203V22.2812V23.7344V25.1875V26.6406V28.0938ZM177.203 16.4688H178.656V17.9219H180.109V16.4688H181.562V15V13.5469V12.0938V10.6406H180.109V9.1875H178.656V10.6406H177.203V12.0938V13.5469V15V16.4688ZM190.312 28.0938V26.6406V25.1875V23.7344V22.2812V20.8281V19.375V17.9219V16.4688V15V13.5469V12.0938V10.6406H191.766V9.1875H193.219V7.73438H194.672H196.125H197.578H199.031H200.484H201.938H203.391H204.844H206.312V9.1875H207.766V10.6406H209.219V12.0938V13.5469V15V16.4688V17.9219V19.375V20.8281V22.2812V23.7344V25.1875V26.6406V28.0938H207.766V29.5469H206.312V31H204.844H203.391H201.938H200.484H199.031H197.578H196.125H194.672H193.219V29.5469H191.766V28.0938H190.312ZM197.578 28.0938H199.031V29.5469H200.484V28.0938H201.938V26.6406V25.1875V23.7344V22.2812V20.8281V19.375V17.9219V16.4688V15V13.5469V12.0938V10.6406H200.484V9.1875H199.031V10.6406H197.578V12.0938V13.5469V15V16.4688V17.9219V19.375V20.8281V22.2812V23.7344V25.1875V26.6406V28.0938ZM210.688 28.0938V26.6406V25.1875V23.7344V22.2812V20.8281V19.375V17.9219V16.4688V15V13.5469V12.0938V10.6406H212.141V9.1875H213.594V7.73438H215.047H216.5H217.953H219.406H220.859H222.312H223.766H225.219H226.688V9.1875H228.141V10.6406H229.594V12.0938V13.5469V15V16.4688V17.9219V19.375V20.8281V22.2812V23.7344V25.1875V26.6406V28.0938H228.141V29.5469H226.688V31H225.219H223.766H222.312H220.859H219.406H217.953H216.5H215.047H213.594V29.5469H212.141V28.0938H210.688ZM217.953 28.0938H219.406V29.5469H220.859V28.0938H222.312V26.6406V25.1875V23.7344V22.2812V20.8281V19.375V17.9219V16.4688V15V13.5469V12.0938V10.6406H220.859V9.1875H219.406V10.6406H217.953V12.0938V13.5469V15V16.4688V17.9219V19.375V20.8281V22.2812V23.7344V25.1875V26.6406V28.0938Z" fill="#FFEBD3"/>
<path d="M140.568 45.5723V45.0039V44.4297H141.143H141.711H142.285V43.8613V43.2871V42.7188H142.854H143.428V43.2871V43.8613V44.4297H143.996H144.57H145.139V45.0039V45.5723H144.57H143.996H143.428V46.1465V46.7148V47.2891H142.854H142.285V46.7148V46.1465V45.5723H141.711H141.143H140.568ZM150.071 49L147.803 45.04V44.512H148.067C148.491 44.512 148.847 44.472 149.135 44.392C149.431 44.312 149.663 44.18 149.831 43.996C149.999 43.812 150.099 43.56 150.131 43.24H147.803V42.472H150.119C150.063 42.176 149.951 41.936 149.783 41.752C149.615 41.56 149.387 41.42 149.099 41.332C148.819 41.244 148.475 41.2 148.067 41.2H147.803V40.432H152.771V41.2H150.503C150.687 41.352 150.839 41.532 150.959 41.74C151.079 41.948 151.155 42.192 151.187 42.472H152.771V43.24H151.211C151.155 43.824 150.931 44.28 150.539 44.608C150.155 44.928 149.643 45.132 149.003 45.22L151.295 49H150.071ZM153.723 47.8574V47.2891V46.7148V46.1465V45.5723H154.291V45.0039V44.4297H153.723V43.8613V43.2871V42.7188V42.1445H154.291V41.5762H154.865V41.002H155.434H156.008H156.576H157.15H157.719H158.293V41.5762H158.861V42.1445H159.436V42.7188V43.2871V43.8613V44.4297H158.861V45.0039V45.5723H159.436V46.1465V46.7148V47.2891V47.8574H158.861V48.4316H158.293V49H157.719H157.15H156.576H156.008H155.434H154.865V48.4316H154.291V47.8574H153.723ZM154.865 47.2891H155.434V47.8574H156.008H156.576H157.15H157.719V47.2891H158.293V46.7148V46.1465H157.719V45.5723H157.15H156.576H156.008H155.434V46.1465H154.865V46.7148V47.2891ZM154.865 43.8613H155.434V44.4297H156.008H156.576H157.15H157.719V43.8613H158.293V43.2871V42.7188H157.719V42.1445H157.15H156.576H156.008H155.434V42.7188H154.865V43.2871V43.8613ZM160.578 47.8574V47.2891V46.7148V46.1465V45.5723V45.0039V44.4297V43.8613V43.2871V42.7188V42.1445H161.146V41.5762H161.721V41.002H162.289H162.863H163.432H164.006H164.574H165.148V41.5762H165.717V42.1445H166.291V42.7188V43.2871V43.8613V44.4297V45.0039V45.5723V46.1465V46.7148V47.2891V47.8574H165.717V48.4316H165.148V49H164.574H164.006H163.432H162.863H162.289H161.721V48.4316H161.146V47.8574H160.578ZM161.721 47.2891H162.289V47.8574H162.863H163.432H164.006H164.574V47.2891H165.148V46.7148V46.1465V45.5723V45.0039V44.4297V43.8613V43.2871V42.7188H164.574V42.1445H164.006H163.432H162.863H162.289V42.7188H161.721V43.2871V43.8613V44.4297V45.0039V45.5723V46.1465V46.7148V47.2891ZM162.863 46.1465V45.5723V45.0039V44.4297V43.8613H163.432H164.006V44.4297V45.0039V45.5723V46.1465H163.432H162.863ZM172.004 49.5742V49V48.4316H172.572V47.8574V47.2891V46.7148V46.1465V45.5723H172.004V45.0039V44.4297H172.572V43.8613V43.2871V42.7188V42.1445H173.146V41.5762H173.715V41.002H174.289H174.857H175.432V41.5762V42.1445H174.857H174.289V42.7188H173.715V43.2871V43.8613V44.4297H174.289H174.857H175.432V45.0039V45.5723H174.857H174.289H173.715V46.1465V46.7148V47.2891V47.8574V48.4316V49H173.146V49.5742H172.572H172.004ZM176 47.8574V47.2891V46.7148V46.1465V45.5723V45.0039V44.4297H176.568V43.8613H177.143V43.2871H177.711H178.285H178.854H179.428H179.996H180.57V43.8613H181.139V44.4297H181.713V45.0039V45.5723V46.1465V46.7148V47.2891V47.8574H181.139V48.4316H180.57V49H179.996H179.428H178.854H178.285H177.711H177.143V48.4316H176.568V47.8574H176ZM177.143 47.2891H177.711V47.8574H178.285H178.854H179.428H179.996V47.2891H180.57V46.7148V46.1465V45.5723V45.0039H179.996V44.4297H179.428H178.854H178.285H177.711V45.0039H177.143V45.5723V46.1465V46.7148V47.2891ZM182.281 49V48.4316V47.8574V47.2891V46.7148V46.1465V45.5723V45.0039V44.4297V43.8613V43.2871H182.85H183.424V43.8613H183.992V43.2871H184.566H185.135H185.709V43.8613H186.277V44.4297V45.0039H185.709H185.135V44.4297H184.566H183.992V45.0039H183.424V45.5723V46.1465V46.7148V47.2891V47.8574V48.4316V49H182.85H182.281ZM191.422 47.8574V47.2891V46.7148V46.1465V45.5723V45.0039V44.4297H191.99V43.8613H192.564V43.2871H193.133H193.707H194.275H194.85H195.418V43.8613H195.992V43.2871V42.7188V42.1445V41.5762V41.002H196.561H197.135V41.5762V42.1445V42.7188V43.2871V43.8613V44.4297V45.0039V45.5723V46.1465V46.7148V47.2891V47.8574V48.4316V49H196.561H195.992H195.418H194.85H194.275H193.707H193.133H192.564V48.4316H191.99V47.8574H191.422ZM192.564 47.2891H193.133V47.8574H193.707H194.275H194.85H195.418H195.992V47.2891V46.7148V46.1465V45.5723V45.0039H195.418V44.4297H194.85H194.275H193.707H193.133V45.0039H192.564V45.5723V46.1465V46.7148V47.2891ZM197.703 47.8574V47.2891V46.7148V46.1465V45.5723V45.0039V44.4297H198.271V43.8613H198.846V43.2871H199.414H199.988H200.557H201.131H201.699H202.273V43.8613H202.842V44.4297H203.416V45.0039V45.5723V46.1465V46.7148H202.842H202.273H201.699H201.131H200.557H199.988H199.414H198.846V47.2891H199.414V47.8574H199.988H200.557H201.131H201.699H202.273V47.2891H202.842H203.416V47.8574V48.4316H202.842V49H202.273H201.699H201.131H200.557H199.988H199.414H198.846V48.4316H198.271V47.8574H197.703ZM198.846 45.5723H199.414H199.988H200.557H201.131H201.699H202.273V45.0039H201.699V44.4297H201.131H200.557H199.988H199.414V45.0039H198.846V45.5723ZM203.984 42.1445V41.5762V41.002H204.553H205.127H205.695V41.5762V42.1445V42.7188V43.2871V43.8613V44.4297V45.0039V45.5723V46.1465V46.7148V47.2891V47.8574H206.27V48.4316V49H205.695H205.127H204.553V48.4316V47.8574V47.2891V46.7148V46.1465V45.5723V45.0039V44.4297V43.8613V43.2871V42.7188V42.1445H203.984ZM206.844 49V48.4316V47.8574V47.2891V46.7148V46.1465V45.5723V45.0039V44.4297V43.8613V43.2871H207.412H207.986V43.8613V44.4297V45.0039V45.5723V46.1465V46.7148V47.2891V47.8574V48.4316V49H207.412H206.844ZM206.844 42.1445V41.5762V41.002H207.412H207.986V41.5762V42.1445H207.412H206.844ZM208.555 46.7148V46.1465V45.5723V45.0039V44.4297V43.8613V43.2871H209.123H209.697V43.8613V44.4297V45.0039V45.5723V46.1465H210.266V46.7148H210.84V47.2891H211.408H211.982V46.7148H212.551V46.1465H213.125V45.5723V45.0039V44.4297V43.8613V43.2871H213.693H214.268V43.8613V44.4297V45.0039V45.5723V46.1465V46.7148H213.693V47.2891H213.125V47.8574H212.551V48.4316H211.982V49H211.408H210.84V48.4316H210.266V47.8574H209.697V47.2891H209.123V46.7148H208.555ZM214.836 47.8574V47.2891V46.7148V46.1465V45.5723V45.0039V44.4297H215.404V43.8613H215.979V43.2871H216.547H217.121H217.689H218.264H218.832H219.406V43.8613H219.975V44.4297H220.549V45.0039V45.5723V46.1465V46.7148H219.975H219.406H218.832H218.264H217.689H217.121H216.547H215.979V47.2891H216.547V47.8574H217.121H217.689H218.264H218.832H219.406V47.2891H219.975H220.549V47.8574V48.4316H219.975V49H219.406H218.832H218.264H217.689H217.121H216.547H215.979V48.4316H215.404V47.8574H214.836ZM215.979 45.5723H216.547H217.121H217.689H218.264H218.832H219.406V45.0039H218.832V44.4297H218.264H217.689H217.121H216.547V45.0039H215.979V45.5723ZM221.117 49V48.4316V47.8574V47.2891V46.7148V46.1465V45.5723V45.0039V44.4297V43.8613V43.2871H221.686H222.26V43.8613H222.828V43.2871H223.402H223.971H224.545V43.8613H225.113V44.4297V45.0039H224.545H223.971V44.4297H223.402H222.828V45.0039H222.26V45.5723V46.1465V46.7148V47.2891V47.8574V48.4316V49H221.686H221.117ZM225.688 45.0039V44.4297V43.8613V43.2871H226.256H226.83V43.8613V44.4297H227.398V45.0039V45.5723H227.973V46.1465V46.7148H228.541H229.115V46.1465V45.5723H229.684V45.0039V44.4297H230.258V43.8613V43.2871H230.826H231.4V43.8613V44.4297V45.0039H230.826V45.5723V46.1465H230.258V46.7148V47.2891H229.684V47.8574V48.4316H229.115V49V49.5742H228.541V50.1484V50.7168H227.973V51.291H227.398H226.83H226.256V50.7168V50.1484H226.83H227.398V49.5742V49H227.973V48.4316H227.398V47.8574V47.2891H226.83V46.7148V46.1465H226.256V45.5723V45.0039H225.688Z" fill="#FFEBD3" fill-opacity="0.7"/>
</svg>
