<svg width="181" height="35" viewBox="0 0 181 35" fill="none" xmlns="http://www.w3.org/2000/svg">
<g clip-path="url(#clip0_2215_2980)">
<path d="M6 1H7V0H415V2H6V1Z" fill="#FFEBD3" fill-opacity="0.4"/>
<path d="M175 34L174 34L174 35L-234 35L-234 33L175 33L175 34Z" fill="#FFEBD3" fill-opacity="0.4"/>
<path d="M180 29L180 28L181 28L181 -380L179 -380L179 29L180 29Z" fill="#FFEBD3" fill-opacity="0.4"/>
<path d="M1 6L1 7L-4.37114e-08 7L-1.7878e-05 415L1.99998 415L2 6L1 6Z" fill="#FFEBD3" fill-opacity="0.4"/>
<path d="M175 32H176V33H175V32Z" fill="#4BF89B"/>
<path d="M176 31H177V32H176V31Z" fill="#4BF89B"/>
<path d="M177 30H178V31H177V30Z" fill="#4BF89B"/>
<path d="M178 29H179V30H178V29Z" fill="#4BF89B"/>
<path d="M2 5H3V6H2V5Z" fill="#4BF89B"/>
<path d="M3 4H4V5H3V4Z" fill="#4BF89B"/>
<path d="M4 3H5V4H4V3Z" fill="#4BF89B"/>
<path d="M5 2H6V3H5V2Z" fill="#4BF89B"/>
<path d="M34.0891 20.5V19.9316V19.3574V18.7891V18.2148V17.6465V17.0723V16.5039V15.9297V15.3613V14.7871V14.2188V13.6445V13.0762V12.502H34.6575H35.2317H35.8001H36.3743H36.9427H37.5169H38.0852H38.6595V13.0762H39.2278V13.6445V14.2188V14.7871V15.3613V15.9297V16.5039H38.6595V17.0723H38.0852H37.5169H36.9427H36.3743H35.8001H35.2317V17.6465V18.2148V18.7891V19.3574V19.9316V20.5H34.6575H34.0891ZM35.2317 15.9297H35.8001H36.3743H36.9427H37.5169H38.0852V15.3613V14.7871V14.2188V13.6445H37.5169H36.9427H36.3743H35.8001H35.2317V14.2188V14.7871V15.3613V15.9297ZM40.7679 20.5V19.9316V19.3574V18.7891V18.2148V17.6465V17.0723V16.5039V15.9297V15.3613V14.7871V14.2188V13.6445V13.0762V12.502H41.3363H41.9105V13.0762V13.6445V14.2188V14.7871V15.3613H42.4788V14.7871H43.053H43.6214H44.1956H44.764H45.3382V15.3613H45.9066V15.9297H46.4808V16.5039V17.0723V17.6465V18.2148V18.7891V19.3574V19.9316V20.5H45.9066H45.3382V19.9316V19.3574V18.7891V18.2148V17.6465V17.0723V16.5039H44.764V15.9297H44.1956H43.6214H43.053H42.4788V16.5039H41.9105V17.0723V17.6465V18.2148V18.7891V19.3574V19.9316V20.5H41.3363H40.7679ZM48.0091 19.3574V18.7891V18.2148V17.6465V17.0723V16.5039V15.9297H48.5775V15.3613H49.1517V14.7871H49.7201H50.2943H50.8627H51.4369H52.0052H52.5795V15.3613H53.1478V15.9297H53.722V16.5039V17.0723V17.6465V18.2148V18.7891V19.3574H53.1478V19.9316H52.5795V20.5H52.0052H51.4369H50.8627H50.2943H49.7201H49.1517V19.9316H48.5775V19.3574H48.0091ZM49.1517 18.7891H49.7201V19.3574H50.2943H50.8627H51.4369H52.0052V18.7891H52.5795V18.2148V17.6465V17.0723V16.5039H52.0052V15.9297H51.4369H50.8627H50.2943H49.7201V16.5039H49.1517V17.0723V17.6465V18.2148V18.7891ZM55.2504 20.5V19.9316V19.3574V18.7891V18.2148V17.6465V17.0723V16.5039V15.9297V15.3613V14.7871H55.8188H56.393V15.3613H56.9613V14.7871H57.5355H58.1039H58.6781H59.2465H59.8207V15.3613H60.3891V15.9297H60.9633V16.5039V17.0723V17.6465V18.2148V18.7891V19.3574V19.9316V20.5H60.3891H59.8207V19.9316V19.3574V18.7891V18.2148V17.6465V17.0723V16.5039H59.2465V15.9297H58.6781H58.1039H57.5355H56.9613V16.5039H56.393V17.0723V17.6465V18.2148V18.7891V19.3574V19.9316V20.5H55.8188H55.2504ZM62.4916 19.3574V18.7891V18.2148V17.6465V17.0723V16.5039V15.9297H63.06V15.3613H63.6342V14.7871H64.2026H64.7768H65.3452H65.9194H66.4877H67.062V15.3613H67.6303V15.9297H68.2045V16.5039V17.0723V17.6465V18.2148H67.6303H67.062H66.4877H65.9194H65.3452H64.7768H64.2026H63.6342V18.7891H64.2026V19.3574H64.7768H65.3452H65.9194H66.4877H67.062V18.7891H67.6303H68.2045V19.3574V19.9316H67.6303V20.5H67.062H66.4877H65.9194H65.3452H64.7768H64.2026H63.6342V19.9316H63.06V19.3574H62.4916ZM63.6342 17.0723H64.2026H64.7768H65.3452H65.9194H66.4877H67.062V16.5039H66.4877V15.9297H65.9194H65.3452H64.7768H64.2026V16.5039H63.6342V17.0723ZM75.2632 20.5V19.9316V19.3574V18.7891V18.2148V17.6465V17.0723V16.5039V15.9297V15.3613V14.7871V14.2188V13.6445V13.0762V12.502H75.8316H76.4058H76.9741V13.0762V13.6445H77.5484V14.2188V14.7871H78.1167V15.3613V15.9297H78.6909V16.5039V17.0723H79.2593V17.6465V18.2148H79.8335V17.6465V17.0723V16.5039V15.9297V15.3613V14.7871V14.2188V13.6445V13.0762V12.502H80.4019H80.9761V13.0762V13.6445V14.2188V14.7871V15.3613V15.9297V16.5039V17.0723V17.6465V18.2148V18.7891V19.3574V19.9316V20.5H80.4019H79.8335H79.2593V19.9316V19.3574H78.6909V18.7891V18.2148H78.1167V17.6465V17.0723H77.5484V16.5039V15.9297H76.9741V15.3613V14.7871H76.4058V15.3613V15.9297V16.5039V17.0723V17.6465V18.2148V18.7891V19.3574V19.9316V20.5H75.8316H75.2632ZM82.5045 19.9316V19.3574V18.7891V18.2148V17.6465V17.0723V16.5039V15.9297V15.3613V14.7871H83.0728H83.647V15.3613V15.9297V16.5039V17.0723V17.6465V18.2148V18.7891V19.3574H84.2154H84.7896H85.358H85.9322V18.7891H86.5005V18.2148V17.6465V17.0723V16.5039V15.9297V15.3613V14.7871H87.0748H87.6431V15.3613V15.9297V16.5039V17.0723V17.6465V18.2148V18.7891V19.3574V19.9316V20.5H87.0748H86.5005V19.9316H85.9322V20.5H85.358H84.7896H84.2154H83.647H83.0728V19.9316H82.5045ZM89.1832 20.5V19.9316V19.3574V18.7891V18.2148V17.6465V17.0723V16.5039V15.9297V15.3613V14.7871H89.7516H90.3258V15.3613H90.8941V14.7871H91.4684H92.0367H92.6109H93.1793V15.3613H93.7535H94.3219V14.7871H94.8961H95.4645H96.0387H96.607H97.1813V15.3613H97.7496V15.9297H98.3238V16.5039V17.0723V17.6465V18.2148V18.7891V19.3574V19.9316V20.5H97.7496H97.1813V19.9316V19.3574V18.7891V18.2148V17.6465V17.0723V16.5039H96.607V15.9297H96.0387H95.4645H94.8961V16.5039H94.3219V17.0723V17.6465V18.2148V18.7891V19.3574V19.9316V20.5H93.7535H93.1793V19.9316V19.3574V18.7891V18.2148V17.6465V17.0723V16.5039H92.6109V15.9297H92.0367H91.4684H90.8941V16.5039H90.3258V17.0723V17.6465V18.2148V18.7891V19.3574V19.9316V20.5H89.7516H89.1832ZM99.858 20.5V19.9316V19.3574V18.7891V18.2148V17.6465V17.0723V16.5039V15.9297V15.3613V14.7871V14.2188V13.6445V13.0762V12.502H100.426H101.001V13.0762V13.6445V14.2188V14.7871V15.3613H101.569V14.7871H102.143H102.712H103.286H103.854H104.428V15.3613H104.997V15.9297H105.571V16.5039V17.0723V17.6465V18.2148V18.7891V19.3574H104.997V19.9316H104.428V20.5H103.854H103.286H102.712H102.143H101.569H101.001H100.426H99.858ZM101.001 19.3574H101.569H102.143H102.712H103.286H103.854V18.7891H104.428V18.2148V17.6465V17.0723V16.5039H103.854V15.9297H103.286H102.712H102.143H101.569V16.5039H101.001V17.0723V17.6465V18.2148V18.7891V19.3574ZM107.099 19.3574V18.7891V18.2148V17.6465V17.0723V16.5039V15.9297H107.668V15.3613H108.242V14.7871H108.81H109.384H109.953H110.527H111.095H111.67V15.3613H112.238V15.9297H112.812V16.5039V17.0723V17.6465V18.2148H112.238H111.67H111.095H110.527H109.953H109.384H108.81H108.242V18.7891H108.81V19.3574H109.384H109.953H110.527H111.095H111.67V18.7891H112.238H112.812V19.3574V19.9316H112.238V20.5H111.67H111.095H110.527H109.953H109.384H108.81H108.242V19.9316H107.668V19.3574H107.099ZM108.242 17.0723H108.81H109.384H109.953H110.527H111.095H111.67V16.5039H111.095V15.9297H110.527H109.953H109.384H108.81V16.5039H108.242V17.0723ZM114.341 20.5V19.9316V19.3574V18.7891V18.2148V17.6465V17.0723V16.5039V15.9297V15.3613V14.7871H114.909H115.483V15.3613H116.051V14.7871H116.626H117.194H117.768V15.3613H118.337V15.9297V16.5039H117.768H117.194V15.9297H116.626H116.051V16.5039H115.483V17.0723V17.6465V18.2148V18.7891V19.3574V19.9316V20.5H114.909H114.341Z" fill="#FFEBD3"/>
<path d="M133.687 10.7574L134.973 9.4714C135.234 9.21106 135.656 9.21105 135.916 9.4714L138.342 11.897C138.602 12.1574 138.602 12.5795 138.342 12.8398L136.708 14.4733C136.457 14.725 136.394 15.1095 136.554 15.4278C137.474 17.2683 138.966 18.7606 140.807 19.6808C141.125 19.84 141.509 19.7776 141.761 19.5259L143.395 17.8925C143.655 17.6321 144.077 17.6321 144.337 17.8925L146.763 20.3181C147.023 20.5784 147.023 21.0005 146.763 21.2609L145.477 22.5469C144.069 23.9545 141.841 24.1129 140.249 22.9185L138.039 21.2617C136.877 20.3899 135.844 19.3573 134.973 18.195L133.316 15.9859C132.122 14.3934 132.28 12.165 133.687 10.7574Z" fill="#FFEBD3"/>
</g>
<defs>
<clipPath id="clip0_2215_2980">
<rect width="181" height="35" fill="white"/>
</clipPath>
</defs>
</svg>
