<svg width="1440" height="127" viewBox="0 0 1440 127" fill="none" xmlns="http://www.w3.org/2000/svg">
<g opacity="0.6">
<rect width="1440" height="24" transform="matrix(1 0 0 -1 0 24)" fill="#FE3989"/>
<rect width="1440" height="12" transform="matrix(1 0 0 -1 0 44)" fill="#FE3989"/>
<rect width="1440" height="6" transform="matrix(1 0 0 -1 -3 58)" fill="#FE3989"/>
<rect width="1380" height="6" transform="matrix(1 0 0 -1 27 72)" fill="#FE3989"/>
<rect width="1309" height="5" transform="matrix(1 0 0 -1 63 85)" fill="#FE3989"/>
<rect width="1230" height="4" transform="matrix(1 0 0 -1 102 97)" fill="#FE3989"/>
<rect width="1140" height="3" transform="matrix(1 0 0 -1 147 108)" fill="#FE3989"/>
<rect width="1040" height="2" transform="matrix(1 0 0 -1 197 118)" fill="#FE3989"/>
<rect width="932" height="1" transform="matrix(1 0 0 -1 250 127)" fill="#FE3989"/>
</g>
</svg>
