<svg width="283" height="89" viewBox="0 0 283 89" fill="none" xmlns="http://www.w3.org/2000/svg">
<mask id="path-1-inside-1_1837_30231" fill="white">
<path d="M0 0H283V89H0V0Z"/>
</mask>
<path d="M283 88H0V90H283V88Z" fill="#FFEBD3" fill-opacity="0.7" mask="url(#path-1-inside-1_1837_30231)"/>
<path d="M40.08 52L28.74 32.2V29.56H30.06C32.18 29.56 33.96 29.36 35.4 28.96C36.88 28.56 38.04 27.9 38.88 26.98C39.72 26.06 40.22 24.8 40.38 23.2H28.74V19.36H40.32C40.04 17.88 39.48 16.68 38.64 15.76C37.8 14.8 36.66 14.1 35.22 13.66C33.82 13.22 32.1 13 30.06 13H28.74V9.16H53.58V13H42.24C43.16 13.76 43.92 14.66 44.52 15.7C45.12 16.74 45.5 17.96 45.66 19.36H53.58V23.2H45.78C45.5 26.12 44.38 28.4 42.42 30.04C40.5 31.64 37.94 32.66 34.74 33.1L46.2 52H40.08ZM80.1328 46.5508V43.8262V41.1016V38.377V35.6523V32.9277H82.8574V30.2031H85.582V27.4785H82.8574V24.7539H80.1328V22V19.2754V16.5508V13.8262H82.8574V11.1016H85.582V8.37695H88.3066H91.0312H93.7559H96.4805H99.2051H101.93H104.654H107.379H110.133V11.1016H112.857V13.8262H115.582V16.5508V19.2754V22V24.7539H112.857V27.4785H110.133V30.2031H112.857V32.9277H115.582V35.6523V38.377V41.1016V43.8262V46.5508H112.857V49.2754H110.133V52H107.379H104.654H101.93H99.2051H96.4805H93.7559H91.0312H88.3066H85.582V49.2754H82.8574V46.5508H80.1328ZM93.7559 46.5508H96.4805V49.2754H99.2051V46.5508H101.93V43.8262V41.1016V38.377V35.6523V32.9277H99.2051V30.2031H96.4805V32.9277H93.7559V35.6523V38.377V41.1016V43.8262V46.5508ZM93.7559 24.7539H96.4805V27.4785H99.2051V24.7539H101.93V22V19.2754V16.5508V13.8262H99.2051V11.1016H96.4805V13.8262H93.7559V16.5508V19.2754V22V24.7539ZM118.336 46.5508V43.8262V41.1016V38.377V35.6523V32.9277V30.2031V27.4785V24.7539V22V19.2754V16.5508V13.8262H121.061V11.1016H123.785V8.37695H126.51H129.234H131.959H134.684H137.408H140.133H142.857H145.582H148.336V11.1016H151.061V13.8262H153.785V16.5508V19.2754V22V24.7539V27.4785V30.2031V32.9277V35.6523V38.377V41.1016V43.8262V46.5508H151.061V49.2754H148.336V52H145.582H142.857H140.133H137.408H134.684H131.959H129.234H126.51H123.785V49.2754H121.061V46.5508H118.336ZM131.959 46.5508H134.684V49.2754H137.408V46.5508H140.133V43.8262V41.1016V38.377V35.6523V32.9277V30.2031V27.4785V24.7539V22V19.2754V16.5508V13.8262H137.408V11.1016H134.684V13.8262H131.959V16.5508V19.2754V22V24.7539V27.4785V30.2031V32.9277V35.6523V38.377V41.1016V43.8262V46.5508ZM156.539 46.5508V43.8262V41.1016V38.377V35.6523V32.9277V30.2031V27.4785V24.7539V22V19.2754V16.5508V13.8262H159.264V11.1016H161.988V8.37695H164.713H167.438H170.162H172.887H175.611H178.336H181.061H183.785H186.539V11.1016H189.264V13.8262H191.988V16.5508V19.2754V22V24.7539V27.4785V30.2031V32.9277V35.6523V38.377V41.1016V43.8262V46.5508H189.264V49.2754H186.539V52H183.785H181.061H178.336H175.611H172.887H170.162H167.438H164.713H161.988V49.2754H159.264V46.5508H156.539ZM170.162 46.5508H172.887V49.2754H175.611V46.5508H178.336V43.8262V41.1016V38.377V35.6523V32.9277V30.2031V27.4785V24.7539V22V19.2754V16.5508V13.8262H175.611V11.1016H172.887V13.8262H170.162V16.5508V19.2754V22V24.7539V27.4785V30.2031V32.9277V35.6523V38.377V41.1016V43.8262V46.5508Z" fill="#FFEBD3"/>
<path d="M24.7578 73.4297V72.6719V71.9062H25.5234H26.2812H27.0469V71.1484V70.3828V69.625H27.8047H28.5703V70.3828V71.1484V71.9062H29.3281H30.0938H30.8516V72.6719V73.4297H30.0938H29.3281H28.5703V74.1953V74.9531V75.7188H27.8047H27.0469V74.9531V74.1953V73.4297H26.2812H25.5234H24.7578ZM37.4286 78L34.4046 72.72V72.016H34.7566C35.322 72.016 35.7966 71.9627 36.1806 71.856C36.5753 71.7493 36.8846 71.5733 37.1086 71.328C37.3326 71.0827 37.466 70.7467 37.5086 70.32H34.4046V69.296H37.4926C37.418 68.9013 37.2686 68.5813 37.0446 68.336C36.8206 68.08 36.5166 67.8933 36.1326 67.776C35.7593 67.6587 35.3006 67.6 34.7566 67.6H34.4046V66.576H41.0286V67.6H38.0046C38.25 67.8027 38.4526 68.0427 38.6126 68.32C38.7726 68.5973 38.874 68.9227 38.9166 69.296H41.0286V70.32H38.9486C38.874 71.0987 38.5753 71.7067 38.0526 72.144C37.5406 72.5707 36.858 72.8427 36.0046 72.96L39.0606 78H37.4286ZM42.2969 76.4766V75.7188V74.9531V74.1953V73.4297H43.0547V72.6719V71.9062H42.2969V71.1484V70.3828V69.625V68.8594H43.0547V68.1016H43.8203V67.3359H44.5781H45.3438H46.1016H46.8672H47.625H48.3906V68.1016H49.1484V68.8594H49.9141V69.625V70.3828V71.1484V71.9062H49.1484V72.6719V73.4297H49.9141V74.1953V74.9531V75.7188V76.4766H49.1484V77.2422H48.3906V78H47.625H46.8672H46.1016H45.3438H44.5781H43.8203V77.2422H43.0547V76.4766H42.2969ZM43.8203 75.7188H44.5781V76.4766H45.3438H46.1016H46.8672H47.625V75.7188H48.3906V74.9531V74.1953H47.625V73.4297H46.8672H46.1016H45.3438H44.5781V74.1953H43.8203V74.9531V75.7188ZM43.8203 71.1484H44.5781V71.9062H45.3438H46.1016H46.8672H47.625V71.1484H48.3906V70.3828V69.625H47.625V68.8594H46.8672H46.1016H45.3438H44.5781V69.625H43.8203V70.3828V71.1484ZM51.4375 76.4766V75.7188V74.9531V74.1953V73.4297V72.6719V71.9062V71.1484V70.3828V69.625V68.8594H52.1953V68.1016H52.9609V67.3359H53.7188H54.4844H55.2422H56.0078H56.7656H57.5312V68.1016H58.2891V68.8594H59.0547V69.625V70.3828V71.1484V71.9062V72.6719V73.4297V74.1953V74.9531V75.7188V76.4766H58.2891V77.2422H57.5312V78H56.7656H56.0078H55.2422H54.4844H53.7188H52.9609V77.2422H52.1953V76.4766H51.4375ZM52.9609 75.7188H53.7188V76.4766H54.4844H55.2422H56.0078H56.7656V75.7188H57.5312V74.9531V74.1953V73.4297V72.6719V71.9062V71.1484V70.3828V69.625H56.7656V68.8594H56.0078H55.2422H54.4844H53.7188V69.625H52.9609V70.3828V71.1484V71.9062V72.6719V73.4297V74.1953V74.9531V75.7188ZM54.4844 74.1953V73.4297V72.6719V71.9062V71.1484H55.2422H56.0078V71.9062V72.6719V73.4297V74.1953H55.2422H54.4844ZM66.6719 78.7656V78V77.2422H67.4297V76.4766V75.7188V74.9531V74.1953V73.4297H66.6719V72.6719V71.9062H67.4297V71.1484V70.3828V69.625V68.8594H68.1953V68.1016H68.9531V67.3359H69.7188H70.4766H71.2422V68.1016V68.8594H70.4766H69.7188V69.625H68.9531V70.3828V71.1484V71.9062H69.7188H70.4766H71.2422V72.6719V73.4297H70.4766H69.7188H68.9531V74.1953V74.9531V75.7188V76.4766V77.2422V78H68.1953V78.7656H67.4297H66.6719ZM72 76.4766V75.7188V74.9531V74.1953V73.4297V72.6719V71.9062H72.7578V71.1484H73.5234V70.3828H74.2812H75.0469H75.8047H76.5703H77.3281H78.0938V71.1484H78.8516V71.9062H79.6172V72.6719V73.4297V74.1953V74.9531V75.7188V76.4766H78.8516V77.2422H78.0938V78H77.3281H76.5703H75.8047H75.0469H74.2812H73.5234V77.2422H72.7578V76.4766H72ZM73.5234 75.7188H74.2812V76.4766H75.0469H75.8047H76.5703H77.3281V75.7188H78.0938V74.9531V74.1953V73.4297V72.6719H77.3281V71.9062H76.5703H75.8047H75.0469H74.2812V72.6719H73.5234V73.4297V74.1953V74.9531V75.7188ZM80.375 78V77.2422V76.4766V75.7188V74.9531V74.1953V73.4297V72.6719V71.9062V71.1484V70.3828H81.1328H81.8984V71.1484H82.6562V70.3828H83.4219H84.1797H84.9453V71.1484H85.7031V71.9062V72.6719H84.9453H84.1797V71.9062H83.4219H82.6562V72.6719H81.8984V73.4297V74.1953V74.9531V75.7188V76.4766V77.2422V78H81.1328H80.375ZM92.5625 76.4766V75.7188V74.9531V74.1953V73.4297V72.6719V71.9062H93.3203V71.1484H94.0859V70.3828H94.8438H95.6094H96.3672H97.1328H97.8906V71.1484H98.6562V70.3828V69.625V68.8594V68.1016V67.3359H99.4141H100.18V68.1016V68.8594V69.625V70.3828V71.1484V71.9062V72.6719V73.4297V74.1953V74.9531V75.7188V76.4766V77.2422V78H99.4141H98.6562H97.8906H97.1328H96.3672H95.6094H94.8438H94.0859V77.2422H93.3203V76.4766H92.5625ZM94.0859 75.7188H94.8438V76.4766H95.6094H96.3672H97.1328H97.8906H98.6562V75.7188V74.9531V74.1953V73.4297V72.6719H97.8906V71.9062H97.1328H96.3672H95.6094H94.8438V72.6719H94.0859V73.4297V74.1953V74.9531V75.7188ZM100.938 76.4766V75.7188V74.9531V74.1953V73.4297V72.6719V71.9062H101.695V71.1484H102.461V70.3828H103.219H103.984H104.742H105.508H106.266H107.031V71.1484H107.789V71.9062H108.555V72.6719V73.4297V74.1953V74.9531H107.789H107.031H106.266H105.508H104.742H103.984H103.219H102.461V75.7188H103.219V76.4766H103.984H104.742H105.508H106.266H107.031V75.7188H107.789H108.555V76.4766V77.2422H107.789V78H107.031H106.266H105.508H104.742H103.984H103.219H102.461V77.2422H101.695V76.4766H100.938ZM102.461 73.4297H103.219H103.984H104.742H105.508H106.266H107.031V72.6719H106.266V71.9062H105.508H104.742H103.984H103.219V72.6719H102.461V73.4297ZM109.312 68.8594V68.1016V67.3359H110.07H110.836H111.594V68.1016V68.8594V69.625V70.3828V71.1484V71.9062V72.6719V73.4297V74.1953V74.9531V75.7188V76.4766H112.359V77.2422V78H111.594H110.836H110.07V77.2422V76.4766V75.7188V74.9531V74.1953V73.4297V72.6719V71.9062V71.1484V70.3828V69.625V68.8594H109.312ZM113.125 78V77.2422V76.4766V75.7188V74.9531V74.1953V73.4297V72.6719V71.9062V71.1484V70.3828H113.883H114.648V71.1484V71.9062V72.6719V73.4297V74.1953V74.9531V75.7188V76.4766V77.2422V78H113.883H113.125ZM113.125 68.8594V68.1016V67.3359H113.883H114.648V68.1016V68.8594H113.883H113.125ZM115.406 74.9531V74.1953V73.4297V72.6719V71.9062V71.1484V70.3828H116.164H116.93V71.1484V71.9062V72.6719V73.4297V74.1953H117.688V74.9531H118.453V75.7188H119.211H119.977V74.9531H120.734V74.1953H121.5V73.4297V72.6719V71.9062V71.1484V70.3828H122.258H123.023V71.1484V71.9062V72.6719V73.4297V74.1953V74.9531H122.258V75.7188H121.5V76.4766H120.734V77.2422H119.977V78H119.211H118.453V77.2422H117.688V76.4766H116.93V75.7188H116.164V74.9531H115.406ZM123.781 76.4766V75.7188V74.9531V74.1953V73.4297V72.6719V71.9062H124.539V71.1484H125.305V70.3828H126.062H126.828H127.586H128.352H129.109H129.875V71.1484H130.633V71.9062H131.398V72.6719V73.4297V74.1953V74.9531H130.633H129.875H129.109H128.352H127.586H126.828H126.062H125.305V75.7188H126.062V76.4766H126.828H127.586H128.352H129.109H129.875V75.7188H130.633H131.398V76.4766V77.2422H130.633V78H129.875H129.109H128.352H127.586H126.828H126.062H125.305V77.2422H124.539V76.4766H123.781ZM125.305 73.4297H126.062H126.828H127.586H128.352H129.109H129.875V72.6719H129.109V71.9062H128.352H127.586H126.828H126.062V72.6719H125.305V73.4297ZM132.156 78V77.2422V76.4766V75.7188V74.9531V74.1953V73.4297V72.6719V71.9062V71.1484V70.3828H132.914H133.68V71.1484H134.438V70.3828H135.203H135.961H136.727V71.1484H137.484V71.9062V72.6719H136.727H135.961V71.9062H135.203H134.438V72.6719H133.68V73.4297V74.1953V74.9531V75.7188V76.4766V77.2422V78H132.914H132.156ZM138.25 72.6719V71.9062V71.1484V70.3828H139.008H139.773V71.1484V71.9062H140.531V72.6719V73.4297H141.297V74.1953V74.9531H142.055H142.82V74.1953V73.4297H143.578V72.6719V71.9062H144.344V71.1484V70.3828H145.102H145.867V71.1484V71.9062V72.6719H145.102V73.4297V74.1953H144.344V74.9531V75.7188H143.578V76.4766V77.2422H142.82V78V78.7656H142.055V79.5312V80.2891H141.297V81.0547H140.531H139.773H139.008V80.2891V79.5312H139.773H140.531V78.7656V78H141.297V77.2422H140.531V76.4766V75.7188H139.773V74.9531V74.1953H139.008V73.4297V72.6719H138.25Z" fill="#FFEBD3" fill-opacity="0.7"/>
</svg>
