<svg width="1442" height="2537" viewBox="0 0 1442 2537" fill="none" xmlns="http://www.w3.org/2000/svg">
<g clip-path="url(#clip0_1623_62)">
<g style="mix-blend-mode:lighten">
<rect width="7320.27" height="4712.96" fill="#184124" fill-opacity="0.34"/>
</g>
<g style="mix-blend-mode:multiply">
<rect width="7320.27" height="4750.12" fill="#D3F5B8" fill-opacity="0.3"/>
</g>
<g style="mix-blend-mode:multiply">
<path d="M7320.27 2371.96H0M0 2359.58H7320.27M7320.27 2347.19H0M0 2334.81H7320.27" stroke="#1A1A1A" stroke-opacity="0.12" stroke-width="6.19312"/>
<path d="M7320.27 1579.25H0M0 1566.86H7320.27M7320.27 1554.47H0M0 1542.09H7320.27" stroke="#1A1A1A" stroke-opacity="0.12" stroke-width="6.19312"/>
<path d="M7320.27 786.526H0M0 774.139H7320.27M7320.27 761.753H0M0 749.367H7320.27" stroke="#1A1A1A" stroke-opacity="0.12" stroke-width="6.19312"/>
<path d="M7320.27 2272.87H0M0 2260.49H7320.27M7320.27 2248.1H0M0 2235.72H7320.27" stroke="#1A1A1A" stroke-opacity="0.12" stroke-width="6.19312"/>
<path d="M7320.27 1480.16H0M0 1467.77H7320.27M7320.27 1455.38H0M0 1443H7320.27" stroke="#1A1A1A" stroke-opacity="0.12" stroke-width="6.19312"/>
<path d="M7320.27 687.436H0M0 675.05H7320.27M7320.27 662.663H0M0 650.277H7320.27" stroke="#1A1A1A" stroke-opacity="0.12" stroke-width="6.19312"/>
<path d="M7320.27 2173.78H0M0 2161.4H7320.27M7320.27 2149.01H0M0 2136.63H7320.27" stroke="#1A1A1A" stroke-opacity="0.12" stroke-width="6.19312"/>
<path d="M7320.27 1381.07H0M0 1368.68H7320.27M7320.27 1356.29H0M0 1343.91H7320.27" stroke="#1A1A1A" stroke-opacity="0.12" stroke-width="6.19312"/>
<path d="M7320.27 588.346H0M0 575.96H7320.27M7320.27 563.573H0M0 551.187H7320.27" stroke="#1A1A1A" stroke-opacity="0.12" stroke-width="6.19312"/>
<path d="M7320.27 2074.69H0M0 2062.31H7320.27M7320.27 2049.92H0M0 2037.54H7320.27" stroke="#1A1A1A" stroke-opacity="0.12" stroke-width="6.19312"/>
<path d="M7320.27 1281.98H0M0 1269.59H7320.27M7320.27 1257.2H0M0 1244.82H7320.27" stroke="#1A1A1A" stroke-opacity="0.12" stroke-width="6.19312"/>
<path d="M7320.27 489.256H0M0 476.87H7320.27M7320.27 464.484H0M0 452.097H7320.27" stroke="#1A1A1A" stroke-opacity="0.12" stroke-width="6.19312"/>
<path d="M7320.27 1975.6H0M0 1963.22H7320.27M7320.27 1950.83H0M0 1938.45H7320.27" stroke="#1A1A1A" stroke-opacity="0.12" stroke-width="6.19312"/>
<path d="M7320.27 1182.89H0M0 1170.5H7320.27M7320.27 1158.11H0M0 1145.73H7320.27" stroke="#1A1A1A" stroke-opacity="0.12" stroke-width="6.19312"/>
<path d="M7320.27 390.166H0M0 377.78H7320.27M7320.27 365.394H0M0 353.008H7320.27" stroke="#1A1A1A" stroke-opacity="0.12" stroke-width="6.19312"/>
<path d="M7320.27 1876.51H0M0 1864.13H7320.27M7320.27 1851.74H0M0 1839.36H7320.27" stroke="#1A1A1A" stroke-opacity="0.12" stroke-width="6.19312"/>
<path d="M7320.27 1083.8H0M0 1071.41H7320.27M7320.27 1059.02H0M0 1046.64H7320.27" stroke="#1A1A1A" stroke-opacity="0.12" stroke-width="6.19312"/>
<path d="M7320.27 291.076H0M0 278.69H7320.27M7320.27 266.304H0M0 253.918H7320.27" stroke="#1A1A1A" stroke-opacity="0.12" stroke-width="6.19312"/>
<path d="M7320.27 1777.43H0M0 1765.04H7320.27M7320.27 1752.65H0M0 1740.27H7320.27" stroke="#1A1A1A" stroke-opacity="0.12" stroke-width="6.19312"/>
<path d="M7320.27 984.706H0M0 972.32H7320.27M7320.27 959.934H0M0 947.548H7320.27" stroke="#1A1A1A" stroke-opacity="0.12" stroke-width="6.19312"/>
<path d="M7320.27 191.987H0M0 179.6H7320.27M7320.27 167.214H0M0 154.828H7320.27" stroke="#1A1A1A" stroke-opacity="0.12" stroke-width="6.19312"/>
<path d="M7320.27 1678.34H0M0 1665.95H7320.27M7320.27 1653.56H0M0 1641.18H7320.27" stroke="#1A1A1A" stroke-opacity="0.12" stroke-width="6.19312"/>
<path d="M7320.27 885.616H0M0 873.23H7320.27M7320.27 860.844H0M0 848.458H7320.27" stroke="#1A1A1A" stroke-opacity="0.12" stroke-width="6.19312"/>
<path d="M7320.27 92.8968H0M0 80.5105H7320.27M7320.27 68.1243H0M0 55.738H7320.27" stroke="#1A1A1A" stroke-opacity="0.12" stroke-width="6.19312"/>
<path d="M7320.27 2322.42H0M0 2310.03H7320.27M7320.27 2297.65H0M0 2285.26H7320.27" stroke="#1A1A1A" stroke-opacity="0.12" stroke-width="6.19312"/>
<path d="M7320.27 1529.7H0M0 1517.31H7320.27M7320.27 1504.93H0M0 1492.54H7320.27" stroke="#1A1A1A" stroke-opacity="0.12" stroke-width="6.19312"/>
<path d="M7320.27 736.981H0M0 724.594H7320.27M7320.27 712.208H0M0 699.822H7320.27" stroke="#1A1A1A" stroke-opacity="0.12" stroke-width="6.19312"/>
<path d="M7320.27 2223.33H0M0 2210.94H7320.27M7320.27 2198.56H0M0 2186.17H7320.27" stroke="#1A1A1A" stroke-opacity="0.12" stroke-width="6.19312"/>
<path d="M7320.27 1430.61H0M0 1418.22H7320.27M7320.27 1405.84H0M0 1393.45H7320.27" stroke="#1A1A1A" stroke-opacity="0.12" stroke-width="6.19312"/>
<path d="M7320.27 637.891H0M0 625.505H7320.27M7320.27 613.118H0M0 600.732H7320.27" stroke="#1A1A1A" stroke-opacity="0.12" stroke-width="6.19312"/>
<path d="M7320.27 2124.24H0M0 2111.85H7320.27M7320.27 2099.47H0M0 2087.08H7320.27" stroke="#1A1A1A" stroke-opacity="0.12" stroke-width="6.19312"/>
<path d="M7320.27 1331.52H0M0 1319.13H7320.27M7320.27 1306.75H0M0 1294.36H7320.27" stroke="#1A1A1A" stroke-opacity="0.12" stroke-width="6.19312"/>
<path d="M7320.27 538.801H0M0 526.415H7320.27M7320.27 514.029H0M0 501.642H7320.27" stroke="#1A1A1A" stroke-opacity="0.12" stroke-width="6.19312"/>
<path d="M7320.27 2025.15H0M0 2012.76H7320.27M7320.27 2000.38H0M0 1987.99H7320.27" stroke="#1A1A1A" stroke-opacity="0.12" stroke-width="6.19312"/>
<path d="M7320.27 1232.43H0M0 1220.04H7320.27M7320.27 1207.66H0M0 1195.27H7320.27" stroke="#1A1A1A" stroke-opacity="0.12" stroke-width="6.19312"/>
<path d="M7320.27 439.711H0M0 427.325H7320.27M7320.27 414.939H0M0 402.552H7320.27" stroke="#1A1A1A" stroke-opacity="0.12" stroke-width="6.19312"/>
<path d="M7320.27 1926.06H0M0 1913.67H7320.27M7320.27 1901.29H0M0 1888.9H7320.27" stroke="#1A1A1A" stroke-opacity="0.12" stroke-width="6.19312"/>
<path d="M7320.27 1133.34H0M0 1120.95H7320.27M7320.27 1108.57H0M0 1096.18H7320.27" stroke="#1A1A1A" stroke-opacity="0.12" stroke-width="6.19312"/>
<path d="M7320.27 340.621H0M0 328.235H7320.27M7320.27 315.849H0M0 303.463H7320.27" stroke="#1A1A1A" stroke-opacity="0.12" stroke-width="6.19312"/>
<path d="M7320.27 1826.97H0M0 1814.58H7320.27M7320.27 1802.2H0M0 1789.81H7320.27" stroke="#1A1A1A" stroke-opacity="0.12" stroke-width="6.19312"/>
<path d="M7320.27 1034.25H0M0 1021.87H7320.27M7320.27 1009.48H0M0 997.093H7320.27" stroke="#1A1A1A" stroke-opacity="0.12" stroke-width="6.19312"/>
<path d="M7320.27 241.532H0M0 229.145H7320.27M7320.27 216.759H0M0 204.373H7320.27" stroke="#1A1A1A" stroke-opacity="0.12" stroke-width="6.19312"/>
<path d="M7320.27 1727.88H0M0 1715.49H7320.27M7320.27 1703.11H0M0 1690.72H7320.27" stroke="#1A1A1A" stroke-opacity="0.12" stroke-width="6.19312"/>
<path d="M7320.27 935.161H0M0 922.775H7320.27M7320.27 910.389H0M0 898.003H7320.27" stroke="#1A1A1A" stroke-opacity="0.12" stroke-width="6.19312"/>
<path d="M7320.27 142.442H0M0 130.055H7320.27M7320.27 117.669H0M0 105.283H7320.27" stroke="#1A1A1A" stroke-opacity="0.12" stroke-width="6.19312"/>
<path d="M7320.27 1628.79H0M0 1616.4H7320.27M7320.27 1604.02H0M0 1591.63H7320.27" stroke="#1A1A1A" stroke-opacity="0.12" stroke-width="6.19312"/>
<path d="M7320.27 836.072H0M0 823.685H7320.27M7320.27 811.299H0M0 798.913H7320.27" stroke="#1A1A1A" stroke-opacity="0.12" stroke-width="6.19312"/>
<path d="M7320.27 43.352H0M0 30.9657H7320.27M7320.27 18.5795H0M0 6.19324H7320.27" stroke="#1A1A1A" stroke-opacity="0.12" stroke-width="6.19312"/>
</g>
<g style="mix-blend-mode:multiply">
<path d="M7320.27 2570.14H0M0 2557.76H7320.27M7320.27 2545.37H0M0 2532.99H7320.27" stroke="#1A1A1A" stroke-opacity="0.12" stroke-width="6.19312"/>
<path d="M7320.27 2471.05H0M0 2458.67H7320.27M7320.27 2446.28H0M0 2433.9H7320.27" stroke="#1A1A1A" stroke-opacity="0.12" stroke-width="6.19312"/>
<path d="M7320.27 2520.6H0M0 2508.21H7320.27M7320.27 2495.83H0M0 2483.44H7320.27" stroke="#1A1A1A" stroke-opacity="0.12" stroke-width="6.19312"/>
<path d="M7320.27 2421.51H0M0 2409.12H7320.27M7320.27 2396.74H0M0 2384.35H7320.27" stroke="#1A1A1A" stroke-opacity="0.12" stroke-width="6.19312"/>
</g>
<g style="mix-blend-mode:lighten">
<path d="M7320.27 2365.77H0M0 2353.39H7320.27M7320.27 2341H0M0 2328.61H7320.27" stroke="#C4A1F1" stroke-opacity="0.04" stroke-width="6.19312"/>
<path d="M7320.27 1573.05H0M0 1560.67H7320.27M7320.27 1548.28H0M0 1535.89H7320.27" stroke="#C4A1F1" stroke-opacity="0.04" stroke-width="6.19312"/>
<path d="M7320.27 780.333H0M0 767.947H7320.27M7320.27 755.561H0M0 743.175H7320.27" stroke="#C4A1F1" stroke-opacity="0.04" stroke-width="6.19312"/>
<path d="M7320.27 2266.68H0M0 2254.3H7320.27M7320.27 2241.91H0M0 2229.52H7320.27" stroke="#C4A1F1" stroke-opacity="0.04" stroke-width="6.19312"/>
<path d="M7320.27 1473.96H0M0 1461.58H7320.27M7320.27 1449.19H0M0 1436.8H7320.27" stroke="#C4A1F1" stroke-opacity="0.04" stroke-width="6.19312"/>
<path d="M7320.27 681.244H0M0 668.857H7320.27M7320.27 656.471H0M0 644.085H7320.27" stroke="#C4A1F1" stroke-opacity="0.04" stroke-width="6.19312"/>
<path d="M7320.27 2167.59H0M0 2155.21H7320.27M7320.27 2142.82H0M0 2130.43H7320.27" stroke="#C4A1F1" stroke-opacity="0.04" stroke-width="6.19312"/>
<path d="M7320.27 1374.87H0M0 1362.49H7320.27M7320.27 1350.1H0M0 1337.71H7320.27" stroke="#C4A1F1" stroke-opacity="0.04" stroke-width="6.19312"/>
<path d="M7320.27 582.154H0M0 569.767H7320.27M7320.27 557.381H0M0 544.995H7320.27" stroke="#C4A1F1" stroke-opacity="0.04" stroke-width="6.19312"/>
<path d="M7320.27 2068.5H0M0 2056.12H7320.27M7320.27 2043.73H0M0 2031.34H7320.27" stroke="#C4A1F1" stroke-opacity="0.04" stroke-width="6.19312"/>
<path d="M7320.27 1275.78H0M0 1263.4H7320.27M7320.27 1251.01H0M0 1238.62H7320.27" stroke="#C4A1F1" stroke-opacity="0.04" stroke-width="6.19312"/>
<path d="M7320.27 483.063H0M0 470.677H7320.27M7320.27 458.29H0M0 445.904H7320.27" stroke="#C4A1F1" stroke-opacity="0.04" stroke-width="6.19312"/>
<path d="M7320.27 1969.41H0M0 1957.03H7320.27M7320.27 1944.64H0M0 1932.25H7320.27" stroke="#C4A1F1" stroke-opacity="0.04" stroke-width="6.19312"/>
<path d="M7320.27 1176.69H0M0 1164.31H7320.27M7320.27 1151.92H0M0 1139.53H7320.27" stroke="#C4A1F1" stroke-opacity="0.04" stroke-width="6.19312"/>
<path d="M7320.27 383.973H0M0 371.587H7320.27M7320.27 359.201H0M0 346.814H7320.27" stroke="#C4A1F1" stroke-opacity="0.04" stroke-width="6.19312"/>
<path d="M7320.27 1870.32H0M0 1857.94H7320.27M7320.27 1845.55H0M0 1833.16H7320.27" stroke="#C4A1F1" stroke-opacity="0.04" stroke-width="6.19312"/>
<path d="M7320.27 1077.6H0M0 1065.22H7320.27M7320.27 1052.83H0M0 1040.44H7320.27" stroke="#C4A1F1" stroke-opacity="0.04" stroke-width="6.19312"/>
<path d="M7320.27 284.883H0M0 272.497H7320.27M7320.27 260.111H0M0 247.724H7320.27" stroke="#C4A1F1" stroke-opacity="0.04" stroke-width="6.19312"/>
<path d="M7320.27 1771.23H0M0 1758.85H7320.27M7320.27 1746.46H0M0 1734.07H7320.27" stroke="#C4A1F1" stroke-opacity="0.04" stroke-width="6.19312"/>
<path d="M7320.27 978.513H0M0 966.127H7320.27M7320.27 953.741H0M0 941.354H7320.27" stroke="#C4A1F1" stroke-opacity="0.04" stroke-width="6.19312"/>
<path d="M7320.27 185.793H0M0 173.407H7320.27M7320.27 161.021H0M0 148.635H7320.27" stroke="#C4A1F1" stroke-opacity="0.04" stroke-width="6.19312"/>
<path d="M7320.27 1672.14H0M0 1659.76H7320.27M7320.27 1647.37H0M0 1634.98H7320.27" stroke="#C4A1F1" stroke-opacity="0.04" stroke-width="6.19312"/>
<path d="M7320.27 879.423H0M0 867.037H7320.27M7320.27 854.651H0M0 842.265H7320.27" stroke="#C4A1F1" stroke-opacity="0.04" stroke-width="6.19312"/>
<path d="M7320.27 86.7035H0M0 74.3173H7320.27M7320.27 61.931H0M0 49.5448H7320.27" stroke="#C4A1F1" stroke-opacity="0.04" stroke-width="6.19312"/>
<path d="M7320.27 2316.23H0M0 2303.84H7320.27M7320.27 2291.45H0M0 2279.07H7320.27" stroke="#C4A1F1" stroke-opacity="0.04" stroke-width="6.19312"/>
<path d="M7320.27 1523.51H0M0 1511.12H7320.27M7320.27 1498.73H0M0 1486.35H7320.27" stroke="#C4A1F1" stroke-opacity="0.04" stroke-width="6.19312"/>
<path d="M7320.27 730.788H0M0 718.402H7320.27M7320.27 706.016H0M0 693.63H7320.27" stroke="#C4A1F1" stroke-opacity="0.04" stroke-width="6.19312"/>
<path d="M7320.27 2217.14H0M0 2204.75H7320.27M7320.27 2192.36H0M0 2179.98H7320.27" stroke="#C4A1F1" stroke-opacity="0.04" stroke-width="6.19312"/>
<path d="M7320.27 1424.42H0M0 1412.03H7320.27M7320.27 1399.64H0M0 1387.26H7320.27" stroke="#C4A1F1" stroke-opacity="0.04" stroke-width="6.19312"/>
<path d="M7320.27 631.699H0M0 619.312H7320.27M7320.27 606.926H0M0 594.54H7320.27" stroke="#C4A1F1" stroke-opacity="0.04" stroke-width="6.19312"/>
<path d="M7320.27 2118.05H0M0 2105.66H7320.27M7320.27 2093.27H0M0 2080.89H7320.27" stroke="#C4A1F1" stroke-opacity="0.04" stroke-width="6.19312"/>
<path d="M7320.27 1325.33H0M0 1312.94H7320.27M7320.27 1300.56H0M0 1288.17H7320.27" stroke="#C4A1F1" stroke-opacity="0.04" stroke-width="6.19312"/>
<path d="M7320.27 532.609H0M0 520.223H7320.27M7320.27 507.836H0M0 495.45H7320.27" stroke="#C4A1F1" stroke-opacity="0.04" stroke-width="6.19312"/>
<path d="M7320.27 2018.96H0M0 2006.57H7320.27M7320.27 1994.18H0M0 1981.8H7320.27" stroke="#C4A1F1" stroke-opacity="0.04" stroke-width="6.19312"/>
<path d="M7320.27 1226.24H0M0 1213.85H7320.27M7320.27 1201.47H0M0 1189.08H7320.27" stroke="#C4A1F1" stroke-opacity="0.04" stroke-width="6.19312"/>
<path d="M7320.27 433.518H0M0 421.132H7320.27M7320.27 408.745H0M0 396.359H7320.27" stroke="#C4A1F1" stroke-opacity="0.04" stroke-width="6.19312"/>
<path d="M7320.27 1919.87H0M0 1907.48H7320.27M7320.27 1895.09H0M0 1882.71H7320.27" stroke="#C4A1F1" stroke-opacity="0.04" stroke-width="6.19312"/>
<path d="M7320.27 1127.15H0M0 1114.76H7320.27M7320.27 1102.38H0M0 1089.99H7320.27" stroke="#C4A1F1" stroke-opacity="0.04" stroke-width="6.19312"/>
<path d="M7320.27 334.428H0M0 322.042H7320.27M7320.27 309.656H0M0 297.269H7320.27" stroke="#C4A1F1" stroke-opacity="0.04" stroke-width="6.19312"/>
<path d="M7320.27 1820.78H0M0 1808.39H7320.27M7320.27 1796H0M0 1783.62H7320.27" stroke="#C4A1F1" stroke-opacity="0.04" stroke-width="6.19312"/>
<path d="M7320.27 1028.06H0M0 1015.67H7320.27M7320.27 1003.29H0M0 990.899H7320.27" stroke="#C4A1F1" stroke-opacity="0.04" stroke-width="6.19312"/>
<path d="M7320.27 235.338H0M0 222.952H7320.27M7320.27 210.566H0M0 198.18H7320.27" stroke="#C4A1F1" stroke-opacity="0.04" stroke-width="6.19312"/>
<path d="M7320.27 1721.69H0M0 1709.3H7320.27M7320.27 1696.91H0M0 1684.53H7320.27" stroke="#C4A1F1" stroke-opacity="0.04" stroke-width="6.19312"/>
<path d="M7320.27 928.968H0M0 916.582H7320.27M7320.27 904.196H0M0 891.809H7320.27" stroke="#C4A1F1" stroke-opacity="0.04" stroke-width="6.19312"/>
<path d="M7320.27 136.248H0M0 123.862H7320.27M7320.27 111.476H0M0 99.0897H7320.27" stroke="#C4A1F1" stroke-opacity="0.04" stroke-width="6.19312"/>
<path d="M7320.27 1622.6H0M0 1610.21H7320.27M7320.27 1597.82H0M0 1585.44H7320.27" stroke="#C4A1F1" stroke-opacity="0.04" stroke-width="6.19312"/>
<path d="M7320.27 829.878H0M0 817.492H7320.27M7320.27 805.106H0M0 792.72H7320.27" stroke="#C4A1F1" stroke-opacity="0.04" stroke-width="6.19312"/>
<path d="M7320.27 37.1587H0M0 24.7725H7320.27M7320.27 12.3862H0M0 0H7320.27" stroke="#C4A1F1" stroke-opacity="0.04" stroke-width="6.19312"/>
</g>
<g style="mix-blend-mode:lighten">
<path d="M7320.27 2563.95H0M0 2551.57H7320.27M7320.27 2539.18H0M0 2526.79H7320.27" stroke="#C4A1F1" stroke-opacity="0.04" stroke-width="6.19312"/>
<path d="M7320.27 2464.86H0M0 2452.48H7320.27M7320.27 2440.09H0M0 2427.7H7320.27" stroke="#C4A1F1" stroke-opacity="0.04" stroke-width="6.19312"/>
<path d="M7320.27 2514.41H0M0 2502.02H7320.27M7320.27 2489.63H0M0 2477.25H7320.27" stroke="#C4A1F1" stroke-opacity="0.04" stroke-width="6.19312"/>
<path d="M7320.27 2415.32H0M0 2402.93H7320.27M7320.27 2390.54H0M0 2378.16H7320.27" stroke="#C4A1F1" stroke-opacity="0.04" stroke-width="6.19312"/>
</g>
</g>
<defs>
<clipPath id="clip0_1623_62">
<rect width="1442" height="2537" fill="white"/>
</clipPath>
</defs>
</svg>
